<svg xmlns="http://www.w3.org/2000/svg" width="502.6" height="87.987" viewBox="0 0 502.6 87.987">
  <g id="Grupo_1301" data-name="Grupo 1301" transform="translate(-2047.557 254.979)">
    <path id="Trazado_2356" data-name="Trazado 2356" d="M46.967,17,49.382,5.578H50.71L48.553,15.8h4.414L52.71,17ZM58.874,8.281a2.208,2.208,0,0,1,1.281.387,2.513,2.513,0,0,1,.875,1.113h.086l.523-1.344h.992L60.811,17H59.772l.2-1.633h-.062a3.853,3.853,0,0,1-2.945,1.789,2.059,2.059,0,0,1-1.7-.773,3.305,3.305,0,0,1-.617-2.117A8.065,8.065,0,0,1,55.2,11.25a5.21,5.21,0,0,1,1.531-2.18A3.331,3.331,0,0,1,58.874,8.281ZM57.389,16.07a2.2,2.2,0,0,0,1.508-.723,5.355,5.355,0,0,0,1.219-1.883,6.162,6.162,0,0,0,.469-2.324,1.821,1.821,0,0,0-.437-1.281A1.486,1.486,0,0,0,59,9.383a2.151,2.151,0,0,0-1.512.672,4.533,4.533,0,0,0-1.1,1.82,7.336,7.336,0,0,0-.4,2.422,2.048,2.048,0,0,0,.367,1.332A1.267,1.267,0,0,0,57.389,16.07Zm11.273-1.5a2.29,2.29,0,0,1-.863,1.9,3.834,3.834,0,0,1-2.434.684,5.191,5.191,0,0,1-2.383-.539V15.383a4.863,4.863,0,0,0,1.18.508,4.311,4.311,0,0,0,1.172.18,2.382,2.382,0,0,0,1.484-.391,1.215,1.215,0,0,0,.5-1,1.082,1.082,0,0,0-.273-.75,5.51,5.51,0,0,0-1.18-.836,4.752,4.752,0,0,1-1.437-1.117,2.061,2.061,0,0,1-.422-1.3A2.155,2.155,0,0,1,64.8,8.941a3.132,3.132,0,0,1,2.078-.66,6.043,6.043,0,0,1,2.578.578L69.03,9.93l-.437-.2A4.342,4.342,0,0,0,66.874,9.4a1.747,1.747,0,0,0-1.141.34,1.146,1.146,0,0,0-.137,1.629,4.894,4.894,0,0,0,1.145.8,6.655,6.655,0,0,1,1.2.8,2.323,2.323,0,0,1,.543.723A2.043,2.043,0,0,1,68.663,14.57Zm9.523,2.586a2.293,2.293,0,0,1-1.328-.391,2.537,2.537,0,0,1-.883-1.094H75.9l-.031.3q-.023.2-.082.547t-.895,4.328h-1.3L76.217,8.438H77.3l-.2,1.633h.063A3.837,3.837,0,0,1,80.069,8.3a2.055,2.055,0,0,1,1.688.762,3.309,3.309,0,0,1,.617,2.137,8.3,8.3,0,0,1-.539,3.039,5.046,5.046,0,0,1-1.492,2.152A3.341,3.341,0,0,1,78.186,17.156Zm1.453-7.773a2.26,2.26,0,0,0-1.527.742,5.292,5.292,0,0,0-1.234,1.867,6.071,6.071,0,0,0-.457,2.3,1.84,1.84,0,0,0,.434,1.316,1.647,1.647,0,0,0,1.254.457,2.066,2.066,0,0,0,1.441-.633,4.443,4.443,0,0,0,1.074-1.8,7.5,7.5,0,0,0,.406-2.48Q81.03,9.383,79.639,9.383Zm7.367,7.773a2.988,2.988,0,0,1-2.258-.852,3.26,3.26,0,0,1-.82-2.359,7.031,7.031,0,0,1,.582-2.816,5.212,5.212,0,0,1,1.543-2.1,3.363,3.363,0,0,1,2.117-.75,2.685,2.685,0,0,1,1.8.52,1.813,1.813,0,0,1,.6,1.449,2.476,2.476,0,0,1-1.3,2.207,7.1,7.1,0,0,1-3.711.8H85.3l-.031.625a2.418,2.418,0,0,0,.48,1.6,1.832,1.832,0,0,0,1.488.574,3.864,3.864,0,0,0,1.012-.141,7.746,7.746,0,0,0,1.293-.516v1.141a7.081,7.081,0,0,1-1.3.48A5.261,5.261,0,0,1,87.007,17.156ZM88.092,9.4a2.087,2.087,0,0,0-1.512.734A4.8,4.8,0,0,0,85.5,12.172h.094a6.378,6.378,0,0,0,2.73-.465,1.459,1.459,0,0,0,.949-1.348.913.913,0,0,0-.285-.687A1.255,1.255,0,0,0,88.092,9.4ZM92.811,17H91.5L94.092,4.844H95.4Zm4.078,0H95.577L97.4,8.438h1.313Zm.758-9.906q.437-.469.98-1.184t.832-1.168h1.484v.164a14.6,14.6,0,0,1-1.094,1.18A11.848,11.848,0,0,1,98.467,7.3h-.82Zm5.484,10.063a3.18,3.18,0,0,1-2.352-.836,3.191,3.191,0,0,1-.836-2.359,7.108,7.108,0,0,1,.578-2.883,4.894,4.894,0,0,1,1.6-2.059,3.815,3.815,0,0,1,2.293-.738,5.725,5.725,0,0,1,2.094.4l-.367,1.1a4.42,4.42,0,0,0-1.711-.4,2.449,2.449,0,0,0-1.6.6,3.936,3.936,0,0,0-1.133,1.664,6.4,6.4,0,0,0-.41,2.316,2.187,2.187,0,0,0,.52,1.555,1.869,1.869,0,0,0,1.434.555,3.542,3.542,0,0,0,1.063-.156,9.741,9.741,0,0,0,.984-.367v1.117A4.691,4.691,0,0,1,103.132,17.156ZM109.9,8.438l-1.172,5.43a5.861,5.861,0,0,0-.141,1.086,1,1,0,0,0,1.148,1.117,2.323,2.323,0,0,0,1.352-.469,4.166,4.166,0,0,0,1.172-1.344,7.21,7.21,0,0,0,.773-2.109l.781-3.711h1.3L113.311,17h-1.086l.172-1.586H112.3a5.13,5.13,0,0,1-1.461,1.359,2.944,2.944,0,0,1-1.437.383,2.184,2.184,0,0,1-1.57-.543,2.04,2.04,0,0,1-.57-1.551,7.324,7.324,0,0,1,.172-1.344l1.141-5.281ZM117.374,17h-1.312l2.594-12.156h1.313Zm7.3-8.719a2.208,2.208,0,0,1,1.281.387,2.513,2.513,0,0,1,.875,1.113h.086l.523-1.344h.992L126.608,17h-1.039l.2-1.633h-.062a3.853,3.853,0,0,1-2.945,1.789,2.059,2.059,0,0,1-1.7-.773,3.305,3.305,0,0,1-.617-2.117A8.066,8.066,0,0,1,121,11.25a5.21,5.21,0,0,1,1.531-2.18A3.331,3.331,0,0,1,124.671,8.281Zm-1.484,7.789a2.2,2.2,0,0,0,1.508-.723,5.355,5.355,0,0,0,1.219-1.883,6.162,6.162,0,0,0,.469-2.324,1.821,1.821,0,0,0-.437-1.281,1.486,1.486,0,0,0-1.148-.477,2.151,2.151,0,0,0-1.512.672,4.533,4.533,0,0,0-1.1,1.82,7.336,7.336,0,0,0-.4,2.422,2.048,2.048,0,0,0,.367,1.332A1.267,1.267,0,0,0,123.186,16.07Zm11.273-1.5a2.29,2.29,0,0,1-.863,1.9,3.834,3.834,0,0,1-2.434.684,5.191,5.191,0,0,1-2.383-.539V15.383a4.863,4.863,0,0,0,1.18.508,4.311,4.311,0,0,0,1.172.18,2.382,2.382,0,0,0,1.484-.391,1.215,1.215,0,0,0,.5-1,1.082,1.082,0,0,0-.273-.75,5.51,5.51,0,0,0-1.18-.836,4.752,4.752,0,0,1-1.437-1.117,2.061,2.061,0,0,1-.422-1.3,2.155,2.155,0,0,1,.789-1.738,3.132,3.132,0,0,1,2.078-.66,6.043,6.043,0,0,1,2.578.578l-.422,1.07-.437-.2a4.342,4.342,0,0,0-1.719-.336,1.747,1.747,0,0,0-1.141.34,1.146,1.146,0,0,0-.137,1.629,4.894,4.894,0,0,0,1.145.8,6.655,6.655,0,0,1,1.2.8,2.323,2.323,0,0,1,.543.723A2.043,2.043,0,0,1,134.46,14.57Zm4.453,6.273a2.764,2.764,0,0,1-.977-.164v-1.1a2.748,2.748,0,0,0,.875.172,1.032,1.032,0,0,0,.914-.484,4.137,4.137,0,0,0,.516-1.383l1.773-8.453h-1.508l.1-.523,1.609-.516.18-.781a4.629,4.629,0,0,1,1-2.207,2.541,2.541,0,0,1,1.887-.645,4.05,4.05,0,0,1,.766.09,3.55,3.55,0,0,1,.7.2l-.336,1.008a3.04,3.04,0,0,0-1.07-.227,1.377,1.377,0,0,0-1.043.379,3.009,3.009,0,0,0-.59,1.387l-.2.844h1.859l-.2.992h-1.852l-1.812,8.578a4.475,4.475,0,0,1-.937,2.156A2.167,2.167,0,0,1,138.913,20.844ZM149.757,8.328a3.127,3.127,0,0,1,2.344.879,3.31,3.31,0,0,1,.859,2.418A6.93,6.93,0,0,1,152.4,14.4a4.8,4.8,0,0,1-1.523,2.016,3.56,3.56,0,0,1-2.172.711,3.114,3.114,0,0,1-2.352-.883,3.331,3.331,0,0,1-.852-2.414,6.914,6.914,0,0,1,.57-2.793,4.734,4.734,0,0,1,1.539-2.008A3.587,3.587,0,0,1,149.757,8.328Zm1.844,3.117a2.134,2.134,0,0,0-.488-1.457,1.669,1.669,0,0,0-1.324-.559,2.287,2.287,0,0,0-1.527.578,3.721,3.721,0,0,0-1.047,1.605,6.688,6.688,0,0,0-.371,2.285,2.3,2.3,0,0,0,.5,1.582,1.807,1.807,0,0,0,1.426.559,2.154,2.154,0,0,0,1.461-.57,3.725,3.725,0,0,0,1.012-1.621A7.335,7.335,0,0,0,151.6,11.445Zm7.984-3.164a3.565,3.565,0,0,1,.938.109l-.281,1.172a3.434,3.434,0,0,0-.82-.1,2.17,2.17,0,0,0-1.332.469A4.1,4.1,0,0,0,157,11.23a6.623,6.623,0,0,0-.684,1.848L155.483,17h-1.312L156,8.438h1.086l-.172,1.586h.078a7.676,7.676,0,0,1,.93-1.066,2.948,2.948,0,0,1,.77-.5A2.211,2.211,0,0,1,159.585,8.281Zm5.9,8.719,1.156-5.406a6.426,6.426,0,0,0,.141-1.055,1.336,1.336,0,0,0-.242-.852,1,1,0,0,0-.828-.3,2.1,2.1,0,0,0-1.277.469,4.079,4.079,0,0,0-1.094,1.34,7.727,7.727,0,0,0-.73,2.1L161.819,17h-1.312l1.828-8.562h1.086l-.172,1.586h.078a4.895,4.895,0,0,1,1.355-1.336,2.672,2.672,0,0,1,1.395-.406,1.774,1.774,0,0,1,1.359.508A2.322,2.322,0,0,1,168,10.2h.063a5.018,5.018,0,0,1,1.43-1.449,2.867,2.867,0,0,1,1.531-.473,2.1,2.1,0,0,1,1.535.531,2.068,2.068,0,0,1,.543,1.547,7.434,7.434,0,0,1-.172,1.391L171.8,17h-1.328l1.156-5.406a7.1,7.1,0,0,0,.156-1.141.984.984,0,0,0-1.117-1.07,2.1,2.1,0,0,0-1.25.453,3.946,3.946,0,0,0-1.082,1.285,7.02,7.02,0,0,0-.707,1.973L166.8,17Zm13.508-8.719a2.208,2.208,0,0,1,1.281.387,2.513,2.513,0,0,1,.875,1.113h.086l.523-1.344h.992L180.928,17h-1.039l.2-1.633h-.062a3.853,3.853,0,0,1-2.945,1.789,2.059,2.059,0,0,1-1.7-.773,3.305,3.305,0,0,1-.617-2.117,8.065,8.065,0,0,1,.555-3.016,5.21,5.21,0,0,1,1.531-2.18A3.331,3.331,0,0,1,178.991,8.281Zm-1.484,7.789a2.2,2.2,0,0,0,1.508-.723,5.355,5.355,0,0,0,1.219-1.883,6.162,6.162,0,0,0,.469-2.324,1.821,1.821,0,0,0-.437-1.281,1.486,1.486,0,0,0-1.148-.477,2.151,2.151,0,0,0-1.512.672,4.533,4.533,0,0,0-1.1,1.82,7.336,7.336,0,0,0-.4,2.422,2.048,2.048,0,0,0,.367,1.332A1.267,1.267,0,0,0,177.507,16.07Zm11.227.93,1.156-5.406a7.125,7.125,0,0,0,.156-1.125,1.109,1.109,0,0,0-.277-.789,1.164,1.164,0,0,0-.887-.3,2.316,2.316,0,0,0-1.355.469,4.171,4.171,0,0,0-1.164,1.336,7.029,7.029,0,0,0-.762,2.1L184.811,17H183.5l1.828-8.562h1.086l-.172,1.586h.078a5.219,5.219,0,0,1,1.449-1.348,2.911,2.911,0,0,1,1.449-.395,2.187,2.187,0,0,1,1.566.543,1.99,1.99,0,0,1,.574,1.52,6.413,6.413,0,0,1-.18,1.406L190.061,17Zm11.953.156a2.293,2.293,0,0,1-1.328-.391,2.537,2.537,0,0,1-.883-1.094H198.4l-.031.3q-.023.2-.082.547t-.895,4.328h-1.3l2.625-12.406H199.8l-.2,1.633h.063A3.837,3.837,0,0,1,202.569,8.3a2.055,2.055,0,0,1,1.688.762,3.309,3.309,0,0,1,.617,2.137,8.3,8.3,0,0,1-.539,3.039,5.046,5.046,0,0,1-1.492,2.152A3.341,3.341,0,0,1,200.686,17.156Zm1.453-7.773a2.26,2.26,0,0,0-1.527.742,5.292,5.292,0,0,0-1.234,1.867,6.071,6.071,0,0,0-.457,2.3,1.84,1.84,0,0,0,.434,1.316,1.647,1.647,0,0,0,1.254.457,2.066,2.066,0,0,0,1.441-.633,4.443,4.443,0,0,0,1.074-1.8,7.5,7.5,0,0,0,.406-2.48Q203.53,9.383,202.139,9.383Zm8.516-1.1a2.208,2.208,0,0,1,1.281.387,2.513,2.513,0,0,1,.875,1.113h.086l.523-1.344h.992L212.592,17h-1.039l.2-1.633h-.062a3.853,3.853,0,0,1-2.945,1.789,2.059,2.059,0,0,1-1.7-.773,3.305,3.305,0,0,1-.617-2.117,8.065,8.065,0,0,1,.555-3.016,5.21,5.21,0,0,1,1.531-2.18A3.331,3.331,0,0,1,210.655,8.281Zm-1.484,7.789a2.2,2.2,0,0,0,1.508-.723,5.355,5.355,0,0,0,1.219-1.883,6.162,6.162,0,0,0,.469-2.324,1.821,1.821,0,0,0-.437-1.281,1.486,1.486,0,0,0-1.148-.477,2.151,2.151,0,0,0-1.512.672,4.533,4.533,0,0,0-1.1,1.82,7.336,7.336,0,0,0-.4,2.422,2.048,2.048,0,0,0,.367,1.332A1.267,1.267,0,0,0,209.171,16.07Zm11.406-7.789a3.565,3.565,0,0,1,.938.109l-.281,1.172a3.434,3.434,0,0,0-.82-.1,2.17,2.17,0,0,0-1.332.469,4.1,4.1,0,0,0-1.086,1.3,6.623,6.623,0,0,0-.684,1.848L216.475,17h-1.312l1.828-8.562h1.086l-.172,1.586h.078a7.676,7.676,0,0,1,.93-1.066,2.948,2.948,0,0,1,.77-.5A2.211,2.211,0,0,1,220.577,8.281Zm3.547,7.8a4.227,4.227,0,0,0,1.125-.2v1.008a3.6,3.6,0,0,1-.656.188,3.361,3.361,0,0,1-.625.078,2.172,2.172,0,0,1-1.5-.465,1.765,1.765,0,0,1-.52-1.387,5.66,5.66,0,0,1,.141-1.172l.992-4.7h-1.344l.109-.57L223.3,8.25l.977-1.781h.766l-.43,1.969h2.141l-.2.992h-2.133L223.4,14.148a5.558,5.558,0,0,0-.141,1.031.928.928,0,0,0,.227.672A.839.839,0,0,0,224.124,16.086Zm5.945,1.07a2.988,2.988,0,0,1-2.258-.852,3.26,3.26,0,0,1-.82-2.359,7.031,7.031,0,0,1,.582-2.816,5.212,5.212,0,0,1,1.543-2.1,3.363,3.363,0,0,1,2.117-.75,2.685,2.685,0,0,1,1.8.52,1.813,1.813,0,0,1,.6,1.449,2.476,2.476,0,0,1-1.3,2.207,7.1,7.1,0,0,1-3.711.8h-.258l-.031.625a2.418,2.418,0,0,0,.48,1.6,1.832,1.832,0,0,0,1.488.574,3.864,3.864,0,0,0,1.012-.141,7.746,7.746,0,0,0,1.293-.516v1.141a7.081,7.081,0,0,1-1.3.48A5.261,5.261,0,0,1,230.069,17.156ZM231.155,9.4a2.087,2.087,0,0,0-1.512.734,4.8,4.8,0,0,0-1.082,2.039h.094a6.378,6.378,0,0,0,2.73-.465,1.459,1.459,0,0,0,.949-1.348.913.913,0,0,0-.285-.687A1.255,1.255,0,0,0,231.155,9.4Zm12.109-1.1a2.279,2.279,0,0,1,2.2,1.484h.078a18,18,0,0,1,.352-2.141l.609-2.8h1.3L245.217,17h-1.086l.172-1.633h-.062a5.867,5.867,0,0,1-1.477,1.383,2.759,2.759,0,0,1-1.422.406,2.045,2.045,0,0,1-1.7-.766,3.329,3.329,0,0,1-.609-2.125A8.094,8.094,0,0,1,239.6,11.2a5.107,5.107,0,0,1,1.52-2.148A3.368,3.368,0,0,1,243.264,8.3ZM241.78,16.07a2.276,2.276,0,0,0,1.516-.73,5.129,5.129,0,0,0,1.238-1.867,6.16,6.16,0,0,0,.457-2.316,1.87,1.87,0,0,0-.422-1.32,1.594,1.594,0,0,0-1.227-.453,2.09,2.09,0,0,0-1.465.645,4.531,4.531,0,0,0-1.086,1.813,7.361,7.361,0,0,0-.41,2.457Q240.382,16.07,241.78,16.07Zm9.57,1.086a2.988,2.988,0,0,1-2.258-.852,3.26,3.26,0,0,1-.82-2.359,7.031,7.031,0,0,1,.582-2.816,5.212,5.212,0,0,1,1.543-2.1,3.363,3.363,0,0,1,2.117-.75,2.685,2.685,0,0,1,1.8.52,1.813,1.813,0,0,1,.6,1.449,2.476,2.476,0,0,1-1.3,2.207,7.1,7.1,0,0,1-3.711.8h-.258l-.031.625a2.418,2.418,0,0,0,.48,1.6,1.832,1.832,0,0,0,1.488.574,3.864,3.864,0,0,0,1.012-.141,7.746,7.746,0,0,0,1.293-.516v1.141a7.081,7.081,0,0,1-1.3.48A5.261,5.261,0,0,1,251.35,17.156ZM252.436,9.4a2.087,2.087,0,0,0-1.512.734,4.8,4.8,0,0,0-1.082,2.039h.094a6.378,6.378,0,0,0,2.73-.465,1.459,1.459,0,0,0,.949-1.348.913.913,0,0,0-.285-.687A1.255,1.255,0,0,0,252.436,9.4Zm10.641-.961-1.172,5.43a5.861,5.861,0,0,0-.141,1.086,1,1,0,0,0,1.148,1.117,2.323,2.323,0,0,0,1.352-.469,4.166,4.166,0,0,0,1.172-1.344,7.21,7.21,0,0,0,.773-2.109l.781-3.711h1.3L266.483,17H265.4l.172-1.586h-.094a5.13,5.13,0,0,1-1.461,1.359,2.944,2.944,0,0,1-1.437.383,2.184,2.184,0,0,1-1.57-.543,2.04,2.04,0,0,1-.57-1.551,7.323,7.323,0,0,1,.172-1.344l1.141-5.281ZM274.483,17l1.156-5.406a7.127,7.127,0,0,0,.156-1.125,1.109,1.109,0,0,0-.277-.789,1.164,1.164,0,0,0-.887-.3,2.316,2.316,0,0,0-1.355.469,4.171,4.171,0,0,0-1.164,1.336,7.029,7.029,0,0,0-.762,2.1L270.561,17h-1.312l1.828-8.562h1.086l-.172,1.586h.078a5.219,5.219,0,0,1,1.449-1.348,2.911,2.911,0,0,1,1.449-.395,2.187,2.187,0,0,1,1.566.543,1.99,1.99,0,0,1,.574,1.52,6.414,6.414,0,0,1-.18,1.406L275.811,17Zm16.289-8.562-.2.836-1.648.188a2.2,2.2,0,0,1,.32,1.234,3.169,3.169,0,0,1-.91,2.379,3.338,3.338,0,0,1-2.434.887,2.618,2.618,0,0,1-.656-.062q-1.086.414-1.086,1.023a.414.414,0,0,0,.258.426,3.118,3.118,0,0,0,.75.168l.914.109a4.071,4.071,0,0,1,2.051.688,1.835,1.835,0,0,1,.637,1.516,2.551,2.551,0,0,1-1.141,2.227,5.594,5.594,0,0,1-3.211.789,4.237,4.237,0,0,1-2.375-.574,1.839,1.839,0,0,1-.859-1.621,2.012,2.012,0,0,1,.563-1.422,4.381,4.381,0,0,1,1.82-1.023,1.018,1.018,0,0,1-.609-.945,1.245,1.245,0,0,1,.4-.926,4.107,4.107,0,0,1,1.109-.723,2.054,2.054,0,0,1-1.117-1.875,3.432,3.432,0,0,1,.934-2.484,3.17,3.17,0,0,1,2.387-.969,4.708,4.708,0,0,1,1.2.156Zm-8.32,10.086a1.1,1.1,0,0,0,.508.953,2.654,2.654,0,0,0,1.508.352,4.215,4.215,0,0,0,2.223-.5,1.563,1.563,0,0,0,.8-1.4.876.876,0,0,0-.422-.766,3.385,3.385,0,0,0-1.437-.391l-1.242-.125a2.819,2.819,0,0,0-1.437.688A1.606,1.606,0,0,0,282.452,18.523Zm2.172-6.836a1.361,1.361,0,0,0,.352,1.012,1.329,1.329,0,0,0,.977.348,1.811,1.811,0,0,0,1.078-.328,2.086,2.086,0,0,0,.707-.9,3.13,3.13,0,0,0,.246-1.246,1.3,1.3,0,0,0-.344-.977,1.351,1.351,0,0,0-.984-.336,1.827,1.827,0,0,0-1.066.316,2.077,2.077,0,0,0-.711.883A2.973,2.973,0,0,0,284.624,11.688Zm9.414,5.469a2.988,2.988,0,0,1-2.258-.852,3.26,3.26,0,0,1-.82-2.359,7.03,7.03,0,0,1,.582-2.816,5.212,5.212,0,0,1,1.543-2.1,3.363,3.363,0,0,1,2.117-.75,2.685,2.685,0,0,1,1.8.52,1.813,1.813,0,0,1,.6,1.449,2.476,2.476,0,0,1-1.3,2.207,7.1,7.1,0,0,1-3.711.8h-.258l-.031.625a2.418,2.418,0,0,0,.48,1.6,1.832,1.832,0,0,0,1.488.574,3.864,3.864,0,0,0,1.012-.141,7.746,7.746,0,0,0,1.293-.516v1.141a7.081,7.081,0,0,1-1.3.48A5.261,5.261,0,0,1,294.038,17.156ZM295.124,9.4a2.087,2.087,0,0,0-1.512.734,4.8,4.8,0,0,0-1.082,2.039h.094a6.378,6.378,0,0,0,2.73-.465,1.459,1.459,0,0,0,.949-1.348.913.913,0,0,0-.285-.687A1.255,1.255,0,0,0,295.124,9.4Zm-.359-2.3q.437-.469.98-1.184t.832-1.168h1.484v.164a14.6,14.6,0,0,1-1.094,1.18A11.848,11.848,0,0,1,295.585,7.3h-.82ZM303.78,17l1.156-5.406a7.127,7.127,0,0,0,.156-1.125,1.109,1.109,0,0,0-.277-.789,1.164,1.164,0,0,0-.887-.3,2.316,2.316,0,0,0-1.355.469,4.171,4.171,0,0,0-1.164,1.336,7.029,7.029,0,0,0-.762,2.1L299.858,17h-1.312l1.828-8.562h1.086l-.172,1.586h.078a5.219,5.219,0,0,1,1.449-1.348,2.911,2.911,0,0,1,1.449-.395,2.187,2.187,0,0,1,1.566.543,1.99,1.99,0,0,1,.574,1.52,6.414,6.414,0,0,1-.18,1.406L305.108,17Zm7.383.156A2.988,2.988,0,0,1,308.9,16.3a3.26,3.26,0,0,1-.82-2.359,7.03,7.03,0,0,1,.582-2.816,5.212,5.212,0,0,1,1.543-2.1,3.363,3.363,0,0,1,2.117-.75,2.685,2.685,0,0,1,1.8.52,1.813,1.813,0,0,1,.6,1.449,2.476,2.476,0,0,1-1.3,2.207,7.1,7.1,0,0,1-3.711.8h-.258l-.031.625a2.418,2.418,0,0,0,.48,1.6,1.832,1.832,0,0,0,1.488.574,3.864,3.864,0,0,0,1.012-.141A7.746,7.746,0,0,0,313.7,15.4v1.141a7.081,7.081,0,0,1-1.3.48A5.261,5.261,0,0,1,311.163,17.156ZM312.249,9.4a2.087,2.087,0,0,0-1.512.734,4.8,4.8,0,0,0-1.082,2.039h.094a6.378,6.378,0,0,0,2.73-.465,1.459,1.459,0,0,0,.949-1.348.913.913,0,0,0-.285-.687A1.255,1.255,0,0,0,312.249,9.4Zm8.836-1.117a3.565,3.565,0,0,1,.938.109l-.281,1.172a3.434,3.434,0,0,0-.82-.1,2.17,2.17,0,0,0-1.332.469,4.1,4.1,0,0,0-1.086,1.3,6.623,6.623,0,0,0-.684,1.848L316.983,17h-1.312L317.5,8.438h1.086l-.172,1.586h.078a7.677,7.677,0,0,1,.93-1.066,2.948,2.948,0,0,1,.77-.5A2.211,2.211,0,0,1,321.085,8.281Zm5.164.047a3.127,3.127,0,0,1,2.344.879,3.31,3.31,0,0,1,.859,2.418,6.93,6.93,0,0,1-.562,2.773,4.8,4.8,0,0,1-1.523,2.016,3.56,3.56,0,0,1-2.172.711,3.114,3.114,0,0,1-2.352-.883,3.331,3.331,0,0,1-.852-2.414,6.914,6.914,0,0,1,.57-2.793A4.734,4.734,0,0,1,324.1,9.027,3.587,3.587,0,0,1,326.249,8.328Zm1.844,3.117a2.133,2.133,0,0,0-.488-1.457,1.669,1.669,0,0,0-1.324-.559,2.287,2.287,0,0,0-1.527.578,3.721,3.721,0,0,0-1.047,1.605,6.687,6.687,0,0,0-.371,2.285,2.3,2.3,0,0,0,.5,1.582,1.807,1.807,0,0,0,1.426.559,2.154,2.154,0,0,0,1.461-.57,3.725,3.725,0,0,0,1.012-1.621A7.335,7.335,0,0,0,328.092,11.445ZM336.132,17h-1.312l1.828-8.562h1.313Zm.883-10.75a1.027,1.027,0,0,1,.25-.715.832.832,0,0,1,.648-.277.615.615,0,0,1,.688.7,1.06,1.06,0,0,1-.262.727.788.788,0,0,1-.605.3.722.722,0,0,1-.516-.191A.71.71,0,0,1,337.014,6.25Zm10,2.188-.2.836-1.648.188a2.2,2.2,0,0,1,.32,1.234,3.169,3.169,0,0,1-.91,2.379,3.338,3.338,0,0,1-2.434.887,2.618,2.618,0,0,1-.656-.062q-1.086.414-1.086,1.023a.414.414,0,0,0,.258.426,3.118,3.118,0,0,0,.75.168l.914.109a4.071,4.071,0,0,1,2.051.688,1.835,1.835,0,0,1,.637,1.516,2.551,2.551,0,0,1-1.141,2.227,5.594,5.594,0,0,1-3.211.789,4.237,4.237,0,0,1-2.375-.574,1.839,1.839,0,0,1-.859-1.621,2.012,2.012,0,0,1,.563-1.422,4.381,4.381,0,0,1,1.82-1.023,1.018,1.018,0,0,1-.609-.945,1.245,1.245,0,0,1,.4-.926,4.107,4.107,0,0,1,1.109-.723,2.054,2.054,0,0,1-1.117-1.875,3.432,3.432,0,0,1,.934-2.484,3.17,3.17,0,0,1,2.387-.969,4.708,4.708,0,0,1,1.2.156Zm-8.32,10.086a1.1,1.1,0,0,0,.508.953,2.654,2.654,0,0,0,1.508.352,4.215,4.215,0,0,0,2.223-.5,1.563,1.563,0,0,0,.8-1.4.876.876,0,0,0-.422-.766,3.385,3.385,0,0,0-1.437-.391l-1.242-.125a2.819,2.819,0,0,0-1.437.688A1.606,1.606,0,0,0,338.694,18.523Zm2.172-6.836a1.361,1.361,0,0,0,.352,1.012,1.329,1.329,0,0,0,.977.348,1.811,1.811,0,0,0,1.078-.328,2.086,2.086,0,0,0,.707-.9,3.13,3.13,0,0,0,.246-1.246,1.3,1.3,0,0,0-.344-.977,1.351,1.351,0,0,0-.984-.336,1.827,1.827,0,0,0-1.066.316,2.077,2.077,0,0,0-.711.883A2.973,2.973,0,0,0,340.866,11.688Zm9.094-3.25-1.172,5.43a5.861,5.861,0,0,0-.141,1.086A1,1,0,0,0,349.8,16.07a2.323,2.323,0,0,0,1.352-.469,4.166,4.166,0,0,0,1.172-1.344,7.21,7.21,0,0,0,.773-2.109l.781-3.711h1.3L353.366,17H352.28l.172-1.586h-.094a5.13,5.13,0,0,1-1.461,1.359,2.944,2.944,0,0,1-1.437.383,2.184,2.184,0,0,1-1.57-.543,2.04,2.04,0,0,1-.57-1.551,7.323,7.323,0,0,1,.172-1.344l1.141-5.281Zm10.7-.156a2.208,2.208,0,0,1,1.281.387,2.513,2.513,0,0,1,.875,1.113h.086l.523-1.344h.992L362.6,17h-1.039l.2-1.633H361.7a3.853,3.853,0,0,1-2.945,1.789,2.059,2.059,0,0,1-1.7-.773,3.305,3.305,0,0,1-.617-2.117,8.066,8.066,0,0,1,.555-3.016,5.21,5.21,0,0,1,1.531-2.18A3.331,3.331,0,0,1,360.663,8.281Zm-1.484,7.789a2.2,2.2,0,0,0,1.508-.723,5.355,5.355,0,0,0,1.219-1.883,6.162,6.162,0,0,0,.469-2.324,1.821,1.821,0,0,0-.437-1.281,1.486,1.486,0,0,0-1.148-.477,2.151,2.151,0,0,0-1.512.672,4.533,4.533,0,0,0-1.1,1.82,7.336,7.336,0,0,0-.4,2.422,2.048,2.048,0,0,0,.367,1.332A1.267,1.267,0,0,0,359.178,16.07Zm7.289.93h-1.312l2.594-12.156h1.313Zm11.469-8.719a2.184,2.184,0,0,1,1.293.395,2.436,2.436,0,0,1,.848,1.105h.1l.523-1.344h.977l-2.625,12.406h-1.3l.789-3.75q.07-.352.445-1.727h-.062a5.591,5.591,0,0,1-1.445,1.367,2.788,2.788,0,0,1-1.453.422,2.092,2.092,0,0,1-1.715-.762,3.281,3.281,0,0,1-.621-2.129,8.122,8.122,0,0,1,.566-3.062,5.093,5.093,0,0,1,1.531-2.164A3.388,3.388,0,0,1,377.936,8.281Zm-1.5,7.789a2.226,2.226,0,0,0,1.484-.719,5.288,5.288,0,0,0,1.238-1.852,6.03,6.03,0,0,0,.473-2.344,1.876,1.876,0,0,0-.426-1.3,1.515,1.515,0,0,0-1.191-.477,2.106,2.106,0,0,0-1.477.66,4.565,4.565,0,0,0-1.094,1.82,7.31,7.31,0,0,0-.406,2.434Q375.038,16.07,376.436,16.07Zm9.25-7.633-1.172,5.43a5.861,5.861,0,0,0-.141,1.086,1,1,0,0,0,1.148,1.117,2.323,2.323,0,0,0,1.352-.469,4.166,4.166,0,0,0,1.172-1.344,7.21,7.21,0,0,0,.773-2.109l.781-3.711h1.3L389.092,17h-1.086l.172-1.586h-.094a5.13,5.13,0,0,1-1.461,1.359,2.944,2.944,0,0,1-1.437.383,2.184,2.184,0,0,1-1.57-.543,2.04,2.04,0,0,1-.57-1.551,7.323,7.323,0,0,1,.172-1.344l1.141-5.281Zm9.555,8.719a2.988,2.988,0,0,1-2.258-.852,3.26,3.26,0,0,1-.82-2.359,7.03,7.03,0,0,1,.582-2.816,5.212,5.212,0,0,1,1.543-2.1,3.363,3.363,0,0,1,2.117-.75,2.685,2.685,0,0,1,1.8.52,1.813,1.813,0,0,1,.6,1.449,2.476,2.476,0,0,1-1.3,2.207,7.1,7.1,0,0,1-3.711.8h-.258l-.031.625a2.418,2.418,0,0,0,.48,1.6,1.832,1.832,0,0,0,1.488.574,3.864,3.864,0,0,0,1.012-.141,7.746,7.746,0,0,0,1.293-.516v1.141a7.081,7.081,0,0,1-1.3.48A5.261,5.261,0,0,1,395.241,17.156ZM396.327,9.4a2.087,2.087,0,0,0-1.512.734,4.8,4.8,0,0,0-1.082,2.039h.094a6.378,6.378,0,0,0,2.73-.465,1.459,1.459,0,0,0,.949-1.348.913.913,0,0,0-.285-.687A1.255,1.255,0,0,0,396.327,9.4ZM405.2,17h-1.312l2.594-12.156H407.8Zm7.3-8.719a2.208,2.208,0,0,1,1.281.387,2.513,2.513,0,0,1,.875,1.113h.086l.523-1.344h.992L414.436,17H413.4l.2-1.633h-.062a3.853,3.853,0,0,1-2.945,1.789,2.059,2.059,0,0,1-1.7-.773,3.305,3.305,0,0,1-.617-2.117,8.066,8.066,0,0,1,.555-3.016,5.21,5.21,0,0,1,1.531-2.18A3.331,3.331,0,0,1,412.5,8.281Zm-1.484,7.789a2.2,2.2,0,0,0,1.508-.723,5.355,5.355,0,0,0,1.219-1.883,6.162,6.162,0,0,0,.469-2.324,1.821,1.821,0,0,0-.437-1.281,1.486,1.486,0,0,0-1.148-.477,2.151,2.151,0,0,0-1.512.672,4.533,4.533,0,0,0-1.1,1.82,7.336,7.336,0,0,0-.4,2.422,2.048,2.048,0,0,0,.367,1.332A1.267,1.267,0,0,0,411.014,16.07Zm11.273-1.5a2.29,2.29,0,0,1-.863,1.9,3.834,3.834,0,0,1-2.434.684,5.191,5.191,0,0,1-2.383-.539V15.383a4.864,4.864,0,0,0,1.18.508,4.311,4.311,0,0,0,1.172.18,2.382,2.382,0,0,0,1.484-.391,1.215,1.215,0,0,0,.5-1,1.082,1.082,0,0,0-.273-.75,5.51,5.51,0,0,0-1.18-.836,4.752,4.752,0,0,1-1.437-1.117,2.061,2.061,0,0,1-.422-1.3,2.155,2.155,0,0,1,.789-1.738,3.132,3.132,0,0,1,2.078-.66,6.043,6.043,0,0,1,2.578.578l-.422,1.07-.437-.2A4.342,4.342,0,0,0,420.5,9.4a1.747,1.747,0,0,0-1.141.34,1.146,1.146,0,0,0-.137,1.629,4.894,4.894,0,0,0,1.145.8,6.655,6.655,0,0,1,1.2.8,2.323,2.323,0,0,1,.543.723A2.043,2.043,0,0,1,422.288,14.57Zm9.523,2.586a2.293,2.293,0,0,1-1.328-.391,2.537,2.537,0,0,1-.883-1.094h-.078l-.031.3q-.023.2-.082.547t-.895,4.328h-1.3l2.625-12.406h1.086l-.2,1.633h.063A3.837,3.837,0,0,1,433.694,8.3a2.055,2.055,0,0,1,1.688.762A3.309,3.309,0,0,1,436,11.2a8.3,8.3,0,0,1-.539,3.039,5.046,5.046,0,0,1-1.492,2.152A3.341,3.341,0,0,1,431.811,17.156Zm1.453-7.773a2.26,2.26,0,0,0-1.527.742,5.292,5.292,0,0,0-1.234,1.867,6.071,6.071,0,0,0-.457,2.3,1.84,1.84,0,0,0,.434,1.316,1.647,1.647,0,0,0,1.254.457,2.066,2.066,0,0,0,1.441-.633,4.443,4.443,0,0,0,1.074-1.8,7.5,7.5,0,0,0,.406-2.48Q434.655,9.383,433.264,9.383Zm7.367,7.773a2.988,2.988,0,0,1-2.258-.852,3.26,3.26,0,0,1-.82-2.359,7.03,7.03,0,0,1,.582-2.816,5.212,5.212,0,0,1,1.543-2.1,3.363,3.363,0,0,1,2.117-.75,2.685,2.685,0,0,1,1.8.52,1.813,1.813,0,0,1,.6,1.449,2.476,2.476,0,0,1-1.3,2.207,7.1,7.1,0,0,1-3.711.8h-.258l-.031.625a2.418,2.418,0,0,0,.48,1.6,1.832,1.832,0,0,0,1.488.574,3.864,3.864,0,0,0,1.012-.141,7.746,7.746,0,0,0,1.293-.516v1.141a7.081,7.081,0,0,1-1.3.48A5.261,5.261,0,0,1,440.632,17.156ZM441.717,9.4a2.087,2.087,0,0,0-1.512.734,4.8,4.8,0,0,0-1.082,2.039h.094a6.378,6.378,0,0,0,2.73-.465,1.459,1.459,0,0,0,.949-1.348.913.913,0,0,0-.285-.687A1.255,1.255,0,0,0,441.717,9.4Zm8.836-1.117a3.565,3.565,0,0,1,.938.109l-.281,1.172a3.434,3.434,0,0,0-.82-.1,2.17,2.17,0,0,0-1.332.469,4.1,4.1,0,0,0-1.086,1.3,6.623,6.623,0,0,0-.684,1.848L446.452,17h-1.312l1.828-8.562h1.086l-.172,1.586h.078a7.677,7.677,0,0,1,.93-1.066,2.948,2.948,0,0,1,.77-.5A2.211,2.211,0,0,1,450.553,8.281Zm6.2,6.289a2.29,2.29,0,0,1-.863,1.9,3.834,3.834,0,0,1-2.434.684,5.191,5.191,0,0,1-2.383-.539V15.383a4.864,4.864,0,0,0,1.18.508,4.311,4.311,0,0,0,1.172.18,2.382,2.382,0,0,0,1.484-.391,1.215,1.215,0,0,0,.5-1,1.082,1.082,0,0,0-.273-.75,5.51,5.51,0,0,0-1.18-.836,4.752,4.752,0,0,1-1.437-1.117,2.061,2.061,0,0,1-.422-1.3,2.155,2.155,0,0,1,.789-1.738,3.132,3.132,0,0,1,2.078-.66,6.043,6.043,0,0,1,2.578.578l-.422,1.07-.437-.2a4.342,4.342,0,0,0-1.719-.336,1.747,1.747,0,0,0-1.141.34,1.146,1.146,0,0,0-.137,1.629,4.894,4.894,0,0,0,1.145.8,6.655,6.655,0,0,1,1.2.8,2.323,2.323,0,0,1,.543.723A2.043,2.043,0,0,1,456.757,14.57Zm6.133-6.242a3.127,3.127,0,0,1,2.344.879,3.31,3.31,0,0,1,.859,2.418,6.93,6.93,0,0,1-.562,2.773,4.8,4.8,0,0,1-1.523,2.016,3.56,3.56,0,0,1-2.172.711,3.114,3.114,0,0,1-2.352-.883,3.331,3.331,0,0,1-.852-2.414,6.914,6.914,0,0,1,.57-2.793,4.734,4.734,0,0,1,1.539-2.008A3.587,3.587,0,0,1,462.889,8.328Zm1.844,3.117a2.133,2.133,0,0,0-.488-1.457,1.669,1.669,0,0,0-1.324-.559,2.287,2.287,0,0,0-1.527.578,3.721,3.721,0,0,0-1.047,1.605,6.687,6.687,0,0,0-.371,2.285,2.3,2.3,0,0,0,.5,1.582,1.807,1.807,0,0,0,1.426.559,2.154,2.154,0,0,0,1.461-.57,3.725,3.725,0,0,0,1.012-1.621A7.335,7.335,0,0,0,464.733,11.445Zm7.8,5.555,1.156-5.406a7.127,7.127,0,0,0,.156-1.125,1.109,1.109,0,0,0-.277-.789,1.164,1.164,0,0,0-.887-.3,2.316,2.316,0,0,0-1.355.469,4.171,4.171,0,0,0-1.164,1.336,7.029,7.029,0,0,0-.762,2.1L468.616,17H467.3l1.828-8.562h1.086l-.172,1.586h.078a5.219,5.219,0,0,1,1.449-1.348,2.911,2.911,0,0,1,1.449-.395,2.187,2.187,0,0,1,1.566.543,1.99,1.99,0,0,1,.574,1.52,6.414,6.414,0,0,1-.18,1.406L473.866,17Zm8.531-8.719a2.208,2.208,0,0,1,1.281.387,2.513,2.513,0,0,1,.875,1.113h.086l.523-1.344h.992L483.007,17h-1.039l.2-1.633h-.062a3.853,3.853,0,0,1-2.945,1.789,2.059,2.059,0,0,1-1.7-.773,3.305,3.305,0,0,1-.617-2.117,8.066,8.066,0,0,1,.555-3.016,5.21,5.21,0,0,1,1.531-2.18A3.331,3.331,0,0,1,481.069,8.281Zm-1.484,7.789a2.2,2.2,0,0,0,1.508-.723,5.355,5.355,0,0,0,1.219-1.883,6.162,6.162,0,0,0,.469-2.324,1.821,1.821,0,0,0-.437-1.281,1.486,1.486,0,0,0-1.148-.477,2.151,2.151,0,0,0-1.512.672,4.533,4.533,0,0,0-1.1,1.82,7.336,7.336,0,0,0-.4,2.422,2.048,2.048,0,0,0,.367,1.332A1.267,1.267,0,0,0,479.585,16.07Zm11.273-1.5a2.29,2.29,0,0,1-.863,1.9,3.834,3.834,0,0,1-2.434.684,5.191,5.191,0,0,1-2.383-.539V15.383a4.864,4.864,0,0,0,1.18.508,4.311,4.311,0,0,0,1.172.18,2.382,2.382,0,0,0,1.484-.391,1.215,1.215,0,0,0,.5-1,1.082,1.082,0,0,0-.273-.75,5.51,5.51,0,0,0-1.18-.836,4.752,4.752,0,0,1-1.437-1.117,2.061,2.061,0,0,1-.422-1.3,2.155,2.155,0,0,1,.789-1.738,3.132,3.132,0,0,1,2.078-.66,6.043,6.043,0,0,1,2.578.578l-.422,1.07-.437-.2a4.342,4.342,0,0,0-1.719-.336,1.747,1.747,0,0,0-1.141.34,1.146,1.146,0,0,0-.137,1.629,4.894,4.894,0,0,0,1.145.8,6.655,6.655,0,0,1,1.2.8,2.323,2.323,0,0,1,.543.723A2.043,2.043,0,0,1,490.858,14.57ZM130.35,39.156a2.293,2.293,0,0,1-1.328-.391,2.537,2.537,0,0,1-.883-1.094h-.078l-.031.3q-.023.2-.082.547t-.895,4.328h-1.3l2.625-12.406h1.086l-.2,1.633h.063a3.837,3.837,0,0,1,2.906-1.773,2.055,2.055,0,0,1,1.688.762,3.309,3.309,0,0,1,.617,2.137A8.3,8.3,0,0,1,134,36.234a5.046,5.046,0,0,1-1.492,2.152A3.341,3.341,0,0,1,130.35,39.156Zm1.453-7.773a2.26,2.26,0,0,0-1.527.742,5.292,5.292,0,0,0-1.234,1.867,6.071,6.071,0,0,0-.457,2.3,1.84,1.84,0,0,0,.434,1.316,1.647,1.647,0,0,0,1.254.457,2.066,2.066,0,0,0,1.441-.633,4.443,4.443,0,0,0,1.074-1.8,7.5,7.5,0,0,0,.406-2.48Q133.194,31.383,131.8,31.383Zm7.367,7.773a2.988,2.988,0,0,1-2.258-.852,3.26,3.26,0,0,1-.82-2.359,7.031,7.031,0,0,1,.582-2.816,5.212,5.212,0,0,1,1.543-2.1,3.363,3.363,0,0,1,2.117-.75,2.685,2.685,0,0,1,1.8.52,1.813,1.813,0,0,1,.6,1.449,2.476,2.476,0,0,1-1.3,2.207,7.1,7.1,0,0,1-3.711.8h-.258l-.031.625a2.418,2.418,0,0,0,.48,1.6,1.832,1.832,0,0,0,1.488.574,3.864,3.864,0,0,0,1.012-.141,7.746,7.746,0,0,0,1.293-.516v1.141a7.081,7.081,0,0,1-1.3.48A5.261,5.261,0,0,1,139.171,39.156Zm1.086-7.758a2.087,2.087,0,0,0-1.512.734,4.8,4.8,0,0,0-1.082,2.039h.094a6.378,6.378,0,0,0,2.73-.465,1.459,1.459,0,0,0,.949-1.348.912.912,0,0,0-.285-.687A1.255,1.255,0,0,0,140.257,31.4Zm8.836-1.117a3.565,3.565,0,0,1,.938.109l-.281,1.172a3.434,3.434,0,0,0-.82-.1,2.17,2.17,0,0,0-1.332.469,4.1,4.1,0,0,0-1.086,1.3,6.623,6.623,0,0,0-.684,1.848L144.991,39h-1.312l1.828-8.562h1.086l-.172,1.586h.078a7.676,7.676,0,0,1,.93-1.066,2.948,2.948,0,0,1,.77-.5A2.211,2.211,0,0,1,149.092,30.281Zm3.547,7.8a4.227,4.227,0,0,0,1.125-.2v1.008a3.6,3.6,0,0,1-.656.188,3.361,3.361,0,0,1-.625.078,2.172,2.172,0,0,1-1.5-.465,1.765,1.765,0,0,1-.52-1.387,5.66,5.66,0,0,1,.141-1.172l.992-4.7h-1.344l.109-.57,1.445-.609.977-1.781h.766l-.43,1.969h2.141l-.2.992h-2.133l-1.008,4.719a5.558,5.558,0,0,0-.141,1.031.928.928,0,0,0,.227.672A.839.839,0,0,0,152.639,38.086Zm5.945,1.07a2.988,2.988,0,0,1-2.258-.852,3.26,3.26,0,0,1-.82-2.359,7.031,7.031,0,0,1,.582-2.816,5.212,5.212,0,0,1,1.543-2.1,3.363,3.363,0,0,1,2.117-.75,2.685,2.685,0,0,1,1.8.52,1.813,1.813,0,0,1,.6,1.449,2.476,2.476,0,0,1-1.3,2.207,7.1,7.1,0,0,1-3.711.8h-.258l-.031.625a2.418,2.418,0,0,0,.48,1.6,1.832,1.832,0,0,0,1.488.574,3.864,3.864,0,0,0,1.012-.141,7.746,7.746,0,0,0,1.293-.516v1.141a7.081,7.081,0,0,1-1.3.48A5.261,5.261,0,0,1,158.585,39.156Zm1.086-7.758a2.087,2.087,0,0,0-1.512.734,4.8,4.8,0,0,0-1.082,2.039h.094a6.378,6.378,0,0,0,2.73-.465,1.459,1.459,0,0,0,.949-1.348.912.912,0,0,0-.285-.687A1.255,1.255,0,0,0,159.671,31.4Zm8.656,7.6,1.156-5.406a7.125,7.125,0,0,0,.156-1.125,1.109,1.109,0,0,0-.277-.789,1.164,1.164,0,0,0-.887-.3,2.316,2.316,0,0,0-1.355.469,4.171,4.171,0,0,0-1.164,1.336,7.029,7.029,0,0,0-.762,2.1L164.4,39h-1.312l1.828-8.562h1.086l-.172,1.586h.078a5.219,5.219,0,0,1,1.449-1.348,2.911,2.911,0,0,1,1.449-.395,2.187,2.187,0,0,1,1.566.543,1.99,1.99,0,0,1,.574,1.52,6.413,6.413,0,0,1-.18,1.406L169.655,39Zm7.383.156a2.988,2.988,0,0,1-2.258-.852,3.26,3.26,0,0,1-.82-2.359,7.031,7.031,0,0,1,.582-2.816,5.212,5.212,0,0,1,1.543-2.1,3.363,3.363,0,0,1,2.117-.75,2.685,2.685,0,0,1,1.8.52,1.813,1.813,0,0,1,.6,1.449,2.476,2.476,0,0,1-1.3,2.207,7.1,7.1,0,0,1-3.711.8h-.258l-.031.625a2.418,2.418,0,0,0,.48,1.6,1.832,1.832,0,0,0,1.488.574,3.864,3.864,0,0,0,1.012-.141,7.746,7.746,0,0,0,1.293-.516v1.141a7.081,7.081,0,0,1-1.3.48A5.261,5.261,0,0,1,175.71,39.156ZM176.8,31.4a2.087,2.087,0,0,0-1.512.734,4.8,4.8,0,0,0-1.082,2.039h.094a6.378,6.378,0,0,0,2.73-.465,1.459,1.459,0,0,0,.949-1.348.912.912,0,0,0-.285-.687A1.255,1.255,0,0,0,176.8,31.4Zm6.914,7.758a2.907,2.907,0,0,1-3.187-3.2,7.108,7.108,0,0,1,.578-2.883,4.894,4.894,0,0,1,1.6-2.059,3.815,3.815,0,0,1,2.293-.738,5.725,5.725,0,0,1,2.094.4l-.367,1.1a4.42,4.42,0,0,0-1.711-.4,2.449,2.449,0,0,0-1.6.6,3.936,3.936,0,0,0-1.133,1.664,6.4,6.4,0,0,0-.41,2.316,2.187,2.187,0,0,0,.52,1.555,1.869,1.869,0,0,0,1.434.555,3.542,3.542,0,0,0,1.063-.156,9.742,9.742,0,0,0,.984-.367v1.117A4.691,4.691,0,0,1,183.71,39.156Zm7.094,0a2.988,2.988,0,0,1-2.258-.852,3.26,3.26,0,0,1-.82-2.359,7.031,7.031,0,0,1,.582-2.816,5.212,5.212,0,0,1,1.543-2.1,3.363,3.363,0,0,1,2.117-.75,2.685,2.685,0,0,1,1.8.52,1.813,1.813,0,0,1,.6,1.449,2.476,2.476,0,0,1-1.3,2.207,7.1,7.1,0,0,1-3.711.8H189.1l-.031.625a2.418,2.418,0,0,0,.48,1.6,1.832,1.832,0,0,0,1.488.574,3.864,3.864,0,0,0,1.012-.141,7.746,7.746,0,0,0,1.293-.516v1.141a7.081,7.081,0,0,1-1.3.48A5.261,5.261,0,0,1,190.8,39.156Zm1.086-7.758a2.087,2.087,0,0,0-1.512.734,4.8,4.8,0,0,0-1.082,2.039h.094a6.378,6.378,0,0,0,2.73-.465,1.459,1.459,0,0,0,.949-1.348.912.912,0,0,0-.285-.687A1.255,1.255,0,0,0,191.889,31.4Zm8.656,7.6,1.156-5.406a7.125,7.125,0,0,0,.156-1.125,1.109,1.109,0,0,0-.277-.789,1.164,1.164,0,0,0-.887-.3,2.316,2.316,0,0,0-1.355.469,4.171,4.171,0,0,0-1.164,1.336,7.029,7.029,0,0,0-.762,2.1L196.624,39h-1.312l1.828-8.562h1.086l-.172,1.586h.078a5.219,5.219,0,0,1,1.449-1.348,2.911,2.911,0,0,1,1.449-.395,2.187,2.187,0,0,1,1.566.543,1.99,1.99,0,0,1,.574,1.52,6.413,6.413,0,0,1-.18,1.406L201.874,39Zm12.688-8.719a2.208,2.208,0,0,1,1.281.387,2.513,2.513,0,0,1,.875,1.113h.086L216,30.438h.992L215.171,39h-1.039l.2-1.633h-.062a3.853,3.853,0,0,1-2.945,1.789,2.059,2.059,0,0,1-1.7-.773,3.305,3.305,0,0,1-.617-2.117,8.065,8.065,0,0,1,.555-3.016,5.21,5.21,0,0,1,1.531-2.18A3.331,3.331,0,0,1,213.233,30.281Zm-1.484,7.789a2.2,2.2,0,0,0,1.508-.723,5.355,5.355,0,0,0,1.219-1.883,6.162,6.162,0,0,0,.469-2.324,1.821,1.821,0,0,0-.437-1.281,1.486,1.486,0,0,0-1.148-.477,2.151,2.151,0,0,0-1.512.672,4.533,4.533,0,0,0-1.1,1.82,7.336,7.336,0,0,0-.4,2.422,2.048,2.048,0,0,0,.367,1.332A1.267,1.267,0,0,0,211.749,38.07Zm13.211-7.633-1.172,5.43a5.861,5.861,0,0,0-.141,1.086A1,1,0,0,0,224.8,38.07a2.323,2.323,0,0,0,1.352-.469,4.166,4.166,0,0,0,1.172-1.344,7.209,7.209,0,0,0,.773-2.109l.781-3.711h1.3L228.366,39H227.28l.172-1.586h-.094a5.13,5.13,0,0,1-1.461,1.359,2.944,2.944,0,0,1-1.437.383,2.184,2.184,0,0,1-1.57-.543,2.04,2.04,0,0,1-.57-1.551,7.325,7.325,0,0,1,.172-1.344l1.141-5.281ZM236.366,39l1.156-5.406a7.125,7.125,0,0,0,.156-1.125,1.109,1.109,0,0,0-.277-.789,1.164,1.164,0,0,0-.887-.3,2.316,2.316,0,0,0-1.355.469,4.171,4.171,0,0,0-1.164,1.336,7.029,7.029,0,0,0-.762,2.1L232.444,39h-1.312l1.828-8.562h1.086l-.172,1.586h.078a5.219,5.219,0,0,1,1.449-1.348,2.911,2.911,0,0,1,1.449-.395,2.187,2.187,0,0,1,1.566.543,1.99,1.99,0,0,1,.574,1.52,6.413,6.413,0,0,1-.18,1.406L237.694,39Zm8.531-8.719a2.208,2.208,0,0,1,1.281.387,2.513,2.513,0,0,1,.875,1.113h.086l.523-1.344h.992L246.835,39H245.8l.2-1.633h-.062a3.853,3.853,0,0,1-2.945,1.789,2.059,2.059,0,0,1-1.7-.773,3.305,3.305,0,0,1-.617-2.117,8.065,8.065,0,0,1,.555-3.016,5.21,5.21,0,0,1,1.531-2.18A3.331,3.331,0,0,1,244.9,30.281Zm-1.484,7.789a2.2,2.2,0,0,0,1.508-.723,5.355,5.355,0,0,0,1.219-1.883,6.162,6.162,0,0,0,.469-2.324,1.821,1.821,0,0,0-.437-1.281,1.486,1.486,0,0,0-1.148-.477,2.151,2.151,0,0,0-1.512.672,4.533,4.533,0,0,0-1.1,1.82,7.336,7.336,0,0,0-.4,2.422,2.048,2.048,0,0,0,.367,1.332A1.267,1.267,0,0,0,243.413,38.07Zm8.875,4.773a2.764,2.764,0,0,1-.977-.164v-1.1a2.748,2.748,0,0,0,.875.172,1.032,1.032,0,0,0,.914-.484,4.137,4.137,0,0,0,.516-1.383l1.773-8.453h-1.508l.1-.523,1.609-.516.18-.781a4.629,4.629,0,0,1,1-2.207,2.541,2.541,0,0,1,1.887-.645,4.05,4.05,0,0,1,.766.09,3.549,3.549,0,0,1,.7.2l-.336,1.008a3.04,3.04,0,0,0-1.07-.227,1.377,1.377,0,0,0-1.043.379,3.009,3.009,0,0,0-.59,1.387l-.2.844h1.859l-.2.992H256.7l-1.813,8.578a4.475,4.475,0,0,1-.937,2.156A2.167,2.167,0,0,1,252.288,42.844ZM263.1,30.281a2.208,2.208,0,0,1,1.281.387,2.513,2.513,0,0,1,.875,1.113h.086l.523-1.344h.992L265.038,39H264l.2-1.633h-.062a3.853,3.853,0,0,1-2.945,1.789,2.059,2.059,0,0,1-1.7-.773,3.305,3.305,0,0,1-.617-2.117,8.066,8.066,0,0,1,.555-3.016,5.21,5.21,0,0,1,1.531-2.18A3.331,3.331,0,0,1,263.1,30.281Zm-1.484,7.789a2.2,2.2,0,0,0,1.508-.723,5.355,5.355,0,0,0,1.219-1.883,6.162,6.162,0,0,0,.469-2.324,1.821,1.821,0,0,0-.437-1.281,1.486,1.486,0,0,0-1.148-.477,2.151,2.151,0,0,0-1.512.672,4.533,4.533,0,0,0-1.1,1.82,7.336,7.336,0,0,0-.4,2.422,2.048,2.048,0,0,0,.367,1.332A1.267,1.267,0,0,0,261.616,38.07Zm10.969.93,1.156-5.406a6.426,6.426,0,0,0,.141-1.055,1.336,1.336,0,0,0-.242-.852,1,1,0,0,0-.828-.3,2.1,2.1,0,0,0-1.277.469,4.079,4.079,0,0,0-1.094,1.34,7.727,7.727,0,0,0-.73,2.1L268.921,39h-1.312l1.828-8.562h1.086l-.172,1.586h.078a4.895,4.895,0,0,1,1.355-1.336,2.672,2.672,0,0,1,1.395-.406,1.774,1.774,0,0,1,1.359.508A2.321,2.321,0,0,1,275.1,32.2h.063a5.018,5.018,0,0,1,1.43-1.449,2.867,2.867,0,0,1,1.531-.473,2.1,2.1,0,0,1,1.535.531,2.069,2.069,0,0,1,.543,1.547,7.433,7.433,0,0,1-.172,1.391L278.9,39h-1.328l1.156-5.406a7.1,7.1,0,0,0,.156-1.141.984.984,0,0,0-1.117-1.07,2.1,2.1,0,0,0-1.25.453,3.946,3.946,0,0,0-1.082,1.285,7.02,7.02,0,0,0-.707,1.973L273.9,39Zm10.289,0h-1.312l1.828-8.562H284.7Zm.883-10.75a1.027,1.027,0,0,1,.25-.715.832.832,0,0,1,.648-.277.615.615,0,0,1,.688.7,1.06,1.06,0,0,1-.262.727.788.788,0,0,1-.605.3.722.722,0,0,1-.516-.191A.71.71,0,0,1,283.757,28.25ZM286.921,39h-1.312L288.2,26.844h1.313ZM291,39h-1.312l1.828-8.562h1.313Zm.883-10.75a1.027,1.027,0,0,1,.25-.715.832.832,0,0,1,.648-.277.615.615,0,0,1,.688.7,1.06,1.06,0,0,1-.262.727.788.788,0,0,1-.605.3.722.722,0,0,1-.516-.191A.71.71,0,0,1,291.882,28.25Zm6.4,2.031a2.208,2.208,0,0,1,1.281.387,2.513,2.513,0,0,1,.875,1.113h.086l.523-1.344h.992L300.217,39h-1.039l.2-1.633h-.062a3.853,3.853,0,0,1-2.945,1.789,2.059,2.059,0,0,1-1.7-.773,3.305,3.305,0,0,1-.617-2.117,8.066,8.066,0,0,1,.555-3.016,5.21,5.21,0,0,1,1.531-2.18A3.331,3.331,0,0,1,298.28,30.281ZM296.8,38.07a2.2,2.2,0,0,0,1.508-.723,5.355,5.355,0,0,0,1.219-1.883,6.162,6.162,0,0,0,.469-2.324,1.821,1.821,0,0,0-.437-1.281,1.486,1.486,0,0,0-1.148-.477,2.151,2.151,0,0,0-1.512.672,4.533,4.533,0,0,0-1.1,1.82,7.336,7.336,0,0,0-.4,2.422,2.048,2.048,0,0,0,.367,1.332A1.267,1.267,0,0,0,296.8,38.07Zm14.711-7.742a3.127,3.127,0,0,1,2.344.879,3.31,3.31,0,0,1,.859,2.418,6.93,6.93,0,0,1-.562,2.773,4.8,4.8,0,0,1-1.523,2.016,3.56,3.56,0,0,1-2.172.711,3.114,3.114,0,0,1-2.352-.883,3.331,3.331,0,0,1-.852-2.414,6.914,6.914,0,0,1,.57-2.793,4.734,4.734,0,0,1,1.539-2.008A3.587,3.587,0,0,1,311.507,30.328Zm1.844,3.117a2.133,2.133,0,0,0-.488-1.457,1.669,1.669,0,0,0-1.324-.559,2.287,2.287,0,0,0-1.527.578,3.721,3.721,0,0,0-1.047,1.605,6.687,6.687,0,0,0-.371,2.285,2.3,2.3,0,0,0,.5,1.582,1.807,1.807,0,0,0,1.426.559,2.154,2.154,0,0,0,1.461-.57,3.725,3.725,0,0,0,1.012-1.621A7.335,7.335,0,0,0,313.35,33.445Zm14.859-3.008-.2.836-1.648.188a2.2,2.2,0,0,1,.32,1.234,3.169,3.169,0,0,1-.91,2.379,3.338,3.338,0,0,1-2.434.887,2.618,2.618,0,0,1-.656-.062q-1.086.414-1.086,1.023a.414.414,0,0,0,.258.426,3.118,3.118,0,0,0,.75.168l.914.109a4.071,4.071,0,0,1,2.051.688,1.835,1.835,0,0,1,.637,1.516,2.551,2.551,0,0,1-1.141,2.227,5.594,5.594,0,0,1-3.211.789,4.237,4.237,0,0,1-2.375-.574,1.839,1.839,0,0,1-.859-1.621,2.012,2.012,0,0,1,.563-1.422,4.381,4.381,0,0,1,1.82-1.023,1.018,1.018,0,0,1-.609-.945,1.245,1.245,0,0,1,.4-.926,4.107,4.107,0,0,1,1.109-.723,2.054,2.054,0,0,1-1.117-1.875,3.432,3.432,0,0,1,.934-2.484,3.17,3.17,0,0,1,2.387-.969,4.709,4.709,0,0,1,1.2.156Zm-8.32,10.086a1.1,1.1,0,0,0,.508.953,2.654,2.654,0,0,0,1.508.352,4.215,4.215,0,0,0,2.223-.5,1.563,1.563,0,0,0,.8-1.4.876.876,0,0,0-.422-.766,3.385,3.385,0,0,0-1.437-.391l-1.242-.125a2.819,2.819,0,0,0-1.437.688A1.606,1.606,0,0,0,319.889,40.523Zm2.172-6.836a1.361,1.361,0,0,0,.352,1.012,1.329,1.329,0,0,0,.977.348,1.811,1.811,0,0,0,1.078-.328,2.086,2.086,0,0,0,.707-.9,3.13,3.13,0,0,0,.246-1.246,1.3,1.3,0,0,0-.344-.977,1.351,1.351,0,0,0-.984-.336,1.827,1.827,0,0,0-1.066.316,2.077,2.077,0,0,0-.711.883A2.973,2.973,0,0,0,322.061,33.688Zm11.445-3.406a3.565,3.565,0,0,1,.938.109l-.281,1.172a3.434,3.434,0,0,0-.82-.1,2.17,2.17,0,0,0-1.332.469,4.1,4.1,0,0,0-1.086,1.3,6.623,6.623,0,0,0-.684,1.848L329.4,39h-1.312l1.828-8.562h1.086l-.172,1.586h.078a7.677,7.677,0,0,1,.93-1.066,2.948,2.948,0,0,1,.77-.5A2.211,2.211,0,0,1,333.507,30.281Zm3.984.156-1.172,5.43a5.861,5.861,0,0,0-.141,1.086,1,1,0,0,0,1.148,1.117,2.323,2.323,0,0,0,1.352-.469,4.166,4.166,0,0,0,1.172-1.344,7.21,7.21,0,0,0,.773-2.109l.781-3.711h1.3L340.9,39h-1.086l.172-1.586h-.094a5.13,5.13,0,0,1-1.461,1.359,2.944,2.944,0,0,1-1.437.383,2.184,2.184,0,0,1-1.57-.543,2.04,2.04,0,0,1-.57-1.551,7.323,7.323,0,0,1,.172-1.344l1.141-5.281Zm9.969,8.719a2.293,2.293,0,0,1-1.328-.391,2.537,2.537,0,0,1-.883-1.094h-.078l-.031.3q-.023.2-.082.547t-.895,4.328h-1.3l2.625-12.406h1.086l-.2,1.633h.063a3.837,3.837,0,0,1,2.906-1.773,2.055,2.055,0,0,1,1.688.762,3.309,3.309,0,0,1,.617,2.137,8.3,8.3,0,0,1-.539,3.039,5.046,5.046,0,0,1-1.492,2.152A3.341,3.341,0,0,1,347.46,39.156Zm1.453-7.773a2.26,2.26,0,0,0-1.527.742,5.292,5.292,0,0,0-1.234,1.867,6.071,6.071,0,0,0-.457,2.3,1.84,1.84,0,0,0,.434,1.316,1.647,1.647,0,0,0,1.254.457,2.066,2.066,0,0,0,1.441-.633,4.443,4.443,0,0,0,1.074-1.8,7.5,7.5,0,0,0,.406-2.48Q350.3,31.383,348.913,31.383Zm8.547-1.055a3.127,3.127,0,0,1,2.344.879,3.31,3.31,0,0,1,.859,2.418A6.93,6.93,0,0,1,360.1,36.4a4.8,4.8,0,0,1-1.523,2.016,3.56,3.56,0,0,1-2.172.711,3.114,3.114,0,0,1-2.352-.883,3.331,3.331,0,0,1-.852-2.414,6.914,6.914,0,0,1,.57-2.793,4.734,4.734,0,0,1,1.539-2.008A3.587,3.587,0,0,1,357.46,30.328Zm1.844,3.117a2.133,2.133,0,0,0-.488-1.457,1.669,1.669,0,0,0-1.324-.559,2.287,2.287,0,0,0-1.527.578,3.721,3.721,0,0,0-1.047,1.605,6.687,6.687,0,0,0-.371,2.285,2.3,2.3,0,0,0,.5,1.582,1.807,1.807,0,0,0,1.426.559,2.154,2.154,0,0,0,1.461-.57,3.725,3.725,0,0,0,1.012-1.621A7.335,7.335,0,0,0,359.3,33.445Zm10.109,5.711a2.988,2.988,0,0,1-2.258-.852,3.26,3.26,0,0,1-.82-2.359,7.03,7.03,0,0,1,.582-2.816,5.212,5.212,0,0,1,1.543-2.1,3.363,3.363,0,0,1,2.117-.75,2.685,2.685,0,0,1,1.8.52,1.813,1.813,0,0,1,.6,1.449,2.476,2.476,0,0,1-1.3,2.207,7.1,7.1,0,0,1-3.711.8h-.258l-.031.625a2.418,2.418,0,0,0,.48,1.6,1.832,1.832,0,0,0,1.488.574,3.864,3.864,0,0,0,1.012-.141,7.746,7.746,0,0,0,1.293-.516v1.141a7.081,7.081,0,0,1-1.3.48A5.261,5.261,0,0,1,369.413,39.156ZM370.5,31.4a2.087,2.087,0,0,0-1.512.734,4.8,4.8,0,0,0-1.082,2.039H368a6.378,6.378,0,0,0,2.73-.465,1.459,1.459,0,0,0,.949-1.348.913.913,0,0,0-.285-.687A1.255,1.255,0,0,0,370.5,31.4Zm-.359-2.3q.437-.469.98-1.184t.832-1.168h1.484v.164a14.6,14.6,0,0,1-1.094,1.18A11.848,11.848,0,0,1,370.96,29.3h-.82Zm6.406,8.992a4.226,4.226,0,0,0,1.125-.2v1.008a3.6,3.6,0,0,1-.656.188,3.361,3.361,0,0,1-.625.078,2.172,2.172,0,0,1-1.5-.465,1.765,1.765,0,0,1-.52-1.387,5.66,5.66,0,0,1,.141-1.172l.992-4.7h-1.344l.109-.57,1.445-.609.977-1.781h.766l-.43,1.969h2.141l-.2.992h-2.133l-1.008,4.719a5.558,5.558,0,0,0-.141,1.031.928.928,0,0,0,.227.672A.839.839,0,0,0,376.546,38.086Zm7.8.914,1.156-5.406a7.127,7.127,0,0,0,.156-1.125,1.109,1.109,0,0,0-.277-.789,1.164,1.164,0,0,0-.887-.3,2.316,2.316,0,0,0-1.355.469,4.171,4.171,0,0,0-1.164,1.336,7.029,7.029,0,0,0-.762,2.1L380.421,39h-1.312l1.828-8.562h1.086l-.172,1.586h.078a5.219,5.219,0,0,1,1.449-1.348,2.911,2.911,0,0,1,1.449-.395,2.187,2.187,0,0,1,1.566.543,1.99,1.99,0,0,1,.574,1.52,6.414,6.414,0,0,1-.18,1.406L385.671,39Zm5.313,0h-1.312l1.828-8.562h1.313Zm.883-10.75a1.027,1.027,0,0,1,.25-.715.832.832,0,0,1,.648-.277.615.615,0,0,1,.688.7,1.06,1.06,0,0,1-.262.727.788.788,0,0,1-.605.3.722.722,0,0,1-.516-.191A.71.71,0,0,1,390.538,28.25ZM395.9,39.156a2.907,2.907,0,0,1-3.187-3.2,7.108,7.108,0,0,1,.578-2.883,4.894,4.894,0,0,1,1.6-2.059,3.815,3.815,0,0,1,2.293-.738,5.725,5.725,0,0,1,2.094.4l-.367,1.1a4.42,4.42,0,0,0-1.711-.4,2.449,2.449,0,0,0-1.6.6,3.936,3.936,0,0,0-1.133,1.664,6.4,6.4,0,0,0-.41,2.316,2.187,2.187,0,0,0,.52,1.555,1.868,1.868,0,0,0,1.434.555,3.542,3.542,0,0,0,1.063-.156,9.739,9.739,0,0,0,.984-.367v1.117A4.691,4.691,0,0,1,395.9,39.156Zm8.273-8.828a3.127,3.127,0,0,1,2.344.879,3.31,3.31,0,0,1,.859,2.418,6.93,6.93,0,0,1-.562,2.773,4.8,4.8,0,0,1-1.523,2.016,3.56,3.56,0,0,1-2.172.711,3.114,3.114,0,0,1-2.352-.883,3.331,3.331,0,0,1-.852-2.414,6.914,6.914,0,0,1,.57-2.793,4.734,4.734,0,0,1,1.539-2.008A3.587,3.587,0,0,1,404.171,30.328Zm1.844,3.117a2.133,2.133,0,0,0-.488-1.457,1.669,1.669,0,0,0-1.324-.559,2.287,2.287,0,0,0-1.527.578,3.721,3.721,0,0,0-1.047,1.605,6.687,6.687,0,0,0-.371,2.285,2.3,2.3,0,0,0,.5,1.582,1.807,1.807,0,0,0,1.426.559,2.154,2.154,0,0,0,1.461-.57,3.725,3.725,0,0,0,1.012-1.621A7.335,7.335,0,0,0,406.014,33.445Zm2.445,4.977a1.387,1.387,0,0,1,.316-.957,1.106,1.106,0,0,1,.871-.355.742.742,0,0,1,.543.2.83.83,0,0,1,.207.617,1.388,1.388,0,0,1-.312.926,1.046,1.046,0,0,1-.844.371.788.788,0,0,1-.57-.2A.8.8,0,0,1,408.46,38.422ZM87.776,56.617a12.106,12.106,0,0,1,.605-3.875,9.633,9.633,0,0,1,1.746-3.164h1.266A11.015,11.015,0,0,0,89.7,52.891a12.321,12.321,0,0,0-.566,3.711,11.844,11.844,0,0,0,.578,3.664,11.375,11.375,0,0,0,1.664,3.266h-1.25a9.207,9.207,0,0,1-1.75-3.1A11.793,11.793,0,0,1,87.776,56.617Zm5.438,7.391a2.62,2.62,0,0,1-1.156-.211V62.664a4.244,4.244,0,0,0,1.156.156,1.464,1.464,0,0,0,1.176-.469,2.018,2.018,0,0,0,.4-1.352V49.578H96.12V60.891a3.277,3.277,0,0,1-.75,2.3A2.781,2.781,0,0,1,93.214,64.008ZM104.221,61l-.258-1.219H103.9a3.6,3.6,0,0,1-1.277,1.09,3.893,3.893,0,0,1-1.59.285,2.86,2.86,0,0,1-2-.656,2.394,2.394,0,0,1-.723-1.867q0-2.594,4.148-2.719l1.453-.047v-.531a2.171,2.171,0,0,0-.434-1.488,1.783,1.783,0,0,0-1.387-.48,5.65,5.65,0,0,0-2.422.656l-.4-.992a6.094,6.094,0,0,1,1.387-.539,6.006,6.006,0,0,1,1.512-.2,3.262,3.262,0,0,1,2.27.68,2.837,2.837,0,0,1,.738,2.18V61Zm-2.93-.914a2.632,2.632,0,0,0,1.9-.664,2.457,2.457,0,0,0,.691-1.859v-.773l-1.3.055a4.717,4.717,0,0,0-2.23.48,1.449,1.449,0,0,0-.684,1.324,1.336,1.336,0,0,0,.426,1.07A1.767,1.767,0,0,0,101.292,60.086ZM118.768,61V55.43a2.312,2.312,0,0,0-.437-1.535,1.692,1.692,0,0,0-1.359-.512,2.195,2.195,0,0,0-1.789.7,3.3,3.3,0,0,0-.578,2.141V61h-1.3V55.43a2.312,2.312,0,0,0-.437-1.535,1.7,1.7,0,0,0-1.367-.512,2.118,2.118,0,0,0-1.785.73,3.953,3.953,0,0,0-.566,2.395V61h-1.3V52.438h1.055l.211,1.172h.063a2.549,2.549,0,0,1,1.035-.977,3.162,3.162,0,0,1,1.5-.352,2.544,2.544,0,0,1,2.625,1.453h.063a2.73,2.73,0,0,1,1.109-1.062,3.442,3.442,0,0,1,1.656-.391,2.9,2.9,0,0,1,2.176.746,3.338,3.338,0,0,1,.723,2.387V61Zm7.586.156a3.934,3.934,0,0,1-3-1.156,4.476,4.476,0,0,1-1.1-3.211,4.964,4.964,0,0,1,1.02-3.289,3.387,3.387,0,0,1,2.738-1.219,3.229,3.229,0,0,1,2.547,1.059,4.057,4.057,0,0,1,.938,2.793v.82h-5.9a3.394,3.394,0,0,0,.762,2.289,2.635,2.635,0,0,0,2.035.781,6.9,6.9,0,0,0,2.734-.578V60.6a6.863,6.863,0,0,1-1.3.426A7.31,7.31,0,0,1,126.354,61.156ZM126,53.367a2.118,2.118,0,0,0-1.645.672,3.1,3.1,0,0,0-.723,1.859h4.477a2.851,2.851,0,0,0-.547-1.879A1.925,1.925,0,0,0,126,53.367Zm11.234,5.3a2.145,2.145,0,0,1-.891,1.844,4.186,4.186,0,0,1-2.5.648,5.436,5.436,0,0,1-2.656-.539v-1.2a6.424,6.424,0,0,0,1.324.492,5.53,5.53,0,0,0,1.363.18,3.092,3.092,0,0,0,1.563-.324,1.116,1.116,0,0,0,.113-1.844,6.82,6.82,0,0,0-1.691-.84,9.172,9.172,0,0,1-1.7-.777,2.321,2.321,0,0,1-.75-.754,1.966,1.966,0,0,1-.246-1.008,1.921,1.921,0,0,1,.852-1.652,3.968,3.968,0,0,1,2.336-.605,6.835,6.835,0,0,1,2.7.563L136.6,53.9a6.2,6.2,0,0,0-2.336-.531,2.688,2.688,0,0,0-1.391.289.894.894,0,0,0-.469.8.971.971,0,0,0,.176.586,1.735,1.735,0,0,0,.566.461,12.659,12.659,0,0,0,1.5.633A5.6,5.6,0,0,1,136.7,57.25,1.97,1.97,0,0,1,137.237,58.664Zm9.5-1.953a4.724,4.724,0,0,1-1.055,3.27,3.714,3.714,0,0,1-2.914,1.176,3.86,3.86,0,0,1-2.039-.539,3.558,3.558,0,0,1-1.375-1.547,5.391,5.391,0,0,1-.484-2.359,4.716,4.716,0,0,1,1.047-3.262,3.7,3.7,0,0,1,2.906-1.168,3.622,3.622,0,0,1,2.855,1.2A4.7,4.7,0,0,1,146.737,56.711Zm-6.523,0a4.064,4.064,0,0,0,.656,2.5,2.6,2.6,0,0,0,3.863,0,4.043,4.043,0,0,0,.66-2.5,3.978,3.978,0,0,0-.66-2.48,2.32,2.32,0,0,0-1.949-.848,2.283,2.283,0,0,0-1.922.836A4.023,4.023,0,0,0,140.214,56.711ZM154.87,61V55.461a2.235,2.235,0,0,0-.477-1.562,1.941,1.941,0,0,0-1.492-.516,2.461,2.461,0,0,0-1.969.727,3.668,3.668,0,0,0-.625,2.4V61h-1.3V52.438h1.055l.211,1.172h.063a2.648,2.648,0,0,1,1.117-.98,3.63,3.63,0,0,1,1.6-.348,3.252,3.252,0,0,1,2.328.746,3.175,3.175,0,0,1,.781,2.387V61Zm5.32-1.859.117.18q-.2.781-.586,1.816t-.8,1.926h-.977q.211-.813.465-2.008t.355-1.914ZM171.12,61h-1.266V52.859q0-1.016.063-1.922-.164.164-.367.344T167.69,52.8L167,51.914l3.023-2.336h1.094Zm11.852-6.547q0,6.7-5.187,6.7A5.282,5.282,0,0,1,176.346,61V59.883a4.594,4.594,0,0,0,1.422.2,3.459,3.459,0,0,0,2.832-1.16,5.865,5.865,0,0,0,1.043-3.559h-.094a2.781,2.781,0,0,1-1.141.988,3.667,3.667,0,0,1-1.6.34,3.22,3.22,0,0,1-2.406-.906,3.457,3.457,0,0,1-.891-2.531,3.878,3.878,0,0,1,1-2.812,3.811,3.811,0,0,1,4.656-.434,3.777,3.777,0,0,1,1.34,1.742A7.1,7.1,0,0,1,182.971,54.453Zm-3.844-3.93a2.139,2.139,0,0,0-1.727.719,3,3,0,0,0-.609,2,2.6,2.6,0,0,0,.563,1.77,2.151,2.151,0,0,0,1.711.645,2.965,2.965,0,0,0,1.309-.289,2.362,2.362,0,0,0,.941-.789,1.82,1.82,0,0,0,.344-1.047,3.578,3.578,0,0,0-.32-1.516,2.643,2.643,0,0,0-.895-1.094A2.253,2.253,0,0,0,179.128,50.523Zm12.992,3.93q0,6.7-5.187,6.7A5.282,5.282,0,0,1,185.495,61V59.883a4.594,4.594,0,0,0,1.422.2,3.459,3.459,0,0,0,2.832-1.16,5.865,5.865,0,0,0,1.043-3.559H190.7a2.781,2.781,0,0,1-1.141.988,3.667,3.667,0,0,1-1.6.34,3.22,3.22,0,0,1-2.406-.906,3.457,3.457,0,0,1-.891-2.531,3.878,3.878,0,0,1,1-2.812,3.811,3.811,0,0,1,4.656-.434,3.777,3.777,0,0,1,1.34,1.742A7.1,7.1,0,0,1,192.12,54.453Zm-3.844-3.93a2.139,2.139,0,0,0-1.727.719,3,3,0,0,0-.609,2,2.6,2.6,0,0,0,.563,1.77,2.151,2.151,0,0,0,1.711.645,2.965,2.965,0,0,0,1.309-.289,2.362,2.362,0,0,0,.941-.789,1.82,1.82,0,0,0,.344-1.047,3.578,3.578,0,0,0-.32-1.516,2.643,2.643,0,0,0-.895-1.094A2.253,2.253,0,0,0,188.276,50.523Zm13.531,7.852h-1.7V61H198.87V58.375h-5.555V57.242l5.422-7.727h1.375V57.2h1.7ZM198.87,57.2V53.4q0-1.117.078-2.523h-.062a11.739,11.739,0,0,1-.7,1.242l-3.57,5.078Zm5.992,1.945.117.18q-.2.781-.586,1.816t-.8,1.926h-.977q.211-.813.465-2.008t.355-1.914ZM215,61.156a3.654,3.654,0,0,1-2.879-1.145,4.707,4.707,0,0,1-1.02-3.238,4.853,4.853,0,0,1,1.035-3.32,3.727,3.727,0,0,1,2.949-1.172,5.852,5.852,0,0,1,1.234.133,4.066,4.066,0,0,1,.969.313l-.4,1.1a6.1,6.1,0,0,0-.937-.285,4.186,4.186,0,0,0-.9-.113q-2.609,0-2.609,3.328a3.963,3.963,0,0,0,.637,2.422,2.215,2.215,0,0,0,1.887.844,5.769,5.769,0,0,0,2.2-.461v1.148A4.679,4.679,0,0,1,215,61.156ZM220.495,61h-1.3V52.438h1.3Zm-1.406-10.883a.861.861,0,0,1,.219-.652.81.81,0,0,1,1.086,0,.846.846,0,0,1,.227.648.859.859,0,0,1-.227.652.794.794,0,0,1-1.086,0A.877.877,0,0,1,219.089,50.117Zm6.922,9.969a4.236,4.236,0,0,0,.664-.051,4.3,4.3,0,0,0,.508-.105v.992a2.371,2.371,0,0,1-.621.168,4.664,4.664,0,0,1-.738.066q-2.484,0-2.484-2.617V53.445h-1.227V52.82l1.227-.539.547-1.828h.75v1.984h2.484v1.008h-2.484v5.039A1.733,1.733,0,0,0,225,59.672,1.278,1.278,0,0,0,226.01,60.086Zm8.148.914-.258-1.219h-.062a3.6,3.6,0,0,1-1.277,1.09,3.893,3.893,0,0,1-1.59.285,2.86,2.86,0,0,1-2-.656,2.394,2.394,0,0,1-.723-1.867q0-2.594,4.148-2.719l1.453-.047v-.531a2.171,2.171,0,0,0-.434-1.488,1.783,1.783,0,0,0-1.387-.48,5.65,5.65,0,0,0-2.422.656l-.4-.992a6.094,6.094,0,0,1,1.387-.539,6.006,6.006,0,0,1,1.512-.2,3.262,3.262,0,0,1,2.27.68,2.837,2.837,0,0,1,.738,2.18V61Zm-2.93-.914a2.632,2.632,0,0,0,1.9-.664,2.457,2.457,0,0,0,.691-1.859v-.773l-1.3.055a4.717,4.717,0,0,0-2.23.48,1.449,1.449,0,0,0-.684,1.324,1.336,1.336,0,0,0,.426,1.07A1.767,1.767,0,0,0,231.229,60.086Zm12.391-.234h-.07a3.047,3.047,0,0,1-2.687,1.3,3.179,3.179,0,0,1-2.613-1.148,5.055,5.055,0,0,1-.934-3.266,5.141,5.141,0,0,1,.938-3.289,3.155,3.155,0,0,1,2.609-1.172,3.114,3.114,0,0,1,2.672,1.266h.1l-.055-.617-.031-.6V48.844h1.3V61h-1.055Zm-2.594.219a2.361,2.361,0,0,0,1.926-.723,3.652,3.652,0,0,0,.6-2.332v-.273a4.3,4.3,0,0,0-.605-2.6,2.3,2.3,0,0,0-1.934-.777,1.985,1.985,0,0,0-1.746.887,4.409,4.409,0,0,0-.605,2.5,4.227,4.227,0,0,0,.6,2.477A2.037,2.037,0,0,0,241.026,60.07Zm13.961-3.359a4.724,4.724,0,0,1-1.055,3.27,3.714,3.714,0,0,1-2.914,1.176,3.86,3.86,0,0,1-2.039-.539A3.558,3.558,0,0,1,247.6,59.07a5.391,5.391,0,0,1-.484-2.359,4.716,4.716,0,0,1,1.047-3.262,3.7,3.7,0,0,1,2.906-1.168,3.622,3.622,0,0,1,2.855,1.2A4.7,4.7,0,0,1,254.987,56.711Zm-6.523,0a4.064,4.064,0,0,0,.656,2.5,2.6,2.6,0,0,0,3.863,0,4.043,4.043,0,0,0,.66-2.5,3.978,3.978,0,0,0-.66-2.48,2.32,2.32,0,0,0-1.949-.848,2.283,2.283,0,0,0-1.922.836A4.023,4.023,0,0,0,248.464,56.711ZM265.4,61.156a3.706,3.706,0,0,1-1.527-.309,2.872,2.872,0,0,1-1.16-.949h-.094a11.485,11.485,0,0,1,.094,1.422v3.523h-1.3V52.438h1.055l.18,1.172h.063a3.012,3.012,0,0,1,1.164-1.016,3.539,3.539,0,0,1,1.523-.312,3.165,3.165,0,0,1,2.629,1.164,5.125,5.125,0,0,1,.926,3.266,5.1,5.1,0,0,1-.941,3.277A3.17,3.17,0,0,1,265.4,61.156Zm-.187-7.773a2.3,2.3,0,0,0-1.9.727,3.739,3.739,0,0,0-.6,2.313v.289a4.285,4.285,0,0,0,.6,2.582,2.288,2.288,0,0,0,1.93.777,2.007,2.007,0,0,0,1.738-.9,4.26,4.26,0,0,0,.629-2.477,4.1,4.1,0,0,0-.629-2.457A2.069,2.069,0,0,0,265.214,53.383Zm13.4,3.328a4.724,4.724,0,0,1-1.055,3.27,3.714,3.714,0,0,1-2.914,1.176,3.86,3.86,0,0,1-2.039-.539,3.558,3.558,0,0,1-1.375-1.547,5.391,5.391,0,0,1-.484-2.359,4.716,4.716,0,0,1,1.047-3.262,3.7,3.7,0,0,1,2.906-1.168,3.622,3.622,0,0,1,2.855,1.2A4.7,4.7,0,0,1,278.612,56.711Zm-6.523,0a4.064,4.064,0,0,0,.656,2.5,2.6,2.6,0,0,0,3.863,0,4.044,4.044,0,0,0,.66-2.5,3.978,3.978,0,0,0-.66-2.48,2.32,2.32,0,0,0-1.949-.848,2.283,2.283,0,0,0-1.922.836A4.023,4.023,0,0,0,272.089,56.711Zm12.7-4.43a5.075,5.075,0,0,1,1.023.094l-.18,1.2a4.417,4.417,0,0,0-.937-.117,2.282,2.282,0,0,0-1.777.844,3.077,3.077,0,0,0-.738,2.1V61h-1.3V52.438h1.07l.148,1.586h.063a3.764,3.764,0,0,1,1.148-1.289A2.585,2.585,0,0,1,284.792,52.281ZM298.948,61l-1.422-3.633h-4.578L291.542,61H290.2l4.516-11.469h1.117L300.323,61Zm-1.836-4.828-1.328-3.539q-.258-.672-.531-1.648a14.807,14.807,0,0,1-.492,1.648l-1.344,3.539ZM302.995,61h-1.3V48.844h1.3Zm5.516-.914a4.236,4.236,0,0,0,.664-.051,4.3,4.3,0,0,0,.508-.105v.992a2.371,2.371,0,0,1-.621.168,4.664,4.664,0,0,1-.738.066q-2.484,0-2.484-2.617V53.445h-1.227V52.82l1.227-.539.547-1.828h.75v1.984h2.484v1.008h-2.484v5.039a1.734,1.734,0,0,0,.367,1.188A1.278,1.278,0,0,0,308.51,60.086Zm13.8.914V55.43a2.312,2.312,0,0,0-.437-1.535,1.692,1.692,0,0,0-1.359-.512,2.195,2.195,0,0,0-1.789.7,3.3,3.3,0,0,0-.578,2.141V61h-1.3V55.43a2.312,2.312,0,0,0-.437-1.535,1.7,1.7,0,0,0-1.367-.512,2.118,2.118,0,0,0-1.785.73,3.953,3.953,0,0,0-.566,2.395V61h-1.3V52.438h1.055l.211,1.172h.063a2.549,2.549,0,0,1,1.035-.977,3.162,3.162,0,0,1,1.5-.352,2.544,2.544,0,0,1,2.625,1.453h.063a2.73,2.73,0,0,1,1.109-1.062,3.442,3.442,0,0,1,1.656-.391,2.9,2.9,0,0,1,2.176.746,3.338,3.338,0,0,1,.723,2.387V61Zm9.234,0-.258-1.219h-.062a3.6,3.6,0,0,1-1.277,1.09,3.893,3.893,0,0,1-1.59.285,2.86,2.86,0,0,1-2-.656,2.394,2.394,0,0,1-.723-1.867q0-2.594,4.148-2.719l1.453-.047v-.531a2.171,2.171,0,0,0-.434-1.488,1.783,1.783,0,0,0-1.387-.48,5.65,5.65,0,0,0-2.422.656l-.4-.992a6.094,6.094,0,0,1,1.387-.539,6.006,6.006,0,0,1,1.512-.2,3.262,3.262,0,0,1,2.27.68,2.837,2.837,0,0,1,.738,2.18V61Zm-2.93-.914a2.632,2.632,0,0,0,1.9-.664,2.457,2.457,0,0,0,.691-1.859v-.773l-1.3.055a4.717,4.717,0,0,0-2.23.48,1.449,1.449,0,0,0-.684,1.324,1.336,1.336,0,0,0,.426,1.07A1.767,1.767,0,0,0,328.612,60.086ZM341.034,61V55.461a2.235,2.235,0,0,0-.477-1.562,1.941,1.941,0,0,0-1.492-.516,2.461,2.461,0,0,0-1.969.727,3.668,3.668,0,0,0-.625,2.4V61h-1.3V52.438h1.055l.211,1.172h.063a2.648,2.648,0,0,1,1.117-.98,3.63,3.63,0,0,1,1.6-.348,3.252,3.252,0,0,1,2.328.746,3.175,3.175,0,0,1,.781,2.387V61Zm5.32-1.859.117.18q-.2.781-.586,1.816t-.8,1.926h-.977q.211-.813.465-2.008t.355-1.914ZM353.128,61h-1.266V52.859q0-1.016.063-1.922-.164.164-.367.344T349.7,52.8l-.687-.891,3.023-2.336h1.094Zm11.852-6.547q0,6.7-5.187,6.7A5.282,5.282,0,0,1,358.354,61V59.883a4.594,4.594,0,0,0,1.422.2,3.459,3.459,0,0,0,2.832-1.16,5.865,5.865,0,0,0,1.043-3.559h-.094a2.781,2.781,0,0,1-1.141.988,3.667,3.667,0,0,1-1.6.34,3.22,3.22,0,0,1-2.406-.906,3.457,3.457,0,0,1-.891-2.531,3.878,3.878,0,0,1,1-2.812,3.811,3.811,0,0,1,4.656-.434,3.778,3.778,0,0,1,1.34,1.742A7.1,7.1,0,0,1,364.979,54.453Zm-3.844-3.93a2.139,2.139,0,0,0-1.727.719,3,3,0,0,0-.609,2,2.6,2.6,0,0,0,.563,1.77,2.151,2.151,0,0,0,1.711.645,2.965,2.965,0,0,0,1.309-.289,2.362,2.362,0,0,0,.941-.789,1.82,1.82,0,0,0,.344-1.047,3.578,3.578,0,0,0-.32-1.516,2.643,2.643,0,0,0-.895-1.094A2.253,2.253,0,0,0,361.135,50.523Zm12.992,3.93q0,6.7-5.187,6.7A5.282,5.282,0,0,1,367.5,61V59.883a4.594,4.594,0,0,0,1.422.2,3.459,3.459,0,0,0,2.832-1.16,5.865,5.865,0,0,0,1.043-3.559h-.094a2.781,2.781,0,0,1-1.141.988,3.667,3.667,0,0,1-1.6.34,3.22,3.22,0,0,1-2.406-.906,3.457,3.457,0,0,1-.891-2.531,3.878,3.878,0,0,1,1-2.812,3.811,3.811,0,0,1,4.656-.434,3.778,3.778,0,0,1,1.34,1.742A7.1,7.1,0,0,1,374.128,54.453Zm-3.844-3.93a2.139,2.139,0,0,0-1.727.719,3,3,0,0,0-.609,2,2.6,2.6,0,0,0,.563,1.77,2.151,2.151,0,0,0,1.711.645,2.965,2.965,0,0,0,1.309-.289,2.362,2.362,0,0,0,.941-.789,1.82,1.82,0,0,0,.344-1.047,3.578,3.578,0,0,0-.32-1.516,2.643,2.643,0,0,0-.895-1.094A2.253,2.253,0,0,0,370.284,50.523Zm12.992,3.93q0,6.7-5.187,6.7A5.282,5.282,0,0,1,376.651,61V59.883a4.594,4.594,0,0,0,1.422.2,3.459,3.459,0,0,0,2.832-1.16,5.865,5.865,0,0,0,1.043-3.559h-.094a2.781,2.781,0,0,1-1.141.988,3.667,3.667,0,0,1-1.6.34,3.22,3.22,0,0,1-2.406-.906,3.457,3.457,0,0,1-.891-2.531,3.878,3.878,0,0,1,1-2.812,3.811,3.811,0,0,1,4.656-.434,3.778,3.778,0,0,1,1.34,1.742A7.1,7.1,0,0,1,383.276,54.453Zm-3.844-3.93a2.139,2.139,0,0,0-1.727.719,3,3,0,0,0-.609,2,2.6,2.6,0,0,0,.563,1.77,2.151,2.151,0,0,0,1.711.645,2.965,2.965,0,0,0,1.309-.289,2.362,2.362,0,0,0,.941-.789,1.82,1.82,0,0,0,.344-1.047,3.578,3.578,0,0,0-.32-1.516,2.643,2.643,0,0,0-.895-1.094A2.253,2.253,0,0,0,379.432,50.523Zm7.438,8.617.117.18q-.2.781-.586,1.816t-.8,1.926h-.977q.211-.813.465-2.008t.355-1.914Zm10.7,2.016a3.706,3.706,0,0,1-1.527-.309,2.872,2.872,0,0,1-1.16-.949h-.094a11.485,11.485,0,0,1,.094,1.422v3.523h-1.3V52.438h1.055l.18,1.172h.063a3.012,3.012,0,0,1,1.164-1.016,3.539,3.539,0,0,1,1.523-.312,3.165,3.165,0,0,1,2.629,1.164,5.125,5.125,0,0,1,.926,3.266,5.1,5.1,0,0,1-.941,3.277A3.17,3.17,0,0,1,397.573,61.156Zm-.187-7.773a2.3,2.3,0,0,0-1.9.727,3.739,3.739,0,0,0-.6,2.313v.289a4.285,4.285,0,0,0,.6,2.582,2.288,2.288,0,0,0,1.93.777,2.007,2.007,0,0,0,1.738-.9,4.26,4.26,0,0,0,.629-2.477,4.1,4.1,0,0,0-.629-2.457A2.069,2.069,0,0,0,397.385,53.383ZM408.659,61l-.258-1.219h-.062a3.6,3.6,0,0,1-1.277,1.09,3.893,3.893,0,0,1-1.59.285,2.86,2.86,0,0,1-2-.656,2.394,2.394,0,0,1-.723-1.867q0-2.594,4.148-2.719l1.453-.047v-.531a2.171,2.171,0,0,0-.434-1.488,1.783,1.783,0,0,0-1.387-.48,5.65,5.65,0,0,0-2.422.656l-.4-.992a6.094,6.094,0,0,1,1.387-.539,6.006,6.006,0,0,1,1.512-.2,3.262,3.262,0,0,1,2.27.68,2.837,2.837,0,0,1,.738,2.18V61Zm-2.93-.914a2.632,2.632,0,0,0,1.9-.664,2.457,2.457,0,0,0,.691-1.859v-.773l-1.3.055a4.717,4.717,0,0,0-2.23.48,1.449,1.449,0,0,0-.684,1.324,1.336,1.336,0,0,0,.426,1.07A1.767,1.767,0,0,0,405.729,60.086Zm-.3-8.977q.375-.484.809-1.172a13.408,13.408,0,0,0,.684-1.2h1.578v.164a14.473,14.473,0,0,1-2.2,2.4h-.867ZM419.3,52.438v.82l-1.586.188a2.785,2.785,0,0,1,.563,1.711,2.531,2.531,0,0,1-.859,2.008,3.467,3.467,0,0,1-2.359.75,3.929,3.929,0,0,1-.719-.062,1.276,1.276,0,0,0-.828,1.1.56.56,0,0,0,.289.52,2.112,2.112,0,0,0,.992.168h1.516a3.394,3.394,0,0,1,2.137.586,2.036,2.036,0,0,1,.746,1.7,2.431,2.431,0,0,1-1.141,2.168,6.1,6.1,0,0,1-3.328.746,4.547,4.547,0,0,1-2.59-.625,2.018,2.018,0,0,1-.91-1.766,1.983,1.983,0,0,1,.5-1.352,2.546,2.546,0,0,1,1.406-.773,1.357,1.357,0,0,1-.551-.461,1.22,1.22,0,0,1-.223-.727,1.379,1.379,0,0,1,.25-.82,2.628,2.628,0,0,1,.789-.68,2.313,2.313,0,0,1-1.082-.93,2.732,2.732,0,0,1-.418-1.5,2.771,2.771,0,0,1,.844-2.168,3.445,3.445,0,0,1,2.391-.762,4.347,4.347,0,0,1,1.211.156Zm-6.828,10a1.162,1.162,0,0,0,.586,1.055,3.234,3.234,0,0,0,1.68.359,4.687,4.687,0,0,0,2.418-.488,1.5,1.5,0,0,0,.785-1.324,1.048,1.048,0,0,0-.43-.965,3.337,3.337,0,0,0-1.617-.27h-1.555a2.048,2.048,0,0,0-1.375.422A1.507,1.507,0,0,0,412.471,62.438Zm.7-7.258a1.743,1.743,0,0,0,.508,1.359A2.028,2.028,0,0,0,415.1,57a1.654,1.654,0,0,0,1.9-1.844,1.7,1.7,0,0,0-1.922-1.93,1.9,1.9,0,0,0-1.406.492A1.982,1.982,0,0,0,413.174,55.18Zm7.7,4.992a1.164,1.164,0,0,1,.238-.793.864.864,0,0,1,.684-.27.924.924,0,0,1,.707.27,1.116,1.116,0,0,1,.254.793,1.1,1.1,0,0,1-.258.781,1.025,1.025,0,0,1-1.363.027A1.07,1.07,0,0,1,420.87,60.172Zm15.086-7.906a2.6,2.6,0,0,1-.613,1.789,3.07,3.07,0,0,1-1.738.93v.063a3.269,3.269,0,0,1,2.039.875,2.575,2.575,0,0,1,.664,1.844,2.991,2.991,0,0,1-1.133,2.512,5.152,5.152,0,0,1-3.219.879,9.329,9.329,0,0,1-1.66-.137,5.682,5.682,0,0,1-1.465-.48V59.3a7.481,7.481,0,0,0,3.172.75q2.961,0,2.961-2.32,0-2.078-3.266-2.078h-1.125V54.539h1.141a3.434,3.434,0,0,0,2.117-.59,1.935,1.935,0,0,0,.781-1.637A1.613,1.613,0,0,0,434.038,51a2.366,2.366,0,0,0-1.559-.477,4.809,4.809,0,0,0-1.414.2,6.328,6.328,0,0,0-1.516.75l-.656-.875a5.471,5.471,0,0,1,1.621-.871,5.892,5.892,0,0,1,1.934-.316,3.951,3.951,0,0,1,2.586.762A2.565,2.565,0,0,1,435.956,52.266Zm9.148,0a2.6,2.6,0,0,1-.613,1.789,3.07,3.07,0,0,1-1.738.93v.063a3.269,3.269,0,0,1,2.039.875,2.575,2.575,0,0,1,.664,1.844,2.991,2.991,0,0,1-1.133,2.512,5.152,5.152,0,0,1-3.219.879,9.329,9.329,0,0,1-1.66-.137,5.682,5.682,0,0,1-1.465-.48V59.3a7.481,7.481,0,0,0,3.172.75q2.961,0,2.961-2.32,0-2.078-3.266-2.078h-1.125V54.539h1.141a3.434,3.434,0,0,0,2.117-.59,1.935,1.935,0,0,0,.781-1.637A1.613,1.613,0,0,0,443.186,51a2.366,2.366,0,0,0-1.559-.477,4.809,4.809,0,0,0-1.414.2,6.328,6.328,0,0,0-1.516.75l-.656-.875a5.471,5.471,0,0,1,1.621-.871,5.892,5.892,0,0,1,1.934-.316,3.951,3.951,0,0,1,2.586.762A2.565,2.565,0,0,1,445.1,52.266Zm5.383,4.352a11.773,11.773,0,0,1-.605,3.828,9.157,9.157,0,0,1-1.746,3.086h-1.25a11.253,11.253,0,0,0,1.664-3.262,11.881,11.881,0,0,0,.578-3.668,12.321,12.321,0,0,0-.566-3.711,11.014,11.014,0,0,0-1.691-3.312h1.266a9.584,9.584,0,0,1,1.75,3.176A12.164,12.164,0,0,1,450.487,56.617Z" transform="translate(2044.244 -244.948)" fill="#434040"/>
    <path id="Trazado_2357" data-name="Trazado 2357" d="M0,0H501.405" transform="translate(2048.752 -253.979)" fill="none" stroke="#303030" stroke-width="2" opacity="0.5"/>
    <path id="Trazado_2358" data-name="Trazado 2358" d="M0,0H502.6" transform="translate(2047.557 -167.992)" fill="none" stroke="#303030" stroke-width="2" opacity="0.5"/>
    <path id="Trazado_2352" data-name="Trazado 2352" d="M2141.3,667.619h-3.428l2.286-4.571h-3.428l-2.286,4.571v6.857h6.857Z" transform="translate(-54 -907)" fill="#dd474d"/>
    <path id="Trazado_2353" data-name="Trazado 2353" d="M2132.157,674.477v-6.857h-3.428l2.286-4.571h-3.428l-2.286,4.571v6.857Z" transform="translate(-54 -907)" fill="#dd474d"/>
    <path id="Trazado_2354" data-name="Trazado 2354" d="M2535.206,688.689h3.429l-2.286,4.572h3.429l2.286-4.572v-6.857h-6.857Z" transform="translate(-77 -902)" fill="#dd474d"/>
    <path id="Trazado_2355" data-name="Trazado 2355" d="M2544.349,681.832v6.857h3.429l-2.286,4.572h3.429l2.286-4.572v-6.857Z" transform="translate(-77 -902)" fill="#dd474d"/>
  </g>
</svg>
