<svg xmlns="http://www.w3.org/2000/svg" xmlns:xlink="http://www.w3.org/1999/xlink" width="584.882" height="438.271" viewBox="0 0 584.882 438.271">
  <defs>
    <clipPath id="clip-path">
      <rect id="Rectángulo_448" data-name="Rectángulo 448" width="575.394" height="301.123" transform="translate(3681.627 3046.82)" fill="#ccc"/>
    </clipPath>
  </defs>
  <g id="Grupo_1308" data-name="Grupo 1308" transform="translate(-5078.627 -2862.672)">
    <path id="Trazado_2359" data-name="Trazado 2359" d="M20.2,12.617A12.106,12.106,0,0,1,20.8,8.742a9.633,9.633,0,0,1,1.746-3.164h1.266a11.015,11.015,0,0,0-1.691,3.313,12.32,12.32,0,0,0-.566,3.711,11.844,11.844,0,0,0,.578,3.664A11.375,11.375,0,0,0,23.8,19.531h-1.25a9.207,9.207,0,0,1-1.75-3.1A11.793,11.793,0,0,1,20.2,12.617ZM30.934,17l-.258-1.219h-.062a3.6,3.6,0,0,1-1.277,1.09,3.893,3.893,0,0,1-1.59.285,2.86,2.86,0,0,1-2-.656,2.394,2.394,0,0,1-.723-1.867q0-2.594,4.148-2.719l1.453-.047v-.531A2.171,2.171,0,0,0,30.2,9.848a1.783,1.783,0,0,0-1.387-.48,5.65,5.65,0,0,0-2.422.656l-.4-.992a6.094,6.094,0,0,1,1.387-.539,6.006,6.006,0,0,1,1.512-.2,3.262,3.262,0,0,1,2.27.68,2.837,2.837,0,0,1,.738,2.18V17ZM28,16.086a2.632,2.632,0,0,0,1.9-.664,2.457,2.457,0,0,0,.691-1.859v-.773l-1.3.055a4.717,4.717,0,0,0-2.23.48,1.449,1.449,0,0,0-.684,1.324,1.336,1.336,0,0,0,.426,1.07A1.767,1.767,0,0,0,28,16.086ZM38.551,8.3a3.183,3.183,0,0,1,2.621,1.152,5.058,5.058,0,0,1,.934,3.262,5.1,5.1,0,0,1-.941,3.277,3.17,3.17,0,0,1-2.613,1.168,3.706,3.706,0,0,1-1.527-.309,2.872,2.872,0,0,1-1.16-.949H35.77L35.5,17h-.93V4.844h1.3V7.8q0,.992-.062,1.781h.063A3.079,3.079,0,0,1,38.551,8.3Zm-.187,1.086a2.264,2.264,0,0,0-1.914.762,4.3,4.3,0,0,0-.586,2.566,4.285,4.285,0,0,0,.6,2.582,2.288,2.288,0,0,0,1.93.777,2,2,0,0,0,1.781-.871,4.477,4.477,0,0,0,.586-2.5,4.3,4.3,0,0,0-.586-2.492A2.076,2.076,0,0,0,38.363,9.383Zm9.43,7.773a3.654,3.654,0,0,1-2.879-1.145,4.707,4.707,0,0,1-1.02-3.238,4.853,4.853,0,0,1,1.035-3.32,3.727,3.727,0,0,1,2.949-1.172,5.852,5.852,0,0,1,1.234.133,4.066,4.066,0,0,1,.969.313l-.4,1.1a6.1,6.1,0,0,0-.937-.285,4.186,4.186,0,0,0-.9-.113q-2.609,0-2.609,3.328a3.963,3.963,0,0,0,.637,2.422,2.215,2.215,0,0,0,1.887.844,5.769,5.769,0,0,0,2.2-.461v1.148A4.679,4.679,0,0,1,47.793,17.156Zm13.57-6.141h3.883V16.57a12.483,12.483,0,0,1-1.844.438,14.037,14.037,0,0,1-2.172.148,5.264,5.264,0,0,1-4.039-1.543,6.081,6.081,0,0,1-1.445-4.324,6.533,6.533,0,0,1,.715-3.121A4.835,4.835,0,0,1,58.52,6.121a6.669,6.669,0,0,1,3.148-.707,8.6,8.6,0,0,1,3.406.672l-.516,1.172A7.61,7.61,0,0,0,61.582,6.6a4.262,4.262,0,0,0-3.258,1.242,4.821,4.821,0,0,0-1.172,3.445A4.927,4.927,0,0,0,58.281,14.8a4.347,4.347,0,0,0,3.316,1.2,9.854,9.854,0,0,0,2.32-.273V12.2H61.363Zm7.648-2.578v5.555a2.235,2.235,0,0,0,.477,1.563,1.941,1.941,0,0,0,1.492.516,2.435,2.435,0,0,0,1.965-.734,3.7,3.7,0,0,0,.621-2.4v-4.5h1.3V17h-1.07l-.187-1.148h-.07a2.585,2.585,0,0,1-1.105.969,3.716,3.716,0,0,1-1.613.336,3.273,3.273,0,0,1-2.34-.742,3.159,3.159,0,0,1-.777-2.375v-5.6ZM78.91,17h-1.3V8.438h1.3ZM77.5,6.117a.861.861,0,0,1,.219-.652.81.81,0,0,1,1.086,0,.846.846,0,0,1,.227.648.859.859,0,0,1-.227.652.794.794,0,0,1-1.086,0A.877.877,0,0,1,77.5,6.117Zm11.547,6.594A4.724,4.724,0,0,1,88,15.98a3.714,3.714,0,0,1-2.914,1.176,3.86,3.86,0,0,1-2.039-.539,3.558,3.558,0,0,1-1.375-1.547,5.391,5.391,0,0,1-.484-2.359,4.716,4.716,0,0,1,1.047-3.262,3.7,3.7,0,0,1,2.906-1.168,3.622,3.622,0,0,1,2.855,1.2A4.7,4.7,0,0,1,89.051,12.711Zm-6.523,0a4.064,4.064,0,0,0,.656,2.5,2.6,2.6,0,0,0,3.863,0,4.043,4.043,0,0,0,.66-2.5,3.978,3.978,0,0,0-.66-2.48A2.32,2.32,0,0,0,85.1,9.383a2.283,2.283,0,0,0-1.922.836A4.023,4.023,0,0,0,82.527,12.711ZM97.184,17V11.461A2.235,2.235,0,0,0,96.707,9.9a1.941,1.941,0,0,0-1.492-.516,2.461,2.461,0,0,0-1.969.727,3.668,3.668,0,0,0-.625,2.4V17h-1.3V8.438h1.055l.211,1.172h.063a2.648,2.648,0,0,1,1.117-.98,3.63,3.63,0,0,1,1.6-.348,3.252,3.252,0,0,1,2.328.746,3.175,3.175,0,0,1,.781,2.387V17Zm5.258,0h-1.3V8.438h1.3ZM101.035,6.117a.861.861,0,0,1,.219-.652.81.81,0,0,1,1.086,0,.846.846,0,0,1,.227.648.859.859,0,0,1-.227.652.794.794,0,0,1-1.086,0A.877.877,0,0,1,101.035,6.117Zm9.68,8.547a2.145,2.145,0,0,1-.891,1.844,4.186,4.186,0,0,1-2.5.648,5.436,5.436,0,0,1-2.656-.539v-1.2a6.424,6.424,0,0,0,1.324.492,5.53,5.53,0,0,0,1.363.18,3.092,3.092,0,0,0,1.563-.324,1.116,1.116,0,0,0,.113-1.844,6.82,6.82,0,0,0-1.691-.84,9.172,9.172,0,0,1-1.7-.777,2.321,2.321,0,0,1-.75-.754,1.966,1.966,0,0,1-.246-1.008,1.921,1.921,0,0,1,.852-1.652,3.968,3.968,0,0,1,2.336-.605,6.835,6.835,0,0,1,2.7.563L110.074,9.9a6.2,6.2,0,0,0-2.336-.531,2.687,2.687,0,0,0-1.391.289.894.894,0,0,0-.469.8.971.971,0,0,0,.176.586,1.735,1.735,0,0,0,.566.461,12.657,12.657,0,0,0,1.5.633,5.6,5.6,0,0,1,2.059,1.117A1.97,1.97,0,0,1,110.715,14.664Zm4.875,1.422a4.236,4.236,0,0,0,.664-.051,4.3,4.3,0,0,0,.508-.105v.992a2.371,2.371,0,0,1-.621.168,4.664,4.664,0,0,1-.738.066q-2.484,0-2.484-2.617V9.445h-1.227V8.82l1.227-.539.547-1.828h.75V8.438H116.7V9.445h-2.484v5.039a1.734,1.734,0,0,0,.367,1.188A1.278,1.278,0,0,0,115.59,16.086Zm8.148.914-.258-1.219h-.062a3.6,3.6,0,0,1-1.277,1.09,3.893,3.893,0,0,1-1.59.285,2.86,2.86,0,0,1-2-.656,2.394,2.394,0,0,1-.723-1.867q0-2.594,4.148-2.719l1.453-.047v-.531A2.171,2.171,0,0,0,123,9.848a1.783,1.783,0,0,0-1.387-.48,5.65,5.65,0,0,0-2.422.656l-.4-.992a6.094,6.094,0,0,1,1.387-.539,6.006,6.006,0,0,1,1.512-.2,3.262,3.262,0,0,1,2.27.68,2.837,2.837,0,0,1,.738,2.18V17Zm-2.93-.914a2.632,2.632,0,0,0,1.9-.664,2.457,2.457,0,0,0,.691-1.859v-.773l-1.3.055a4.717,4.717,0,0,0-2.23.48,1.449,1.449,0,0,0-.684,1.324,1.336,1.336,0,0,0,.426,1.07A1.767,1.767,0,0,0,120.809,16.086Zm12.086-1.422A2.145,2.145,0,0,1,132,16.508a4.186,4.186,0,0,1-2.5.648,5.436,5.436,0,0,1-2.656-.539v-1.2a6.424,6.424,0,0,0,1.324.492,5.53,5.53,0,0,0,1.363.18,3.092,3.092,0,0,0,1.563-.324,1.116,1.116,0,0,0,.113-1.844,6.82,6.82,0,0,0-1.691-.84,9.172,9.172,0,0,1-1.7-.777,2.321,2.321,0,0,1-.75-.754,1.966,1.966,0,0,1-.246-1.008,1.921,1.921,0,0,1,.852-1.652,3.968,3.968,0,0,1,2.336-.605,6.835,6.835,0,0,1,2.7.563L132.254,9.9a6.2,6.2,0,0,0-2.336-.531,2.688,2.688,0,0,0-1.391.289.894.894,0,0,0-.469.8.971.971,0,0,0,.176.586,1.735,1.735,0,0,0,.566.461,12.659,12.659,0,0,0,1.5.633,5.6,5.6,0,0,1,2.059,1.117A1.97,1.97,0,0,1,132.895,14.664Zm3.469.477.117.18q-.2.781-.586,1.816t-.8,1.926h-.977q.211-.812.465-2.008t.355-1.914ZM150,17h-7.508V15.883l3.008-3.023a22.149,22.149,0,0,0,1.813-1.984,5.064,5.064,0,0,0,.656-1.156,3.312,3.312,0,0,0,.219-1.211,1.92,1.92,0,0,0-.555-1.449,2.125,2.125,0,0,0-1.539-.535,3.87,3.87,0,0,0-1.348.234,5.372,5.372,0,0,0-1.418.852l-.687-.883a5.265,5.265,0,0,1,3.438-1.312,3.632,3.632,0,0,1,2.523.824,2.835,2.835,0,0,1,.914,2.215A4.277,4.277,0,0,1,148.9,10.6a13.64,13.64,0,0,1-2.281,2.688l-2.5,2.445V15.8H150Zm9.211-5.727a8.341,8.341,0,0,1-.934,4.422,3.448,3.448,0,0,1-5.66-.035,8.175,8.175,0,0,1-.961-4.387,8.338,8.338,0,0,1,.93-4.43,3.451,3.451,0,0,1,5.66.063A8.141,8.141,0,0,1,159.207,11.273Zm-6.242,0a8.365,8.365,0,0,0,.586,3.629,2.1,2.1,0,0,0,3.746-.016,8.43,8.43,0,0,0,.582-3.613,8.374,8.374,0,0,0-.582-3.605,2.112,2.112,0,0,0-3.746-.016A8.309,8.309,0,0,0,152.965,11.273ZM168.293,17h-7.508V15.883l3.008-3.023a22.149,22.149,0,0,0,1.813-1.984,5.064,5.064,0,0,0,.656-1.156,3.312,3.312,0,0,0,.219-1.211,1.92,1.92,0,0,0-.555-1.449,2.125,2.125,0,0,0-1.539-.535,3.87,3.87,0,0,0-1.348.234,5.372,5.372,0,0,0-1.418.852l-.687-.883a5.265,5.265,0,0,1,3.438-1.312,3.632,3.632,0,0,1,2.523.824,2.835,2.835,0,0,1,.914,2.215A4.277,4.277,0,0,1,167.2,10.6a13.64,13.64,0,0,1-2.281,2.688l-2.5,2.445V15.8h5.875Zm9.211-5.727a8.341,8.341,0,0,1-.934,4.422,3.448,3.448,0,0,1-5.66-.035,8.175,8.175,0,0,1-.961-4.387,8.338,8.338,0,0,1,.93-4.43,3.451,3.451,0,0,1,5.66.063A8.141,8.141,0,0,1,177.5,11.273Zm-6.242,0a8.365,8.365,0,0,0,.586,3.629,2.1,2.1,0,0,0,3.746-.016,8.43,8.43,0,0,0,.582-3.613,8.374,8.374,0,0,0-.582-3.605,2.112,2.112,0,0,0-3.746-.016A8.309,8.309,0,0,0,171.262,11.273Zm11.133,1.344a11.773,11.773,0,0,1-.605,3.828,9.157,9.157,0,0,1-1.746,3.086h-1.25a11.254,11.254,0,0,0,1.664-3.262,11.881,11.881,0,0,0,.578-3.668,12.32,12.32,0,0,0-.566-3.711,11.015,11.015,0,0,0-1.691-3.312h1.266a9.584,9.584,0,0,1,1.75,3.176A12.163,12.163,0,0,1,182.395,12.617Zm1.828,3.555a1.164,1.164,0,0,1,.238-.793.864.864,0,0,1,.684-.27.924.924,0,0,1,.707.27,1.116,1.116,0,0,1,.254.793,1.1,1.1,0,0,1-.258.781,1.025,1.025,0,0,1-1.363.027A1.07,1.07,0,0,1,184.223,16.172Z" transform="translate(5257.396 2956.285)" fill="#444242"/>
    <g id="Grupo_1306" data-name="Grupo 1306" transform="translate(1397 -47)">
      <text id="Incidente_situado_en_el_primer_acto_y_que_determina_una_nueva_dirección_de_la_historia_usualmente_al_provocar_o_imponer_un_rumbo_distinto_a_su_protagonista_ligado_éste_al_conflicto_dramático_central_que_se_plantea._" data-name="Incidente situado en el primer acto y que determina una nueva dirección de la historia, usualmente al provocar o imponer un rumbo distinto a su protagonista, ligado éste al conflicto dramático central que se plantea.
" transform="translate(3694.509 2920.702)" fill="#444242" font-size="16" font-family="OpenSans-Italic, Open Sans" font-style="italic"><tspan x="11.425" y="17">Incidente situado en el primer acto y que determina una nueva dirección de la </tspan><tspan x="1.718" y="39">historia, usualmente al provocar o imponer un rumbo distinto a su protagonista, </tspan><tspan x="87.023" y="61">ligado éste al conflicto dramático central que se plantea.</tspan><tspan x="285.866" y="83"></tspan></text>
      <line id="Línea_3" data-name="Línea 3" x2="577.389" transform="translate(3684.975 2910.672)" fill="none" stroke="#303030" stroke-width="2" opacity="0.5"/>
      <line id="Línea_4" data-name="Línea 4" x2="578.765" transform="translate(3683.599 2996.658)" fill="none" stroke="#303030" stroke-width="2" opacity="0.5"/>
      <g id="Grupo_33" data-name="Grupo 33">
        <path id="Trazado_105" data-name="Trazado 105" d="M3699.6,2929.27h-3.429l2.286-4.571h-3.429l-2.286,4.571v6.857h6.857Z" fill="#dd474d"/>
        <path id="Trazado_106" data-name="Trazado 106" d="M3690.456,2936.127v-6.857h-3.429l2.286-4.571h-3.429l-2.286,4.571v6.857Z" fill="#dd474d"/>
        <path id="Trazado_107" data-name="Trazado 107" d="M4246.364,2971.34h3.429l-2.286,4.572h3.428l2.286-4.572v-6.857h-6.857Z" fill="#dd474d"/>
        <path id="Trazado_108" data-name="Trazado 108" d="M4255.507,2964.483v6.857h3.429l-2.286,4.572h3.429l2.286-4.572v-6.857Z" fill="#dd474d"/>
      </g>
    </g>
    <g id="Grupo_1307" data-name="Grupo 1307" transform="translate(1397 -47)">
      <g id="Grupo_396" data-name="Grupo 396">
        <rect id="Rectángulo_447" data-name="Rectángulo 447" width="575.394" height="301.123" transform="translate(3681.627 3046.82)" fill="#ccc"/>
        <g id="Grupo_395" data-name="Grupo 395" clip-path="url(#clip-path)">
          <g id="Grupo_394" data-name="Grupo 394">
            <line id="Línea_8" data-name="Línea 8" x1="475.369" y2="475.369" transform="translate(3521.742 2738.403)" fill="none" stroke="#f0f0f0" stroke-miterlimit="10" stroke-width="3"/>
            <line id="Línea_9" data-name="Línea 9" x1="475.369" y2="475.369" transform="translate(3525.435 2742.095)" fill="none" stroke="#f0f0f0" stroke-miterlimit="10" stroke-width="3"/>
            <line id="Línea_10" data-name="Línea 10" x1="475.369" y2="475.369" transform="translate(3529.127 2745.788)" fill="none" stroke="#f0f0f0" stroke-miterlimit="10" stroke-width="3"/>
            <line id="Línea_11" data-name="Línea 11" x1="475.369" y2="475.369" transform="translate(3532.82 2749.48)" fill="none" stroke="#f0f0f0" stroke-miterlimit="10" stroke-width="3"/>
            <line id="Línea_12" data-name="Línea 12" x1="475.369" y2="475.369" transform="translate(3536.512 2753.173)" fill="none" stroke="#f0f0f0" stroke-miterlimit="10" stroke-width="3"/>
            <line id="Línea_13" data-name="Línea 13" x1="475.369" y2="475.369" transform="translate(3540.205 2756.865)" fill="none" stroke="#f0f0f0" stroke-miterlimit="10" stroke-width="3"/>
            <line id="Línea_14" data-name="Línea 14" x1="475.369" y2="475.369" transform="translate(3543.897 2760.558)" fill="none" stroke="#f0f0f0" stroke-miterlimit="10" stroke-width="3"/>
            <line id="Línea_15" data-name="Línea 15" x1="475.369" y2="475.369" transform="translate(3547.59 2764.251)" fill="none" stroke="#f0f0f0" stroke-miterlimit="10" stroke-width="3"/>
            <line id="Línea_16" data-name="Línea 16" x1="475.369" y2="475.369" transform="translate(3551.283 2767.943)" fill="none" stroke="#f0f0f0" stroke-miterlimit="10" stroke-width="3"/>
            <line id="Línea_17" data-name="Línea 17" x1="475.369" y2="475.369" transform="translate(3554.975 2771.636)" fill="none" stroke="#f0f0f0" stroke-miterlimit="10" stroke-width="3"/>
            <line id="Línea_18" data-name="Línea 18" x1="475.369" y2="475.369" transform="translate(3558.668 2775.328)" fill="none" stroke="#f0f0f0" stroke-miterlimit="10" stroke-width="3"/>
            <line id="Línea_19" data-name="Línea 19" x1="475.369" y2="475.369" transform="translate(3562.36 2779.021)" fill="none" stroke="#f0f0f0" stroke-miterlimit="10" stroke-width="3"/>
            <line id="Línea_20" data-name="Línea 20" x1="475.369" y2="475.369" transform="translate(3566.053 2782.714)" fill="none" stroke="#f0f0f0" stroke-miterlimit="10" stroke-width="3"/>
            <line id="Línea_21" data-name="Línea 21" x1="475.369" y2="475.369" transform="translate(3569.746 2786.406)" fill="none" stroke="#f0f0f0" stroke-miterlimit="10" stroke-width="3"/>
            <line id="Línea_22" data-name="Línea 22" x1="475.369" y2="475.369" transform="translate(3573.438 2790.099)" fill="none" stroke="#f0f0f0" stroke-miterlimit="10" stroke-width="3"/>
            <line id="Línea_23" data-name="Línea 23" x1="475.369" y2="475.369" transform="translate(3577.131 2793.792)" fill="none" stroke="#f0f0f0" stroke-miterlimit="10" stroke-width="3"/>
            <line id="Línea_24" data-name="Línea 24" x1="475.369" y2="475.369" transform="translate(3580.823 2797.484)" fill="none" stroke="#f0f0f0" stroke-miterlimit="10" stroke-width="3"/>
            <line id="Línea_25" data-name="Línea 25" x1="475.369" y2="475.369" transform="translate(3584.516 2801.177)" fill="none" stroke="#f0f0f0" stroke-miterlimit="10" stroke-width="3"/>
            <line id="Línea_26" data-name="Línea 26" x1="475.369" y2="475.369" transform="translate(3588.208 2804.869)" fill="none" stroke="#f0f0f0" stroke-miterlimit="10" stroke-width="3"/>
            <line id="Línea_27" data-name="Línea 27" x1="475.369" y2="475.369" transform="translate(3591.901 2808.562)" fill="none" stroke="#f0f0f0" stroke-miterlimit="10" stroke-width="3"/>
            <line id="Línea_28" data-name="Línea 28" x1="475.369" y2="475.369" transform="translate(3595.594 2812.254)" fill="none" stroke="#f0f0f0" stroke-miterlimit="10" stroke-width="3"/>
            <line id="Línea_29" data-name="Línea 29" x1="475.369" y2="475.369" transform="translate(3599.286 2815.947)" fill="none" stroke="#f0f0f0" stroke-miterlimit="10" stroke-width="3"/>
            <line id="Línea_30" data-name="Línea 30" x1="475.369" y2="475.369" transform="translate(3602.979 2819.64)" fill="none" stroke="#f0f0f0" stroke-miterlimit="10" stroke-width="3"/>
            <line id="Línea_31" data-name="Línea 31" x1="475.369" y2="475.369" transform="translate(3606.672 2823.332)" fill="none" stroke="#f0f0f0" stroke-miterlimit="10" stroke-width="3"/>
            <line id="Línea_32" data-name="Línea 32" x1="475.369" y2="475.369" transform="translate(3610.364 2827.025)" fill="none" stroke="#f0f0f0" stroke-miterlimit="10" stroke-width="3"/>
            <line id="Línea_33" data-name="Línea 33" x1="475.369" y2="475.369" transform="translate(3614.057 2830.717)" fill="none" stroke="#f0f0f0" stroke-miterlimit="10" stroke-width="3"/>
            <line id="Línea_34" data-name="Línea 34" x1="475.369" y2="475.369" transform="translate(3617.749 2834.41)" fill="none" stroke="#f0f0f0" stroke-miterlimit="10" stroke-width="3"/>
            <line id="Línea_35" data-name="Línea 35" x1="475.369" y2="475.369" transform="translate(3621.442 2838.103)" fill="none" stroke="#f0f0f0" stroke-miterlimit="10" stroke-width="3"/>
            <line id="Línea_36" data-name="Línea 36" x1="475.369" y2="475.369" transform="translate(3625.135 2841.795)" fill="none" stroke="#f0f0f0" stroke-miterlimit="10" stroke-width="3"/>
            <line id="Línea_37" data-name="Línea 37" x1="475.369" y2="475.369" transform="translate(3628.827 2845.488)" fill="none" stroke="#f0f0f0" stroke-miterlimit="10" stroke-width="3"/>
            <line id="Línea_38" data-name="Línea 38" x1="475.369" y2="475.369" transform="translate(3632.52 2849.18)" fill="none" stroke="#f0f0f0" stroke-miterlimit="10" stroke-width="3"/>
            <line id="Línea_39" data-name="Línea 39" x1="475.369" y2="475.369" transform="translate(3636.212 2852.873)" fill="none" stroke="#f0f0f0" stroke-miterlimit="10" stroke-width="3"/>
            <line id="Línea_40" data-name="Línea 40" x1="475.369" y2="475.369" transform="translate(3639.905 2856.565)" fill="none" stroke="#f0f0f0" stroke-miterlimit="10" stroke-width="3"/>
            <line id="Línea_41" data-name="Línea 41" x1="475.369" y2="475.369" transform="translate(3643.597 2860.258)" fill="none" stroke="#f0f0f0" stroke-miterlimit="10" stroke-width="3"/>
            <line id="Línea_42" data-name="Línea 42" x1="475.369" y2="475.369" transform="translate(3647.29 2863.951)" fill="none" stroke="#f0f0f0" stroke-miterlimit="10" stroke-width="3"/>
            <line id="Línea_43" data-name="Línea 43" x1="475.369" y2="475.369" transform="translate(3650.983 2867.643)" fill="none" stroke="#f0f0f0" stroke-miterlimit="10" stroke-width="3"/>
            <line id="Línea_44" data-name="Línea 44" x1="475.369" y2="475.369" transform="translate(3654.675 2871.336)" fill="none" stroke="#f0f0f0" stroke-miterlimit="10" stroke-width="3"/>
            <line id="Línea_45" data-name="Línea 45" x1="475.369" y2="475.369" transform="translate(3658.368 2875.029)" fill="none" stroke="#f0f0f0" stroke-miterlimit="10" stroke-width="3"/>
            <line id="Línea_46" data-name="Línea 46" x1="475.369" y2="475.369" transform="translate(3662.061 2878.721)" fill="none" stroke="#f0f0f0" stroke-miterlimit="10" stroke-width="3"/>
            <line id="Línea_47" data-name="Línea 47" x1="475.369" y2="475.369" transform="translate(3665.753 2882.414)" fill="none" stroke="#f0f0f0" stroke-miterlimit="10" stroke-width="3"/>
            <line id="Línea_48" data-name="Línea 48" x1="475.369" y2="475.369" transform="translate(3669.446 2886.106)" fill="none" stroke="#f0f0f0" stroke-miterlimit="10" stroke-width="3"/>
            <line id="Línea_49" data-name="Línea 49" x1="475.369" y2="475.369" transform="translate(3673.138 2889.799)" fill="none" stroke="#f0f0f0" stroke-miterlimit="10" stroke-width="3"/>
            <line id="Línea_50" data-name="Línea 50" x1="475.369" y2="475.369" transform="translate(3676.831 2893.491)" fill="none" stroke="#f0f0f0" stroke-miterlimit="10" stroke-width="3"/>
            <line id="Línea_51" data-name="Línea 51" x1="475.369" y2="475.369" transform="translate(3680.523 2897.184)" fill="none" stroke="#f0f0f0" stroke-miterlimit="10" stroke-width="3"/>
            <line id="Línea_52" data-name="Línea 52" x1="475.369" y2="475.369" transform="translate(3684.216 2900.877)" fill="none" stroke="#f0f0f0" stroke-miterlimit="10" stroke-width="3"/>
            <line id="Línea_53" data-name="Línea 53" x1="475.369" y2="475.369" transform="translate(3687.909 2904.569)" fill="none" stroke="#f0f0f0" stroke-miterlimit="10" stroke-width="3"/>
            <line id="Línea_54" data-name="Línea 54" x1="475.369" y2="475.369" transform="translate(3691.601 2908.262)" fill="none" stroke="#f0f0f0" stroke-miterlimit="10" stroke-width="3"/>
            <line id="Línea_55" data-name="Línea 55" x1="475.369" y2="475.369" transform="translate(3695.294 2911.954)" fill="none" stroke="#f0f0f0" stroke-miterlimit="10" stroke-width="3"/>
            <line id="Línea_56" data-name="Línea 56" x1="475.369" y2="475.369" transform="translate(3698.986 2915.647)" fill="none" stroke="#f0f0f0" stroke-miterlimit="10" stroke-width="3"/>
            <line id="Línea_57" data-name="Línea 57" x1="475.369" y2="475.369" transform="translate(3702.679 2919.34)" fill="none" stroke="#f0f0f0" stroke-miterlimit="10" stroke-width="3"/>
            <line id="Línea_58" data-name="Línea 58" x1="475.369" y2="475.369" transform="translate(3706.372 2923.032)" fill="none" stroke="#f0f0f0" stroke-miterlimit="10" stroke-width="3"/>
            <line id="Línea_59" data-name="Línea 59" x1="475.369" y2="475.369" transform="translate(3710.064 2926.725)" fill="none" stroke="#f0f0f0" stroke-miterlimit="10" stroke-width="3"/>
            <line id="Línea_60" data-name="Línea 60" x1="475.369" y2="475.369" transform="translate(3713.757 2930.417)" fill="none" stroke="#f0f0f0" stroke-miterlimit="10" stroke-width="3"/>
            <line id="Línea_61" data-name="Línea 61" x1="475.369" y2="475.369" transform="translate(3717.449 2934.11)" fill="none" stroke="#f0f0f0" stroke-miterlimit="10" stroke-width="3"/>
            <line id="Línea_62" data-name="Línea 62" x1="475.369" y2="475.369" transform="translate(3721.142 2937.802)" fill="none" stroke="#f0f0f0" stroke-miterlimit="10" stroke-width="3"/>
            <line id="Línea_63" data-name="Línea 63" x1="475.369" y2="475.369" transform="translate(3724.834 2941.495)" fill="none" stroke="#f0f0f0" stroke-miterlimit="10" stroke-width="3"/>
            <line id="Línea_64" data-name="Línea 64" x1="475.369" y2="475.369" transform="translate(3728.527 2945.188)" fill="none" stroke="#f0f0f0" stroke-miterlimit="10" stroke-width="3"/>
            <line id="Línea_65" data-name="Línea 65" x1="475.369" y2="475.369" transform="translate(3732.22 2948.88)" fill="none" stroke="#f0f0f0" stroke-miterlimit="10" stroke-width="3"/>
            <line id="Línea_66" data-name="Línea 66" x1="475.369" y2="475.369" transform="translate(3735.912 2952.573)" fill="none" stroke="#f0f0f0" stroke-miterlimit="10" stroke-width="3"/>
            <line id="Línea_67" data-name="Línea 67" x1="475.369" y2="475.369" transform="translate(3739.605 2956.265)" fill="none" stroke="#f0f0f0" stroke-miterlimit="10" stroke-width="3"/>
            <line id="Línea_68" data-name="Línea 68" x1="475.369" y2="475.369" transform="translate(3743.297 2959.958)" fill="none" stroke="#f0f0f0" stroke-miterlimit="10" stroke-width="3"/>
            <line id="Línea_69" data-name="Línea 69" x1="475.369" y2="475.369" transform="translate(3746.99 2963.651)" fill="none" stroke="#f0f0f0" stroke-miterlimit="10" stroke-width="3"/>
            <line id="Línea_70" data-name="Línea 70" x1="475.369" y2="475.369" transform="translate(3750.683 2967.343)" fill="none" stroke="#f0f0f0" stroke-miterlimit="10" stroke-width="3"/>
            <line id="Línea_71" data-name="Línea 71" x1="475.369" y2="475.369" transform="translate(3754.375 2971.036)" fill="none" stroke="#f0f0f0" stroke-miterlimit="10" stroke-width="3"/>
            <line id="Línea_72" data-name="Línea 72" x1="475.369" y2="475.369" transform="translate(3758.068 2974.729)" fill="none" stroke="#f0f0f0" stroke-miterlimit="10" stroke-width="3"/>
            <line id="Línea_73" data-name="Línea 73" x1="475.369" y2="475.369" transform="translate(3761.76 2978.421)" fill="none" stroke="#f0f0f0" stroke-miterlimit="10" stroke-width="3"/>
            <line id="Línea_74" data-name="Línea 74" x1="475.369" y2="475.369" transform="translate(3765.453 2982.114)" fill="none" stroke="#f0f0f0" stroke-miterlimit="10" stroke-width="3"/>
            <line id="Línea_75" data-name="Línea 75" x1="475.369" y2="475.369" transform="translate(3769.146 2985.806)" fill="none" stroke="#f0f0f0" stroke-miterlimit="10" stroke-width="3"/>
            <line id="Línea_76" data-name="Línea 76" x1="475.369" y2="475.369" transform="translate(3772.838 2989.499)" fill="none" stroke="#f0f0f0" stroke-miterlimit="10" stroke-width="3"/>
            <line id="Línea_77" data-name="Línea 77" x1="475.369" y2="475.369" transform="translate(3776.531 2993.191)" fill="none" stroke="#f0f0f0" stroke-miterlimit="10" stroke-width="3"/>
            <line id="Línea_78" data-name="Línea 78" x1="475.369" y2="475.369" transform="translate(3780.223 2996.884)" fill="none" stroke="#f0f0f0" stroke-miterlimit="10" stroke-width="3"/>
            <line id="Línea_79" data-name="Línea 79" x1="475.369" y2="475.369" transform="translate(3783.916 3000.577)" fill="none" stroke="#f0f0f0" stroke-miterlimit="10" stroke-width="3"/>
            <line id="Línea_80" data-name="Línea 80" x1="475.369" y2="475.369" transform="translate(3787.609 3004.269)" fill="none" stroke="#f0f0f0" stroke-miterlimit="10" stroke-width="3"/>
            <line id="Línea_81" data-name="Línea 81" x1="475.369" y2="475.369" transform="translate(3791.301 3007.962)" fill="none" stroke="#f0f0f0" stroke-miterlimit="10" stroke-width="3"/>
            <line id="Línea_82" data-name="Línea 82" x1="475.369" y2="475.369" transform="translate(3794.994 3011.654)" fill="none" stroke="#f0f0f0" stroke-miterlimit="10" stroke-width="3"/>
            <line id="Línea_83" data-name="Línea 83" x1="475.369" y2="475.369" transform="translate(3798.686 3015.347)" fill="none" stroke="#f0f0f0" stroke-miterlimit="10" stroke-width="3"/>
            <line id="Línea_84" data-name="Línea 84" x1="475.369" y2="475.369" transform="translate(3802.379 3019.04)" fill="none" stroke="#f0f0f0" stroke-miterlimit="10" stroke-width="3"/>
            <line id="Línea_85" data-name="Línea 85" x1="475.369" y2="475.369" transform="translate(3806.072 3022.732)" fill="none" stroke="#f0f0f0" stroke-miterlimit="10" stroke-width="3"/>
            <line id="Línea_86" data-name="Línea 86" x1="475.369" y2="475.369" transform="translate(3809.764 3026.425)" fill="none" stroke="#f0f0f0" stroke-miterlimit="10" stroke-width="3"/>
            <line id="Línea_87" data-name="Línea 87" x1="475.369" y2="475.369" transform="translate(3813.457 3030.117)" fill="none" stroke="#f0f0f0" stroke-miterlimit="10" stroke-width="3"/>
            <line id="Línea_88" data-name="Línea 88" x1="475.369" y2="475.369" transform="translate(3817.149 3033.81)" fill="none" stroke="#f0f0f0" stroke-miterlimit="10" stroke-width="3"/>
            <line id="Línea_89" data-name="Línea 89" x1="475.369" y2="475.369" transform="translate(3820.842 3037.502)" fill="none" stroke="#f0f0f0" stroke-miterlimit="10" stroke-width="3"/>
            <line id="Línea_90" data-name="Línea 90" x1="475.369" y2="475.369" transform="translate(3824.534 3041.195)" fill="none" stroke="#f0f0f0" stroke-miterlimit="10" stroke-width="3"/>
            <line id="Línea_91" data-name="Línea 91" x1="475.369" y2="475.369" transform="translate(3828.227 3044.888)" fill="none" stroke="#f0f0f0" stroke-miterlimit="10" stroke-width="3"/>
            <line id="Línea_92" data-name="Línea 92" x1="475.369" y2="475.369" transform="translate(3831.92 3048.58)" fill="none" stroke="#f0f0f0" stroke-miterlimit="10" stroke-width="3"/>
            <line id="Línea_93" data-name="Línea 93" x1="475.369" y2="475.369" transform="translate(3835.612 3052.273)" fill="none" stroke="#f0f0f0" stroke-miterlimit="10" stroke-width="3"/>
            <line id="Línea_94" data-name="Línea 94" x1="475.369" y2="475.369" transform="translate(3839.305 3055.966)" fill="none" stroke="#f0f0f0" stroke-miterlimit="10" stroke-width="3"/>
            <line id="Línea_95" data-name="Línea 95" x1="475.369" y2="475.369" transform="translate(3842.997 3059.658)" fill="none" stroke="#f0f0f0" stroke-miterlimit="10" stroke-width="3"/>
            <line id="Línea_96" data-name="Línea 96" x1="475.369" y2="475.369" transform="translate(3846.69 3063.351)" fill="none" stroke="#f0f0f0" stroke-miterlimit="10" stroke-width="3"/>
            <line id="Línea_97" data-name="Línea 97" x1="475.369" y2="475.369" transform="translate(3850.383 3067.043)" fill="none" stroke="#f0f0f0" stroke-miterlimit="10" stroke-width="3"/>
            <line id="Línea_98" data-name="Línea 98" x1="475.369" y2="475.369" transform="translate(3854.075 3070.736)" fill="none" stroke="#f0f0f0" stroke-miterlimit="10" stroke-width="3"/>
            <line id="Línea_99" data-name="Línea 99" x1="475.369" y2="475.369" transform="translate(3857.768 3074.428)" fill="none" stroke="#f0f0f0" stroke-miterlimit="10" stroke-width="3"/>
            <line id="Línea_100" data-name="Línea 100" x1="475.369" y2="475.369" transform="translate(3861.46 3078.121)" fill="none" stroke="#f0f0f0" stroke-miterlimit="10" stroke-width="3"/>
            <line id="Línea_101" data-name="Línea 101" x1="475.369" y2="475.369" transform="translate(3865.153 3081.814)" fill="none" stroke="#f0f0f0" stroke-miterlimit="10" stroke-width="3"/>
            <line id="Línea_102" data-name="Línea 102" x1="475.369" y2="475.369" transform="translate(3868.845 3085.506)" fill="none" stroke="#f0f0f0" stroke-miterlimit="10" stroke-width="3"/>
            <line id="Línea_103" data-name="Línea 103" x1="475.369" y2="475.369" transform="translate(3872.538 3089.199)" fill="none" stroke="#f0f0f0" stroke-miterlimit="10" stroke-width="3"/>
            <line id="Línea_104" data-name="Línea 104" x1="475.369" y2="475.369" transform="translate(3876.231 3092.891)" fill="none" stroke="#f0f0f0" stroke-miterlimit="10" stroke-width="3"/>
            <line id="Línea_105" data-name="Línea 105" x1="475.369" y2="475.369" transform="translate(3879.923 3096.584)" fill="none" stroke="#f0f0f0" stroke-miterlimit="10" stroke-width="3"/>
            <line id="Línea_106" data-name="Línea 106" x1="475.369" y2="475.369" transform="translate(3883.616 3100.277)" fill="none" stroke="#f0f0f0" stroke-miterlimit="10" stroke-width="3"/>
            <line id="Línea_107" data-name="Línea 107" x1="475.369" y2="475.369" transform="translate(3887.309 3103.969)" fill="none" stroke="#f0f0f0" stroke-miterlimit="10" stroke-width="3"/>
            <line id="Línea_108" data-name="Línea 108" x1="475.369" y2="475.369" transform="translate(3891.001 3107.662)" fill="none" stroke="#f0f0f0" stroke-miterlimit="10" stroke-width="3"/>
            <line id="Línea_109" data-name="Línea 109" x1="475.369" y2="475.369" transform="translate(3894.694 3111.354)" fill="none" stroke="#f0f0f0" stroke-miterlimit="10" stroke-width="3"/>
            <line id="Línea_110" data-name="Línea 110" x1="475.369" y2="475.369" transform="translate(3898.386 3115.047)" fill="none" stroke="#f0f0f0" stroke-miterlimit="10" stroke-width="3"/>
            <line id="Línea_111" data-name="Línea 111" x1="475.369" y2="475.369" transform="translate(3902.079 3118.74)" fill="none" stroke="#f0f0f0" stroke-miterlimit="10" stroke-width="3"/>
            <line id="Línea_112" data-name="Línea 112" x1="475.369" y2="475.369" transform="translate(3905.771 3122.432)" fill="none" stroke="#f0f0f0" stroke-miterlimit="10" stroke-width="3"/>
            <line id="Línea_113" data-name="Línea 113" x1="475.369" y2="475.369" transform="translate(3909.464 3126.125)" fill="none" stroke="#f0f0f0" stroke-miterlimit="10" stroke-width="3"/>
            <line id="Línea_114" data-name="Línea 114" x1="475.369" y2="475.369" transform="translate(3913.157 3129.817)" fill="none" stroke="#f0f0f0" stroke-miterlimit="10" stroke-width="3"/>
            <line id="Línea_115" data-name="Línea 115" x1="475.369" y2="475.369" transform="translate(3916.849 3133.51)" fill="none" stroke="#f0f0f0" stroke-miterlimit="10" stroke-width="3"/>
            <line id="Línea_116" data-name="Línea 116" x1="475.369" y2="475.369" transform="translate(3920.542 3137.203)" fill="none" stroke="#f0f0f0" stroke-miterlimit="10" stroke-width="3"/>
            <line id="Línea_117" data-name="Línea 117" x1="475.369" y2="475.369" transform="translate(3924.234 3140.895)" fill="none" stroke="#f0f0f0" stroke-miterlimit="10" stroke-width="3"/>
            <line id="Línea_118" data-name="Línea 118" x1="475.369" y2="475.369" transform="translate(3927.927 3144.588)" fill="none" stroke="#f0f0f0" stroke-miterlimit="10" stroke-width="3"/>
            <line id="Línea_119" data-name="Línea 119" x1="475.369" y2="475.369" transform="translate(3931.62 3148.28)" fill="none" stroke="#f0f0f0" stroke-miterlimit="10" stroke-width="3"/>
            <line id="Línea_120" data-name="Línea 120" x1="475.369" y2="475.369" transform="translate(3935.312 3151.973)" fill="none" stroke="#f0f0f0" stroke-miterlimit="10" stroke-width="3"/>
            <line id="Línea_121" data-name="Línea 121" x1="475.369" y2="475.369" transform="translate(3937.38 3157.269)" fill="none" stroke="#f0f0f0" stroke-miterlimit="10" stroke-width="3"/>
            <line id="Línea_122" data-name="Línea 122" x1="475.369" y2="475.369" transform="translate(3939.448 3162.565)" fill="none" stroke="#f0f0f0" stroke-miterlimit="10" stroke-width="3"/>
            <line id="Línea_123" data-name="Línea 123" x1="475.369" y2="475.369" transform="translate(3941.517 3167.861)" fill="none" stroke="#f0f0f0" stroke-miterlimit="10" stroke-width="3"/>
            <line id="Línea_124" data-name="Línea 124" x1="475.369" y2="475.369" transform="translate(3943.585 3173.156)" fill="none" stroke="#f0f0f0" stroke-miterlimit="10" stroke-width="3"/>
            <line id="Línea_125" data-name="Línea 125" x1="475.369" y2="475.369" transform="translate(3945.653 3178.452)" fill="none" stroke="#f0f0f0" stroke-miterlimit="10" stroke-width="3"/>
          </g>
        </g>
      </g>
      <path id="Trazado_758" data-name="Trazado 758" d="M4221.6,3262.832A121.286,121.286,0,0,0,4067.417,3146.2a147.479,147.479,0,0,0-260.394,57.9,29.066,29.066,0,0,0-34.449,34.244,74.167,74.167,0,0,0-49.423,42.213h497.158A122.127,122.127,0,0,0,4221.6,3262.832Z" fill="#e6e6e6"/>
      <path id="Trazado_759" data-name="Trazado 759" d="M3723.151,3280.556a74.129,74.129,0,0,0,4.342,67.386h459.184a120.849,120.849,0,0,0,33.632-67.386Z" fill="#adb1cc"/>
      <g id="Grupo_397" data-name="Grupo 397">
        <path id="Trazado_760" data-name="Trazado 760" d="M4103.278,3315.012H3835.37a8.965,8.965,0,1,1,0-17.93h267.908a8.965,8.965,0,1,1,0,17.93Z" fill="#999ebf"/>
      </g>
      <g id="Grupo_398" data-name="Grupo 398">
        <path id="Trazado_761" data-name="Trazado 761" d="M4212.237,3258.5a1.312,1.312,0,0,0-2.088,1.148,37.976,37.976,0,0,0-3.974,2.265,20.462,20.462,0,0,0,1.719-4.558,1.311,1.311,0,1,0-.909-.248,1.421,1.421,0,0,0,.211.126,21.592,21.592,0,0,1-2.306,5.547,56.842,56.842,0,0,0-11.7,11.162l.567.423a53.217,53.217,0,0,1,4.882-5.436c.913-.9,2-1.9,3.229-2.933a13.982,13.982,0,0,1,4.706,1.35,1.312,1.312,0,1,0,.374-.606,15.322,15.322,0,0,0-4.321-1.369,42.115,42.115,0,0,1,7.761-5.052,1.288,1.288,0,0,0,.289.294,1.313,1.313,0,1,0,1.558-2.113Z" fill="#454a5f"/>
        <path id="Trazado_762" data-name="Trazado 762" d="M4194.239,3262.709a13.955,13.955,0,0,1,4.88-.394,1.311,1.311,0,1,0,.136-.7,15.313,15.313,0,0,0-4.526.241,42.162,42.162,0,0,1,5.484-7.462,1.313,1.313,0,1,0-.532-1.446,1.3,1.3,0,0,0,.071.9,37.725,37.725,0,0,0-2.922,3.519,20.5,20.5,0,0,0,0-4.871,1.311,1.311,0,1,0-.939.088,1.372,1.372,0,0,0,.242.043,21.629,21.629,0,0,1-.2,6,56.885,56.885,0,0,0-7.017,14.567l.68.2a52.9,52.9,0,0,1,2.654-6.808C4192.789,3265.431,4193.452,3264.108,4194.239,3262.709Z" fill="#454a5f"/>
      </g>
      <g id="Grupo_399" data-name="Grupo 399">
        <path id="Trazado_763" data-name="Trazado 763" d="M4147.569,3104.827a16.342,16.342,0,0,1,15.709,11.843h-31.417A16.341,16.341,0,0,1,4147.569,3104.827Z" fill="#fff"/>
        <path id="Trazado_764" data-name="Trazado 764" d="M4071,3099.225a24.071,24.071,0,0,1,23.14,17.445h-46.28A24.071,24.071,0,0,1,4071,3099.225Z" fill="#fff"/>
        <path id="Trazado_765" data-name="Trazado 765" d="M4142.816,3116.67c-3.548-12.278-17.609-21.449-34.417-21.449s-30.869,9.171-34.417,21.449Z" fill="#fff"/>
      </g>
      <g id="Grupo_400" data-name="Grupo 400">
        <path id="Trazado_766" data-name="Trazado 766" d="M3868.667,3116.36a17.991,17.991,0,0,1,17.295,13.038h-34.589A17.991,17.991,0,0,1,3868.667,3116.36Z" fill="#f6d2a6"/>
        <path id="Trazado_767" data-name="Trazado 767" d="M3784.371,3110.192a26.5,26.5,0,0,1,25.476,19.206H3758.9A26.5,26.5,0,0,1,3784.371,3110.192Z" fill="#f6d2a6"/>
        <path id="Trazado_768" data-name="Trazado 768" d="M3863.435,3129.4c-3.907-13.518-19.387-23.614-37.892-23.614s-33.985,10.1-37.891,23.614Z" fill="#f6d2a6"/>
      </g>
      <g id="Grupo_401" data-name="Grupo 401">
        <path id="Trazado_769" data-name="Trazado 769" d="M4119.076,3109.715a14.05,14.05,0,0,1,13.506,10.182H4105.57A14.05,14.05,0,0,1,4119.076,3109.715Z" fill="#adb1cc"/>
        <path id="Trazado_770" data-name="Trazado 770" d="M4134.882,3112.87a9.7,9.7,0,0,1,9.32,7.027h-18.641A9.7,9.7,0,0,1,4134.882,3112.87Z" fill="#adb1cc"/>
        <path id="Trazado_771" data-name="Trazado 771" d="M4114.792,3119.9c-1.814-6.277-9-10.966-17.6-10.966s-15.782,4.689-17.6,10.966Z" fill="#adb1cc"/>
      </g>
      <g id="Grupo_402" data-name="Grupo 402">
        <path id="Trazado_772" data-name="Trazado 772" d="M3859.087,3252.983a38.136,38.136,0,0,1,36.659,27.637h-73.318A38.135,38.135,0,0,1,3859.087,3252.983Z" fill="#caccd9"/>
        <path id="Trazado_773" data-name="Trazado 773" d="M3901.988,3261.548a26.315,26.315,0,0,1,25.3,19.072h-50.6A26.317,26.317,0,0,1,3901.988,3261.548Z" fill="#caccd9"/>
        <path id="Trazado_774" data-name="Trazado 774" d="M3847.46,3280.62c-4.924-17.039-24.437-29.765-47.761-29.765s-42.836,12.726-47.76,29.765Z" fill="#caccd9"/>
      </g>
      <g id="Grupo_403" data-name="Grupo 403">
        <path id="Trazado_775" data-name="Trazado 775" d="M4010.372,3267.789a17.7,17.7,0,0,1,17.019,12.831h-34.038A17.7,17.7,0,0,1,4010.372,3267.789Z" fill="#caccd9"/>
        <path id="Trazado_776" data-name="Trazado 776" d="M4030.289,3271.765a12.219,12.219,0,0,1,11.745,8.855h-23.49A12.219,12.219,0,0,1,4030.289,3271.765Z" fill="#caccd9"/>
        <path id="Trazado_777" data-name="Trazado 777" d="M4004.974,3280.62c-2.286-7.91-11.345-13.819-22.173-13.819s-19.887,5.909-22.173,13.819Z" fill="#caccd9"/>
      </g>
      <g id="Grupo_404" data-name="Grupo 404">
        <path id="Trazado_778" data-name="Trazado 778" d="M3844.989,3123.7a14.688,14.688,0,0,1,14.119,10.644H3830.87A14.688,14.688,0,0,1,3844.989,3123.7Z" fill="#454a5f"/>
        <path id="Trazado_779" data-name="Trazado 779" d="M3861.512,3127a10.135,10.135,0,0,1,9.743,7.345h-19.487A10.138,10.138,0,0,1,3861.512,3127Z" fill="#454a5f"/>
        <path id="Trazado_780" data-name="Trazado 780" d="M3840.511,3134.342c-1.9-6.562-9.412-11.463-18.4-11.463s-16.5,4.9-18.4,11.463Z" fill="#454a5f"/>
      </g>
      <path id="Trazado_781" data-name="Trazado 781" d="M4189.777,3243.62a32.424,32.424,0,0,0-10.05,3.635q-.024-.2-.049-.408c-.429-3.494-1.009-7.427-1.791-11.663a32.416,32.416,0,0,0,10.6-2.647,31.962,31.962,0,0,0,9.626-6.851,31.972,31.972,0,0,0-11.5,2.692,32.407,32.407,0,0,0-8.861,6.072c-.662-3.51-1.464-7.219-2.434-11.054a32.432,32.432,0,0,0,9.5-5.246,31.946,31.946,0,0,0,7.555-9.085,31.98,31.98,0,0,0-10.434,5.544,32.4,32.4,0,0,0-6.853,7.874c-.989-3.824-2.148-7.767-3.5-11.756a32.439,32.439,0,0,0,8.6-6.638,31.979,31.979,0,0,0,6.081-10.131,31.977,31.977,0,0,0-9.467,7.07,32.4,32.4,0,0,0-5.54,8.75c-.93-2.683-1.949-5.385-3.067-8.083a32.449,32.449,0,0,0,5.436-9.376,31.961,31.961,0,0,0,1.8-11.677,30.477,30.477,0,0,0-7.889,19.506q-1.209-2.823-2.567-5.625a30.493,30.493,0,0,0-9.639-18.719,30.477,30.477,0,0,0,8.189,19.324q1.41,2.9,2.652,5.819a32.367,32.367,0,0,0-9.7-3.528,31.969,31.969,0,0,0-11.814.183,31.966,31.966,0,0,0,11,4.308,32.423,32.423,0,0,0,10.92-.006c1.131,2.706,2.159,5.417,3.1,8.111a32.452,32.452,0,0,0-10.73-.672,31.961,31.961,0,0,0-11.258,3.588,31.987,31.987,0,0,0,11.778.946,32.406,32.406,0,0,0,10.455-3.161c1.4,4.092,2.6,8.139,3.615,12.062a32.383,32.383,0,0,0-10.574-1.6,31.947,31.947,0,0,0-11.53,2.579,31.956,31.956,0,0,0,11.647,1.983,32.42,32.42,0,0,0,10.65-2.208c.985,3.872,1.8,7.617,2.466,11.157a32.422,32.422,0,0,0-10.455-1.959,31.95,31.95,0,0,0-11.616,2.162,31.967,31.967,0,0,0,11.569,2.4,32.429,32.429,0,0,0,10.653-1.8c.77,4.178,1.343,8.06,1.767,11.509.021.173.041.344.062.515a32.307,32.307,0,0,0-11.461-.856,31.971,31.971,0,0,0-11.258,3.587,30.606,30.606,0,0,0,22.749-2.482,170.523,170.523,0,0,1,1.3,24.157l1.568.064a171.247,171.247,0,0,0-1.256-23.927,32.414,32.414,0,0,0,10.732.054,31.99,31.99,0,0,0,11.034-4.226A31.943,31.943,0,0,0,4189.777,3243.62Z" fill="#d4d4d4"/>
      <path id="Trazado_782" data-name="Trazado 782" d="M4155.185,3255.569a21.162,21.162,0,0,0-5.9,3.724c-.029-.084-.058-.168-.088-.253-.762-2.166-1.683-4.592-2.774-7.181a21.132,21.132,0,0,0,6.385-3.171,3.928,3.928,0,1,0-1.78-2.387,21.143,21.143,0,0,0-4.8,5.109c-.913-2.143-1.944-4.394-3.1-6.7a21.151,21.151,0,0,0,5.32-4.672,3.928,3.928,0,1,0-2.331-1.853,21.134,21.134,0,0,0-3.264,5.976c-1.165-2.3-2.455-4.648-3.876-7a21.171,21.171,0,0,0,4.55-5.434,3.928,3.928,0,1,0-2.586-1.476,21.143,21.143,0,0,0-2.305,6.351c-.968-1.58-2-3.159-3.085-4.721a21.18,21.18,0,0,0,2.15-6.735,3.275,3.275,0,1,0-2.783,5.84q-1.167-1.627-2.424-3.224a3.3,3.3,0,1,0-.839.589q1.3,1.647,2.5,3.336a21.119,21.119,0,0,0-6.675-.89,20.832,20.832,0,0,0-7.5,1.771,20.864,20.864,0,0,0,7.613,1.2,21.16,21.16,0,0,0,6.957-1.533c1.1,1.566,2.134,3.15,3.11,4.735a21.146,21.146,0,0,0-6.931,1.074,20.847,20.847,0,0,0-6.671,3.862,20.863,20.863,0,0,0,7.637-1.046,21.162,21.162,0,0,0,6.219-3.478c1.468,2.411,2.795,4.822,3.992,7.179a21.133,21.133,0,0,0-6.961.462,20.852,20.852,0,0,0-6.986,3.258,20.862,20.862,0,0,0,7.7-.368,21.154,21.154,0,0,0,6.477-2.9c1.17,2.33,2.212,4.6,3.133,6.764a21.138,21.138,0,0,0-6.936.215,20.847,20.847,0,0,0-7.1,3,20.841,20.841,0,0,0,7.707-.09,21.131,21.131,0,0,0,6.536-2.637c1.076,2.555,1.985,4.947,2.737,7.086.038.107.075.213.112.319a21.077,21.077,0,0,0-7.422,1.059,20.867,20.867,0,0,0-6.671,3.862,20.841,20.841,0,0,0,7.637-1.046,21.067,21.067,0,0,0,6.51-3.72,111.052,111.052,0,0,1,4.212,15.209l1.008-.179a111.787,111.787,0,0,0-4.151-15.069,21.161,21.161,0,0,0,6.846-1.468,20.869,20.869,0,0,0,6.439-4.238A20.855,20.855,0,0,0,4155.185,3255.569Z" fill="#d4d4d4"/>
      <g id="Grupo_405" data-name="Grupo 405">
        <path id="Trazado_783" data-name="Trazado 783" d="M3911.915,3099.723a6.922,6.922,0,0,1,6.655,5.017h-13.31A6.923,6.923,0,0,1,3911.915,3099.723Z" fill="#adb1cc"/>
        <path id="Trazado_784" data-name="Trazado 784" d="M3879.478,3097.349a10.2,10.2,0,0,1,9.8,7.391h-19.606A10.2,10.2,0,0,1,3879.478,3097.349Z" fill="#adb1cc"/>
        <path id="Trazado_785" data-name="Trazado 785" d="M3909.9,3104.74c-1.5-5.2-7.46-9.087-14.581-9.087s-13.077,3.885-14.58,9.087Z" fill="#adb1cc"/>
      </g>
      <g id="Grupo_406" data-name="Grupo 406">
        <path id="Trazado_786" data-name="Trazado 786" d="M4042.48,3141.681a5.631,5.631,0,0,1,5.412,4.08h-10.825A5.631,5.631,0,0,1,4042.48,3141.681Z" fill="#adb1cc"/>
        <path id="Trazado_787" data-name="Trazado 787" d="M4016.1,3139.75a8.3,8.3,0,0,1,7.974,6.011h-15.947A8.294,8.294,0,0,1,4016.1,3139.75Z" fill="#adb1cc"/>
        <path id="Trazado_788" data-name="Trazado 788" d="M4040.842,3145.761c-1.223-4.23-6.067-7.39-11.859-7.39s-10.636,3.16-11.859,7.39Z" fill="#adb1cc"/>
      </g>
      <g id="Grupo_407" data-name="Grupo 407">
        <path id="Trazado_789" data-name="Trazado 789" d="M4156.346,3262.388a24.881,24.881,0,0,1,23.918,18.031h-47.836A24.88,24.88,0,0,1,4156.346,3262.388Z" fill="#d4d4d4"/>
        <path id="Trazado_790" data-name="Trazado 790" d="M4184.337,3267.976a17.169,17.169,0,0,1,16.506,12.443h-33.012A17.171,17.171,0,0,1,4184.337,3267.976Z" fill="#d4d4d4"/>
      </g>
      <g id="Grupo_408" data-name="Grupo 408">
        <path id="Trazado_791" data-name="Trazado 791" d="M4007.368,3127.192a6.6,6.6,0,0,1,6.34,4.78h-12.68A6.6,6.6,0,0,1,4007.368,3127.192Z" fill="#f6d2a6"/>
        <path id="Trazado_792" data-name="Trazado 792" d="M4014.788,3128.673a4.552,4.552,0,0,1,4.375,3.3h-8.751A4.552,4.552,0,0,1,4014.788,3128.673Z" fill="#f6d2a6"/>
        <path id="Trazado_793" data-name="Trazado 793" d="M4005.357,3131.972c-.851-2.947-4.226-5.148-8.26-5.148s-7.408,2.2-8.26,5.148Z" fill="#f6d2a6"/>
      </g>
      <circle id="Elipse_16" data-name="Elipse 16" cx="2.669" cy="2.669" r="2.669" transform="translate(4012.118 3175.156)" fill="#fff"/>
      <circle id="Elipse_17" data-name="Elipse 17" cx="2.669" cy="2.669" r="2.669" transform="translate(3892.652 3161.729)" fill="#fff"/>
      <g id="Grupo_409" data-name="Grupo 409">
        <path id="Trazado_794" data-name="Trazado 794" d="M4138.793,3275.814a12.707,12.707,0,0,1,12.216,9.21h-24.432A12.708,12.708,0,0,1,4138.793,3275.814Z" fill="#db9600"/>
        <path id="Trazado_795" data-name="Trazado 795" d="M4153.089,3278.669a8.77,8.77,0,0,1,8.431,6.355h-16.861A8.769,8.769,0,0,1,4153.089,3278.669Z" fill="#db9600"/>
      </g>
      <circle id="Elipse_18" data-name="Elipse 18" cx="2.669" cy="2.669" r="2.669" transform="translate(3976.034 3113.691)" fill="#fff"/>
      <circle id="Elipse_19" data-name="Elipse 19" cx="4.784" cy="4.784" r="4.784" transform="translate(4075.313 3153.491)" fill="#fff"/>
      <circle id="Elipse_20" data-name="Elipse 20" cx="4.784" cy="4.784" r="4.784" transform="translate(3878.697 3186.702)" fill="#fff"/>
      <path id="Trazado_796" data-name="Trazado 796" d="M3981.106,3248.389a10.017,10.017,0,0,1,5.4,2.926,70.934,70.934,0,0,0-2.253-7.307q-1.011-2.726-2.22-5.222a10.052,10.052,0,0,1-6.061,1.42,3.5,3.5,0,1,1,.65-4.781,9.712,9.712,0,0,1,5.008,2.545,48.6,48.6,0,0,0-5.087-8.092,10.013,10.013,0,0,1-5.177-3.314,3.5,3.5,0,1,1,3.87-2.882,9.839,9.839,0,0,1,1.692,5.588,48.833,48.833,0,0,1,5.1,7.986,9.553,9.553,0,0,1,1.081-5.238,3.5,3.5,0,1,1,4.175,2.42,10,10,0,0,1-4.729,3.871q1.273,2.611,2.336,5.471c.748,2.019,1.415,4.132,2,6.324a9.342,9.342,0,0,1,1.889-4.623,3.5,3.5,0,1,1,3.716,3.078,9.954,9.954,0,0,1-5.227,3.016,86.218,86.218,0,0,1,1.671,8.775,92.9,92.9,0,0,1,.776,18.218l-.678-.056a92.2,92.2,0,0,0-.773-18.084,85.522,85.522,0,0,0-1.666-8.729,10.107,10.107,0,0,1-6.148,1.472,3.5,3.5,0,1,1,.651-4.782Z" fill="#caccd9"/>
      <path id="Trazado_797" data-name="Trazado 797" d="M4011.153,3250.7a10.012,10.012,0,0,0-5.542,2.649,70.833,70.833,0,0,1,2.619-7.184q1.148-2.67,2.481-5.1a10.061,10.061,0,0,0,5.982,1.724,3.5,3.5,0,1,0-.408-4.809,9.714,9.714,0,0,0-5.13,2.29,48.631,48.631,0,0,1,5.489-7.826,10.011,10.011,0,0,0,5.338-3.047,3.5,3.5,0,1,0-3.72-3.074,9.847,9.847,0,0,0-1.972,5.495,48.911,48.911,0,0,0-5.5,7.718,9.562,9.562,0,0,0-.815-5.286,3.5,3.5,0,1,0-4.293,2.206,10,10,0,0,0,4.528,4.1q-1.4,2.544-2.609,5.346-1.274,2.969-2.317,6.215a9.349,9.349,0,0,0-1.653-4.713,3.5,3.5,0,1,0-3.868,2.887,9.967,9.967,0,0,0,5.069,3.276,86.537,86.537,0,0,0-2.113,8.679,92.8,92.8,0,0,0-1.694,18.156l.679-.022a92.229,92.229,0,0,1,1.686-18.022,85.74,85.74,0,0,1,2.1-8.633,10.113,10.113,0,0,0,6.067,1.78,3.5,3.5,0,1,0-.409-4.808Z" fill="#caccd9"/>
      <g id="Grupo_413" data-name="Grupo 413">
        <rect id="Rectángulo_449" data-name="Rectángulo 449" width="43.612" height="24.834" transform="translate(3930.893 3177.087)" fill="#6f728a"/>
        <path id="Trazado_798" data-name="Trazado 798" d="M3984.17,3194.783l-14.871-1.989v-6.113l14.871-2.947Z" fill="#6f728a"/>
        <rect id="Rectángulo_450" data-name="Rectángulo 450" width="33.855" height="24.834" rx="12" transform="translate(3935.771 3179.465)" fill="#6f728a"/>
        <rect id="Rectángulo_451" data-name="Rectángulo 451" width="4.307" height="22.028" transform="translate(3950.545 3196.269)" fill="#4c4e63"/>
        <rect id="Rectángulo_452" data-name="Rectángulo 452" width="7.354" height="13.592" transform="translate(3949.022 3196.269)" fill="#6f728a"/>
        <circle id="Elipse_21" data-name="Elipse 21" cx="4.626" cy="4.626" r="4.626" transform="translate(3944.396 3205.235)" fill="#6f728a"/>
        <circle id="Elipse_22" data-name="Elipse 22" cx="2.612" cy="2.612" r="2.612" transform="translate(3946.409 3207.249)" fill="#4c4e63"/>
        <g id="Grupo_410" data-name="Grupo 410">
          <path id="Trazado_799" data-name="Trazado 799" d="M3942.269,3303.775l.656.078,11.491-85.3a1.378,1.378,0,0,0-1.216-1.546h0a1.39,1.39,0,0,0-1.554,1.217Z" fill="#6f728a"/>
        </g>
        <g id="Grupo_411" data-name="Grupo 411">
          <path id="Trazado_800" data-name="Trazado 800" d="M3930.03,3303.235l.642.154,21.4-84.655a1.4,1.4,0,0,0-1.027-1.7h0a1.4,1.4,0,0,0-1.686,1.049Z" fill="#6f728a"/>
        </g>
        <g id="Grupo_412" data-name="Grupo 412">
          <path id="Trazado_801" data-name="Trazado 801" d="M3975.346,3303.235l-.643.154-21.4-84.655a1.4,1.4,0,0,1,1.028-1.7h0a1.4,1.4,0,0,1,1.686,1.049Z" fill="#6f728a"/>
        </g>
        <rect id="Rectángulo_453" data-name="Rectángulo 453" width="25.803" height="13.237" transform="translate(3943.495 3184.083)" fill="#7f839e"/>
        <path id="Rectángulo_454" data-name="Rectángulo 454" d="M7.4,0h.257a0,0,0,0,1,0,0V18.823a0,0,0,0,1,0,0H7.4a7.4,7.4,0,0,1-7.4-7.4V7.4A7.4,7.4,0,0,1,7.4,0Z" transform="translate(3981.334 3180.28)" fill="#4c4e63"/>
        <circle id="Elipse_23" data-name="Elipse 23" cx="7.804" cy="7.804" r="7.804" transform="translate(3950.376 3161.595)" fill="#4c4e63"/>
        <circle id="Elipse_24" data-name="Elipse 24" cx="5.787" cy="5.787" r="5.787" transform="translate(3935.208 3165.627)" fill="#4c4e63"/>
      </g>
      <g id="Grupo_417" data-name="Grupo 417">
        <path id="Trazado_802" data-name="Trazado 802" d="M3910.1,3262.775c.692-1.48,1.5-2.233,2.863-2.269a2.647,2.647,0,0,1,2.719,2.666l.138,41.716c0,.658-.975,1.253-1.634,1.27a1.222,1.222,0,0,1-1.253-1.147l-.109-1.8C3909.717,3274.707,3908.051,3268.13,3910.1,3262.775Z" fill="#fff"/>
        <path id="Trazado_803" data-name="Trazado 803" d="M3903.61,3226.461c.8-4.934,3.375-5.887,5.183-5.912a2.637,2.637,0,0,1,3.317,2.339l3.445,41.632a1.221,1.221,0,0,1-1.7,1.225,4.237,4.237,0,0,1-3.168-2.99C3908.468,3254.837,3902.564,3232.877,3903.61,3226.461Z" fill="#fff"/>
        <path id="Trazado_804" data-name="Trazado 804" d="M3892.457,3261.888c1.126-1.184,2.131-1.641,3.436-1.242a2.648,2.648,0,0,1,1.73,3.393l-13.128,39.595c-.214.623-1.324.878-1.954.686a1.223,1.223,0,0,1-.823-1.487l.469-1.743C3888.3,3273.078,3888.812,3266.313,3892.457,3261.888Z" fill="#fff"/>
        <path id="Trazado_805" data-name="Trazado 805" d="M3899.1,3224.235c2.444-4.361,5.185-4.378,6.892-3.783a2.843,2.843,0,0,1,.372.058,2.648,2.648,0,0,1,1.945,3.275l-11,40.3a1.22,1.22,0,0,1-2.012.571,4.232,4.232,0,0,1-1.954-3.893C3893.957,3252.561,3895.92,3229.907,3899.1,3224.235Z" fill="#fff"/>
        <path id="Trazado_806" data-name="Trazado 806" d="M3916.566,3304.459a5.1,5.1,0,0,1-2.447.486,7.235,7.235,0,0,1-1.571-.16.588.588,0,0,0-.716.463c-.2,1.12-.412,2.84.2,2.91.9.1,13.929.5,14-.1C3926.236,3306.46,3919.928,3304.962,3916.566,3304.459Z" fill="#3b3e54"/>
        <path id="Trazado_807" data-name="Trazado 807" d="M3885.338,3303.464a5.1,5.1,0,0,1-2.475-.316,7.258,7.258,0,0,1-1.438-.652.589.589,0,0,0-.826.212c-.548,1-1.293,2.562-.739,2.822.825.386,13.048,4.9,13.312,4.353C3893.87,3308.436,3888.365,3305.01,3885.338,3303.464Z" fill="#3b3e54"/>
        <path id="Trazado_808" data-name="Trazado 808" d="M3897.768,3219.162s-4.9,12.564-5.061,40.2c0,0-6.609,7.181-10.483,39.279l3.955,1.555s11.864-35.8,12.242-37.4,5.767-21.61,5.767-21.61,3.391,15.728,5.335,21.458c0,0-2.938,10.628,2.1,37.109h4.569s.189-34.688,0-37.052-3.025-39.14-3.025-39.14l-4.77-2.4Z" fill="#6f728a"/>
        <path id="Trazado_809" data-name="Trazado 809" d="M3929.75,3175.628a2.875,2.875,0,0,1,.422-2.522c1.35-1.871,4.017-5.313,5.433-5.433,1.948-.164-1.464,6.44-5.706,8.445Z" fill="#fff"/>
        <path id="Trazado_810" data-name="Trazado 810" d="M3907.912,3181.913c-2.979-.975-3.485,1.662-3.529,1.728-.526.778.2,2.465,1.195,3.029l22.9,11.426c.35.22.724-.354.956-.7a.754.754,0,0,0,.128-.371,3.086,3.086,0,0,0-.951-2.8C3924.839,3190.705,3911.787,3183.18,3907.912,3181.913Z" fill="#303030"/>
        <g id="Grupo_414" data-name="Grupo 414">
          <path id="Trazado_811" data-name="Trazado 811" d="M3929.228,3175.4c-1.378,5.16-2.687,16.8-2.289,20.16.331,2.789,2.019,2.547,2.092,2.559a2.3,2.3,0,0,0,2.182-1.916l.556-20.528Z" fill="#303030"/>
        </g>
        <g id="Grupo_415" data-name="Grupo 415">
          <path id="Trazado_812" data-name="Trazado 812" d="M3898.011,3201.427c.451-3.377.828-6.9,1.29-10.173a22.2,22.2,0,0,1,.933-5.153c1.965-5.166,6.1-6.126,10.665-3.194,2.017,1.294,3.681,4.366,3.2,8.428-.527,4.464-.213,32.188-.153,32.813.025.262.059.542.082.816a12.353,12.353,0,0,1-5.813.455c-4.126-.818-7.553-3.409-11.746-3.906a.213.213,0,0,0-.026,0C3896.438,3220.824,3897.942,3201.944,3898.011,3201.427Z" fill="#303030"/>
        </g>
        <path id="Trazado_813" data-name="Trazado 813" d="M3914.35,3179.074a4.994,4.994,0,0,0,.251-3.653c-.688-1.806-1.513.083-1.513.083Z" fill="#2d334a"/>
        <path id="Trazado_814" data-name="Trazado 814" d="M3902.525,3176.172c.109.163,1.734,3.3,2.317,3.308.8,0,.3-2.5.3-2.5Z" fill="#2d334a"/>
        <path id="Trazado_815" data-name="Trazado 815" d="M3912.639,3171.025a3.486,3.486,0,0,0-.118-2.817c-.732-1.052-1.954-2.128-6.333-.879a1.3,1.3,0,0,0-.962,1.381l.191,1.762Z" fill="#2d334a"/>
        <path id="Trazado_816" data-name="Trazado 816" d="M3904.525,3175.01c.658,2.508,1.4,4.539,3.187,5.458a5.305,5.305,0,0,0,4.05.37,3.25,3.25,0,0,0,2.592-2.661,14,14,0,0,0-.74-5.37c-1.031-3.938-3.59-5.448-6.1-4.84S3903.5,3171.072,3904.525,3175.01Z" fill="#fff"/>
        <path id="Trazado_817" data-name="Trazado 817" d="M3904.255,3175.278l4.4-.619a65.077,65.077,0,0,1,.7,8.179c-.131.65-1.219,1-2.429.772-1.089-.2-1.9-.792-1.958-1.381h-.006A53.877,53.877,0,0,0,3904.255,3175.278Z" fill="#fff"/>
        <path id="Trazado_818" data-name="Trazado 818" d="M3902.67,3176.435a2.174,2.174,0,0,0,1.96-.828,13.513,13.513,0,0,0,2.049-5.358c.27-2.179-.437-2.679-.437-2.679s-4.2.765-4.959,2.215C3900.153,3171.955,3902.67,3176.435,3902.67,3176.435Z" fill="#2d334a"/>
        <path id="Trazado_819" data-name="Trazado 819" d="M3902.711,3175.558c.219.854,1.384,1.736,2.029,1.583s.629-.884.41-1.738-.947-1.529-1.592-1.376A1.133,1.133,0,0,0,3902.711,3175.558Z" fill="#fff"/>
        <path id="Trazado_820" data-name="Trazado 820" d="M3906.187,3169.421l2.652-.619a3.943,3.943,0,0,1,2.638.3l1.1.545-1.839-2.088-2.327-.267-2.657.826Z" fill="#2d334a"/>
        <path id="Trazado_821" data-name="Trazado 821" d="M3904.982,3173.315l2.392,5.663a1.616,1.616,0,0,0,1.485.988l.745,0a.726.726,0,0,0,.715-.867l-.242-1.23a.632.632,0,0,1,.33-.682l2.479-1.279a.631.631,0,0,1,.777.162l.783.961a2.009,2.009,0,0,1-.522,2.991l-1.456.876a2.227,2.227,0,0,1-1.024.314.759.759,0,0,1-.082,0h-.626l-1.881-.007a2.861,2.861,0,0,1-2.628-1.749l-2.391-5.662Z" fill="#2d334a"/>
        <path id="Trazado_822" data-name="Trazado 822" d="M3906.636,3171.928s8.654-3.682,7.733-4.891-4.282-.1-4.282-.1Z" fill="#707178"/>
        <path id="Trazado_823" data-name="Trazado 823" d="M3911.056,3167.008l-8.7,9.681s-2.506-3.6-2.159-5.7,4.615-4.381,8.6-5.021C3911.02,3165.607,3911.056,3167.008,3911.056,3167.008Z" fill="#878991"/>
        <path id="Trazado_824" data-name="Trazado 824" d="M3936.188,3206.513a2.877,2.877,0,0,0,2.552-.177c1.991-1.165,5.673-3.489,5.928-4.887.351-1.923-6.55.84-8.953,4.869Z" fill="#fff"/>
        <path id="Trazado_825" data-name="Trazado 825" d="M3900.534,3189.214c-1.3-2.852,1.262-3.649,1.323-3.7.714-.61,2.472-.078,3.143.85l13.912,21.476c.257.324-.271.76-.586,1.028a.753.753,0,0,1-.354.169,3.091,3.091,0,0,1-2.892-.632C3911.161,3205.052,3902.225,3192.922,3900.534,3189.214Z" fill="#303030"/>
        <g id="Grupo_416" data-name="Grupo 416">
          <path id="Trazado_826" data-name="Trazado 826" d="M3937.166,3206.748c-5.146,1.432-16.769,2.862-20.135,2.5-2.793-.3-2.569-1.993-2.582-2.065a2.3,2.3,0,0,1,1.894-2.2l20.521-.769Z" fill="#303030"/>
        </g>
      </g>
      <g id="Grupo_421" data-name="Grupo 421">
        <path id="Trazado_827" data-name="Trazado 827" d="M3842.308,3305.894s-.848,3.084-.317,3.259,12.886.58,13.762.028-1.78-1.427-1.78-1.427a76.409,76.409,0,0,0-9.2-1.887A11.327,11.327,0,0,0,3842.308,3305.894Z" fill="#af7d61"/>
        <path id="Trazado_828" data-name="Trazado 828" d="M3837.5,3264.569c.617-1.5,1.382-2.276,2.729-2.373a2.622,2.622,0,0,1,2.808,2.515l1.566,41.319a1.209,1.209,0,0,1-2.411.174l-.19-1.777C3837.653,3276.383,3835.711,3269.955,3837.5,3264.569Z" fill="#af7d61"/>
        <path id="Trazado_829" data-name="Trazado 829" d="M3831.2,3228.614c.848-4.875,3.4-5.792,5.191-5.8a2.714,2.714,0,0,1,.367-.069,2.621,2.621,0,0,1,2.891,2.418l2.972,41.241a1.209,1.209,0,0,1-1.691,1.2,4.193,4.193,0,0,1-3.1-2.993C3835.7,3256.75,3830.092,3234.953,3831.2,3228.614Z" fill="#deb9a4"/>
        <path id="Trazado_830" data-name="Trazado 830" d="M3846.563,3305.922a5.277,5.277,0,0,1-2.523.569,7.52,7.52,0,0,1-1.632-.125.609.609,0,0,0-.729.5c-.181,1.166-.352,2.954.28,3.011.94.084,14.446.152,14.51-.475C3856.636,3307.743,3850.06,3306.356,3846.563,3305.922Z" fill="#3b3e54"/>
        <path id="Trazado_831" data-name="Trazado 831" d="M3827.917,3220.2s4.3,24.24,8.756,42.054c0,0-4.506,2.191,3.942,38.746l4.439-.816s-1.579-35.344-1.515-39.175-2.571-35.416-2.571-35.416Z" fill="#999"/>
        <path id="Trazado_832" data-name="Trazado 832" d="M3819.256,3305.894s.848,3.084.317,3.259-12.886.58-13.762.028,1.78-1.427,1.78-1.427a76.405,76.405,0,0,1,9.2-1.887A11.327,11.327,0,0,1,3819.256,3305.894Z" fill="#af7d61"/>
        <path id="Trazado_833" data-name="Trazado 833" d="M3824.066,3264.569c-.617-1.5-1.382-2.276-2.729-2.373a2.622,2.622,0,0,0-2.808,2.515l-1.566,41.319a1.209,1.209,0,0,0,2.411.174l.19-1.777C3823.911,3276.383,3825.853,3269.955,3824.066,3264.569Z" fill="#af7d61"/>
        <path id="Trazado_834" data-name="Trazado 834" d="M3830.369,3228.614c-.848-4.875-3.4-5.792-5.191-5.8a2.714,2.714,0,0,0-.367-.069,2.621,2.621,0,0,0-2.891,2.418l-2.972,41.241a1.209,1.209,0,0,0,1.691,1.2,4.193,4.193,0,0,0,3.1-2.993C3825.861,3256.75,3831.472,3234.953,3830.369,3228.614Z" fill="#deb9a4"/>
        <path id="Trazado_835" data-name="Trazado 835" d="M3815,3305.922a5.277,5.277,0,0,0,2.523.569,7.52,7.52,0,0,0,1.632-.125.609.609,0,0,1,.729.5c.181,1.166.352,2.954-.28,3.011-.94.084-14.446.152-14.51-.475C3804.928,3307.743,3811.5,3306.356,3815,3305.922Z" fill="#3b3e54"/>
        <path id="Trazado_836" data-name="Trazado 836" d="M3833.647,3220.2s-4.3,24.24-8.756,42.054c0,0,4.506,2.191-3.942,38.746l-4.439-.816s1.579-35.344,1.515-39.175,2.571-35.416,2.571-35.416Z" fill="#999"/>
        <path id="Trazado_837" data-name="Trazado 837" d="M3869.861,3161.838a2.729,2.729,0,0,1,1.889-1.521c2.135-.473,6.193-1.229,7.271-.421,1.482,1.111-5.1,3.636-9.363,2.382Z" fill="#af7d61"/>
        <path id="Trazado_838" data-name="Trazado 838" d="M3833.7,3185.286c-2.221,1.975-.3,3.647-.27,3.715.386.8,2.114,1.014,3.051.467l20.287-13.3c.347-.181.055-.762-.115-1.115a.709.709,0,0,0-.242-.282,2.927,2.927,0,0,0-2.749-.559C3848.976,3175.62,3836.584,3182.718,3833.7,3185.286Z" fill="#db9600"/>
        <g id="Grupo_418" data-name="Grupo 418">
          <path id="Trazado_839" data-name="Trazado 839" d="M3870.076,3160.97c-4.451,2.414-13.316,9.1-15.371,11.561-1.7,2.044-.438,3.049-.4,3.107a2.175,2.175,0,0,0,2.741.253l14.495-12.992Z" fill="#f3c58c"/>
        </g>
        <g id="Grupo_419" data-name="Grupo 419">
          <path id="Trazado_840" data-name="Trazado 840" d="M3832.309,3229.721c2.489-.393,4.935-1.1,7.451-1.252a13.255,13.255,0,0,1,2.454.076c-1.234-10.919-2.943-27.711-2.663-36.984.127-4.042-1.2-6.315-2.738-7.561-.108-.087-.218-.169-.327-.244a7.238,7.238,0,0,0-.819-.493,9.676,9.676,0,0,0-6.689-1.263,7.157,7.157,0,0,0-.944.274,7.047,7.047,0,0,0-4.165,4.284,13.252,13.252,0,0,0-.631,5.215,206.611,206.611,0,0,1-4.185,37.027A29.984,29.984,0,0,0,3832.309,3229.721Z" fill="#db9600"/>
        </g>
        <path id="Trazado_841" data-name="Trazado 841" d="M3911.755,3125.454,3805.291,3236.2a.782.782,0,0,0,.021,1.106h0a.783.783,0,0,0,1.107-.021l106.465-110.748a.783.783,0,0,0-.022-1.106h0A.783.783,0,0,0,3911.755,3125.454Z" fill="#6f728a"/>
        <path id="Trazado_842" data-name="Trazado 842" d="M3943.705,3129.658l-36.669-5.621a.774.774,0,0,0-.882.648h0a.775.775,0,0,0,.648.882l36.669,5.62a.774.774,0,0,0,.882-.647h0A.773.773,0,0,0,3943.705,3129.658Z" fill="#6f728a"/>
        <path id="Trazado_843" data-name="Trazado 843" d="M3960.418,3136.97l-22.27-3.413,1.123-7.326,22.27,3.414a3.7,3.7,0,0,1,3.1,4.224h0A3.705,3.705,0,0,1,3960.418,3136.97Z" fill="#4c4e63"/>
        <path id="Trazado_844" data-name="Trazado 844" d="M3824.355,3184.733c2.85-1.349,3.549,1.125,3.6,1.183.576.679,0,2.406-.941,3.086l-21.6,14.166c-.326.26-.738-.243-.991-.541a.681.681,0,0,1-.155-.341,3.1,3.1,0,0,1,.718-2.834C3808.414,3195.537,3820.649,3186.487,3824.355,3184.733Z" fill="#db9600"/>
        <path id="Trazado_845" data-name="Trazado 845" d="M3835.037,3168.985c-.251-.309-.694-.428-.981-.685s-.464-.689-.79-.9a7.747,7.747,0,0,0-1.145-.346c-.36-.158-.652-.51-1.03-.609a7.853,7.853,0,0,0-1.2.024,2.189,2.189,0,0,0-2.3.129,7.676,7.676,0,0,0-1.191.111c-.361.141-.611.524-.953.724s-.79.223-1.1.475-.428.694-.685.981-.689.464-.9.79a7.782,7.782,0,0,0-.346,1.145c-.158.36-.51.653-.609,1.03a4.944,4.944,0,0,1-.238,2.364,8.084,8.084,0,0,0,.391,1.13,7.829,7.829,0,0,0,.112,1.191c.14.361.523.612.723.953s.223.79.475,1.1.694.428.981.685.464.689.79.9a7.782,7.782,0,0,0,1.145.346c.36.158.653.51,1.03.609a7.851,7.851,0,0,0,1.2-.024,2.189,2.189,0,0,0,2.3-.129,7.727,7.727,0,0,0,1.192-.111c.361-.141.611-.524.953-.724s.79-.223,1.1-.475.427-.694.684-.981.689-.464.9-.79a7.753,7.753,0,0,0,.346-1.145c.158-.36.51-.653.609-1.03a7.855,7.855,0,0,0-.024-1.2,7.969,7.969,0,0,0,.262-1.168c-.021-.389-.308-.746-.391-1.13a7.74,7.74,0,0,0-.111-1.191c-.141-.361-.524-.612-.723-.953S3835.289,3169.293,3835.037,3168.985Z" fill="#2d334a"/>
        <path id="Trazado_846" data-name="Trazado 846" d="M3838.584,3176.23a4.212,4.212,0,0,0-1.932-2.409c-1.458-.726-.89.916-.89.916Z" fill="#2d334a"/>
        <path id="Trazado_847" data-name="Trazado 847" d="M3828.282,3179.371c.157.078,2.84,1.778,3.274,1.518.6-.356-.947-2.07-.947-2.07Z" fill="#2d334a"/>
        <path id="Trazado_848" data-name="Trazado 848" d="M3833.377,3170.847a3.275,3.275,0,0,0-1.41-2.127c-1.037-.484-2.451-.768-5.117,2.165a1.175,1.175,0,0,0-.065,1.5l.969,1.277Z" fill="#2d334a"/>
        <path id="Trazado_849" data-name="Trazado 849" d="M3829.222,3177.574c1.666,1.645,3.168,2.884,4.929,2.791a4.445,4.445,0,0,0,3.183-1.534,2.888,2.888,0,0,0,.676-3.223,13.2,13.2,0,0,0-3.072-3.821c-2.615-2.583-5.225-2.6-6.8-1S3826.607,3174.991,3829.222,3177.574Z" fill="#af7d61"/>
        <path id="Trazado_850" data-name="Trazado 850" d="M3829,3176.219l3.839-.4a61.309,61.309,0,0,1,.31,7.42c-.137.583-1.093.856-2.135.611-.937-.221-1.619-.785-1.648-1.32h-.005A50.775,50.775,0,0,0,3829,3176.219Z" fill="#af7d61"/>
        <path id="Trazado_851" data-name="Trazado 851" d="M3828.513,3179.51a1.844,1.844,0,0,0,1.067-1.521,12.524,12.524,0,0,0-.994-5.065c-.822-1.808-1.582-1.876-1.582-1.876s-2.764,2.481-2.644,3.941C3824.54,3177.175,3828.513,3179.51,3828.513,3179.51Z" fill="#2d334a"/>
        <path id="Trazado_852" data-name="Trazado 852" d="M3828.883,3175.387l3.813,3.771a1.409,1.409,0,0,0,1.527.3l.6-.246a.634.634,0,0,0,.289-.937l-.6-.911a.55.55,0,0,1,.038-.66l1.574-1.856a.552.552,0,0,1,.681-.129l.951.515a1.752,1.752,0,0,1,.574,2.586l-.883,1.191a1.948,1.948,0,0,1-.721.594.663.663,0,0,1-.065.031l-.039.016h0l-.465.19h0l-1.518.62a2.5,2.5,0,0,1-2.7-.536l-3.812-3.771Z" fill="#2d334a"/>
        <path id="Trazado_853" data-name="Trazado 853" d="M3828.132,3178.813a1.994,1.994,0,0,0,2.25.313c.407-.408.052-.966-.512-1.528s-1.421-.758-1.828-.35A1.027,1.027,0,0,0,3828.132,3178.813Z" fill="#af7d61"/>
        <path id="Trazado_854" data-name="Trazado 854" d="M3827.832,3172.5l1.679-1.67a3.293,3.293,0,0,1,2.1-.953l1.076-.075-2.347-.789-1.854.839-1.585,1.833Z" fill="#2d334a"/>
        <path id="Trazado_855" data-name="Trazado 855" d="M3816.371,3217.3a2.731,2.731,0,0,0,1.461,1.935c1.956.979,5.706,2.7,6.949,2.181,1.709-.716-4.056-4.769-8.5-4.593Z" fill="#af7d61"/>
        <g id="Grupo_420" data-name="Grupo 420">
          <path id="Trazado_856" data-name="Trazado 856" d="M3816.405,3218.264c-3.69-3.467-10.561-12.186-11.921-15.093-1.128-2.411.353-3.061.405-3.107a2.176,2.176,0,0,1,2.715.453l10.71,16.256Z" fill="#f3c58c"/>
        </g>
      </g>
      <g id="Grupo_431" data-name="Grupo 431">
        <g id="Grupo_430" data-name="Grupo 430">
          <line id="Línea_126" data-name="Línea 126" y1="30.376" transform="translate(3882.656 3240.908)" fill="none" stroke="#716f96" stroke-linecap="round" stroke-linejoin="round" stroke-width="14.748"/>
          <line id="Línea_127" data-name="Línea 127" y1="30.376" transform="translate(3848.5 3240.908)" fill="none" stroke="#716f96" stroke-linecap="round" stroke-linejoin="round" stroke-width="14.748"/>
          <g id="Grupo_422" data-name="Grupo 422">
            <line id="Línea_128" data-name="Línea 128" x2="31.372" y2="33.13" transform="translate(3850.167 3271.022)" fill="none" stroke="#716f96" stroke-linecap="round" stroke-linejoin="round" stroke-width="14.748"/>
            <line id="Línea_129" data-name="Línea 129" x1="33.13" y2="31.372" transform="translate(3849.288 3271.901)" fill="none" stroke="#716f96" stroke-linecap="round" stroke-linejoin="round" stroke-width="14.748"/>
          </g>
          <path id="Rectángulo_455" data-name="Rectángulo 455" d="M1.358,0H21.951a.376.376,0,0,1,.376.376v2.06a.376.376,0,0,1-.376.376H1.358A1.358,1.358,0,0,1,0,1.453V1.358A1.358,1.358,0,0,1,1.358,0Z" transform="translate(3848.395 3269.878)" fill="#f6d2a6"/>
          <g id="Grupo_423" data-name="Grupo 423">
            <line id="Línea_130" data-name="Línea 130" x2="31.372" y2="33.13" transform="translate(3870.657 3271.022)" fill="none" stroke="#716f96" stroke-linecap="round" stroke-linejoin="round" stroke-width="14.748"/>
            <line id="Línea_131" data-name="Línea 131" x1="33.13" y2="31.372" transform="translate(3869.778 3271.901)" fill="none" stroke="#716f96" stroke-linecap="round" stroke-linejoin="round" stroke-width="14.748"/>
          </g>
          <rect id="Rectángulo_456" data-name="Rectángulo 456" width="37.672" height="11.482" transform="translate(3846.767 3242.945)" fill="#f6d2a6"/>
          <path id="Trazado_857" data-name="Trazado 857" d="M3872.911,3215.392c2.794,4.931.175,14.13-5.933,15.135a5.792,5.792,0,0,0-1.694.388,3.688,3.688,0,0,0-1.587,2.155c-.709,1.93-1.007,4.037-2.091,5.784a7.245,7.245,0,0,1-8.61,2.867,8.024,8.024,0,0,1-4.6-7.291,11.732,11.732,0,0,1,3.578-8.144,8.959,8.959,0,0,0,1.49-1.712c.7-1.221.6-2.732.992-4.083a5.7,5.7,0,0,1,2.288-3.114c1.414-.942,3.174-1.2,4.684-1.982,1.768-.914,3.181-2.534,5.106-3.04A5.965,5.965,0,0,1,3872.911,3215.392Z" fill="#2d334a"/>
          <path id="Trazado_858" data-name="Trazado 858" d="M3903.905,3219.917a3.019,3.019,0,0,1-.524-2.633c.63-2.339,1.969-6.709,3.314-7.353,1.851-.886.957,6.866-2.461,10.411Z" fill="#deb097"/>
          <path id="Trazado_859" data-name="Trazado 859" d="M3868.852,3221.733a2.656,2.656,0,0,0-3.5,2.016c-.529.832.157,2.5,1.129,3.006l22.326,10.024c.34.2.717-.414.95-.78a.851.851,0,0,0,.132-.388,3,3,0,0,0-.891-2.792C3885.353,3229.494,3872.641,3222.749,3868.852,3221.733Z" fill="#b8b8b8"/>
          <g id="Grupo_424" data-name="Grupo 424">
            <path id="Trazado_860" data-name="Trazado 860" d="M3887.7,3232.828c-1.612,2.468-.09,3.411-.04,3.469a2.408,2.408,0,0,0,3.047-.073l11.87-13.929-1.572-2.281C3896.192,3223.852,3889.363,3230.289,3887.7,3232.828Z" fill="#b8b8b8"/>
            <path id="Trazado_861" data-name="Trazado 861" d="M3902.581,3222.295l2.2-2.582-1.5-1.416c-.672.473-1.441,1.057-2.269,1.717Z" fill="#deb097"/>
          </g>
          <g id="Grupo_425" data-name="Grupo 425">
            <path id="Trazado_862" data-name="Trazado 862" d="M3891.122,3293.049a1.327,1.327,0,0,1,1.454,1.456l-.967,9.5a1.328,1.328,0,1,1-2.642-.269l.967-9.5A1.328,1.328,0,0,1,3891.122,3293.049Z" fill="#deb097"/>
          </g>
          <path id="Trazado_863" data-name="Trazado 863" d="M3892.512,3302.811a10.217,10.217,0,0,0,6.172,5.77s2.119.972-.727.995-7.126-1.46-8.311-3.073c0,0-1.171,2.882-1.343,1.95s-.93-5.19-.93-5.19Z" fill="#383e56"/>
          <g id="Grupo_426" data-name="Grupo 426">
            <path id="Trazado_864" data-name="Trazado 864" d="M3881.194,3293.4a1.423,1.423,0,0,1,.268,0,1.327,1.327,0,0,1,1.187,1.456l-.967,9.5a1.328,1.328,0,0,1-2.642-.269l.967-9.5A1.329,1.329,0,0,1,3881.194,3293.4Z" fill="#deb097"/>
          </g>
          <path id="Trazado_865" data-name="Trazado 865" d="M3882.584,3303.164a10.223,10.223,0,0,0,6.173,5.77s2.119.971-.728.995-7.125-1.46-8.311-3.073c0,0-1.17,2.882-1.342,1.949s-.93-5.189-.93-5.189Z" fill="#383e56"/>
          <path id="Trazado_866" data-name="Trazado 866" d="M3867.727,3219.8s-4.2-1.747-4.328-6.058c-.174-5.788,5.8-8.338,8.869-6.284,2.829,1.892,2.208,4.36,1.836,4.957S3867.727,3219.8,3867.727,3219.8Z" fill="#2d334a"/>
          <path id="Trazado_867" data-name="Trazado 867" d="M3866.927,3214.979c.6,3.675,3.644,6.237,5.889,5.872s2.842-3.521,2.244-7.2-2.724-5.248-4.97-4.883S3866.329,3211.3,3866.927,3214.979Z" fill="#deb097"/>
          <path id="Trazado_868" data-name="Trazado 868" d="M3874.382,3211.329s-4.03-1.607-4.588-3.047,1.531-1.2,1.531-1.2A5.379,5.379,0,0,1,3874.382,3211.329Z" fill="#2d334a"/>
          <path id="Trazado_869" data-name="Trazado 869" d="M3867.97,3207.983s1.9-1.37.708-3.138a2.211,2.211,0,0,0-3.905.138,2.277,2.277,0,0,0,.724,2.869A2.514,2.514,0,0,0,3867.97,3207.983Z" fill="#2d334a"/>
          <path id="Trazado_870" data-name="Trazado 870" d="M3866.094,3227.634a2.815,2.815,0,0,0,.411-4.228c-.385-.967-.981-2.357-2-1.843l-22.062,12.786c-.375.166-.084.867.085,1.293a.927.927,0,0,0,.249.353,3.138,3.138,0,0,0,2.912.974C3850.728,3235.926,3862.932,3230.229,3866.094,3227.634Z" fill="#b8b8b8"/>
          <rect id="Rectángulo_457" data-name="Rectángulo 457" width="34.77" height="2.811" transform="translate(3868.976 3269.878)" fill="#f6d2a6"/>
          <path id="Trazado_871" data-name="Trazado 871" d="M3875.952,3258.707s23.553-.416,25.828.846,2.5,4.007,1.5,7.878-8.859,30.285-10.515,32.746l-4.167-1.982s4.367-29.178,7.138-32.152c0,0-27.669,6.212-31.4,4.34S3875.952,3258.707,3875.952,3258.707Z" fill="#303030"/>
          <path id="Trazado_872" data-name="Trazado 872" d="M3859.389,3256.428s30.394,1.608,32.67,2.869,2.5,4.008,1.5,7.878-8.86,30.286-10.515,32.747l-4.167-1.982s4.367-29.178,7.137-32.153c0,0-20.6,7.2-25.538,4.694C3855.291,3267.847,3859.389,3256.428,3859.389,3256.428Z" fill="#303030"/>
          <g id="Grupo_428" data-name="Grupo 428">
            <g id="Grupo_427" data-name="Grupo 427">
              <path id="Trazado_873" data-name="Trazado 873" d="M3857.862,3259.111a83.2,83.2,0,0,0,10.606.617c3.34-.274,3.191-1.243,5.376-2.634-.365-.617-.26-2.662-.588-3.268-1.706-3.153-3.134-15.06-1.981-16.824,2.666-4.082,1.941-4.322,2.015-6.311.061-1.628,0-.343-.005-.361-.182-4.138-.259-8.564-4.574-9.7-2.608-.684-5.066,1.79-6.242,3.5-4.1,5.958-2.662,15.34-3.3,22.892C3859.016,3248.866,3858.384,3256.5,3857.862,3259.111Z" fill="#716f96"/>
            </g>
            <path id="Trazado_874" data-name="Trazado 874" d="M3866.217,3220.755c-4.461,1.982-6.749,7.743-7.795,13.138s-1.2,14.8-1.9,21.077c3.548.847,6.924,2.39,10.67.817s.544-9.422-.135-13.013.909-8.555,1.114-12.215S3866.571,3224.4,3866.217,3220.755Z" fill="#b8b8b8"/>
          </g>
          <path id="Trazado_875" data-name="Trazado 875" d="M3866.71,3213.141l4.644-.085a73.941,73.941,0,0,1-.394,8.928c-.224.684-1.4.913-2.623.512-1.1-.361-1.859-1.108-1.84-1.752l-.005,0A61.36,61.36,0,0,0,3866.71,3213.141Z" fill="#deb097"/>
          <path id="Trazado_876" data-name="Trazado 876" d="M3872.808,3208.468s-1.07,4.868-5.663,6.389c-2.366.783-3.012-2.931-3.012-2.931l2.421-3.428s1.933-1.429,3.364-1.23C3870.041,3207.285,3872.808,3208.468,3872.808,3208.468Z" fill="#2d334a"/>
          <path id="Trazado_877" data-name="Trazado 877" d="M3865.088,3216.27c.339.86,1.626,1.624,2.249,1.379s.505-1,.166-1.865-1.161-1.466-1.784-1.221A1.192,1.192,0,0,0,3865.088,3216.27Z" fill="#deb097"/>
          <path id="Trazado_878" data-name="Trazado 878" d="M3855.073,3253.529a3.02,3.02,0,0,1,2.684.015c2.165,1.087,6.178,3.274,6.539,4.721.5,1.991-6.918-.439-9.706-4.5Z" fill="#deb097"/>
          <g id="Grupo_429" data-name="Grupo 429">
            <path id="Trazado_879" data-name="Trazado 879" d="M3845.674,3235.067c-2.094-2.074-3.323-.772-3.391-.735a2.408,2.408,0,0,0-.539,3l11.265,14.422,2.55-1.081C3852.765,3245.184,3847.828,3237.2,3845.674,3235.067Z" fill="#b8b8b8"/>
            <path id="Trazado_880" data-name="Trazado 880" d="M3853.009,3251.754l2.087,2.673,1.689-1.187c-.329-.754-.746-1.624-1.226-2.567Z" fill="#deb097"/>
          </g>
        </g>
      </g>
      <g id="Grupo_437" data-name="Grupo 437">
        <g id="Grupo_432" data-name="Grupo 432">
          <path id="Trazado_881" data-name="Trazado 881" d="M4023.445,3308.3a1.532,1.532,0,0,1-.3-.057,1.494,1.494,0,0,1-1.009-1.856l3.05-10.3a1.494,1.494,0,1,1,2.865.848l-3.05,10.3A1.5,1.5,0,0,1,4023.445,3308.3Z" fill="#deb097"/>
        </g>
        <g id="Grupo_433" data-name="Grupo 433">
          <path id="Trazado_882" data-name="Trazado 882" d="M4038.947,3308.822a1.468,1.468,0,0,1-.3-.051,1.493,1.493,0,0,1-1.047-1.835l2.835-10.364a1.494,1.494,0,0,1,2.883.788l-2.836,10.365A1.5,1.5,0,0,1,4038.947,3308.822Z" fill="#deb097"/>
        </g>
        <path id="Trazado_883" data-name="Trazado 883" d="M4025.869,3306.037a5.055,5.055,0,0,1-2.428.483,7.2,7.2,0,0,1-1.558-.159.584.584,0,0,0-.71.459c-.2,1.111-.408,2.818.195,2.887.9.1,13.817.5,13.893-.1C4035.461,3308.023,4029.2,3306.536,4025.869,3306.037Z" fill="#3b3e54"/>
        <path id="Trazado_884" data-name="Trazado 884" d="M4041.576,3306.037a5.051,5.051,0,0,1-2.427.483,7.2,7.2,0,0,1-1.558-.159.584.584,0,0,0-.71.459c-.2,1.111-.409,2.818.195,2.887.9.1,13.817.5,13.892-.1C4051.168,3308.023,4044.911,3306.536,4041.576,3306.037Z" fill="#3b3e54"/>
        <path id="Trazado_885" data-name="Trazado 885" d="M4028.836,3220.389s3.227,27.133,9.509,39.069c0,0-10,14.431-15.117,40.382h4.708s18.073-34.555,17.822-39.641-4.79-26.807-4.79-26.807,4.613,19.128,8.175,26.944c0,0-8.125,22.051-10.278,39.408h5.519s12.831-35.383,12.631-39.028-8.085-39.106-11.681-42.609Z" fill="#db9600"/>
        <path id="Trazado_886" data-name="Trazado 886" d="M4054.861,3148.18a2.856,2.856,0,0,1,.622-2.461c1.489-1.741,4.407-4.93,5.817-4.933,1.941,0-1.972,6.252-6.331,7.891Z" fill="#deb097"/>
        <g id="Grupo_434" data-name="Grupo 434">
          <path id="Trazado_887" data-name="Trazado 887" d="M4054.8,3147.184c-2.3,4.775-5.746,15.879-5.983,19.232-.2,2.781,1.495,2.859,1.563,2.885a2.279,2.279,0,0,0,2.485-1.463l4.361-19.913Z" fill="#adb1cc"/>
        </g>
        <path id="Trazado_888" data-name="Trazado 888" d="M4032.467,3184.275c-1.615,2.66.819,3.744.873,3.8.634.684,2.428.365,3.2-.472l16.217-19.55c.292-.289-.179-.78-.457-1.081a.748.748,0,0,0-.33-.208,3.065,3.065,0,0,0-2.924.286C4044.789,3169.9,4034.567,3180.816,4032.467,3184.275Z" fill="#adb1cc"/>
        <path id="Trazado_889" data-name="Trazado 889" d="M4002.823,3180.041a2.855,2.855,0,0,0-.442-2.5c-1.358-1.845-4.037-5.237-5.443-5.343-1.935-.145,1.513,6.379,5.741,8.33Z" fill="#deb097"/>
        <g id="Grupo_435" data-name="Grupo 435">
          <path id="Trazado_890" data-name="Trazado 890" d="M4002.952,3179.051c1.951,4.93,4.576,16.256,4.569,19.616-.006,2.788-1.7,2.744-1.768,2.764a2.277,2.277,0,0,1-2.372-1.64l-2.9-20.177Z" fill="#adb1cc"/>
        </g>
        <path id="Trazado_891" data-name="Trazado 891" d="M4025.427,3183.4c2.863-1.218,3.588,1.346,3.638,1.408.587.725.014,2.455-.924,3.1l-21.668,13.256c-.328.247-.747-.289-1-.608a.759.759,0,0,1-.159-.356,3.067,3.067,0,0,1,.7-2.853C4009.437,3193.544,4021.7,3184.988,4025.427,3183.4Z" fill="#adb1cc"/>
        <g id="Grupo_436" data-name="Grupo 436">
          <path id="Trazado_892" data-name="Trazado 892" d="M4023.8,3203.488c.059.6.131,1.205.208,1.817.182,1.419.409,2.861.686,4.336.113.595.231,1.2.358,1.8.271,1.274.58,2.563.934,3.882q.231.87.491,1.764c.256.9.54,1.818.843,2.748.186.572.375,1.152.58,1.734q.4,1.149.84,2.326a20.66,20.66,0,0,1,5.182-.92c2.909-.135,5.855.339,8.724-.159a17.006,17.006,0,0,0,4.216-1.378c-.188-.42-.372-.836-.552-1.244-.256-.58-.5-1.148-.74-1.706-.273-.639-.54-1.271-.789-1.881-.107-.257-.213-.513-.316-.767-.134-.325-.264-.649-.392-.966-.462-1.144-.885-2.242-1.279-3.3-.222-.6-.435-1.179-.638-1.75-.337-.947-.649-1.864-.936-2.739-.2-.627-.39-1.228-.571-1.818-.123-.415-.244-.821-.356-1.218-1.84-6.477-2.106-10.763-1.657-13.768a7.556,7.556,0,0,0-2.845-7.152l-.858-.657a6.723,6.723,0,0,0-10.731,4.045,41.289,41.289,0,0,0-.67,5.647c-.04.784-.069,1.572-.086,2.369A72.333,72.333,0,0,0,4023.8,3203.488Z" fill="#303030"/>
        </g>
        <path id="Trazado_893" data-name="Trazado 893" d="M4038.234,3178.878a4.389,4.389,0,0,0-.643-3.152c-1.006-1.367-1.262.425-1.262.425Z" fill="#2d334a"/>
        <path id="Trazado_894" data-name="Trazado 894" d="M4027.192,3176.885c.109.146,1.786,3,2.312,2.965.721-.047.107-2.369.107-2.369Z" fill="#2d334a"/>
        <path id="Trazado_895" data-name="Trazado 895" d="M4035.972,3171.411a3.416,3.416,0,0,0-.294-2.642c-.731-.943-1.906-1.878-5.773-.429a1.225,1.225,0,0,0-.775,1.36l.29,1.644Z" fill="#2d334a"/>
        <path id="Trazado_896" data-name="Trazado 896" d="M4028.919,3175.667c.761,2.317,1.562,4.181,3.239,4.932a4.625,4.625,0,0,0,3.68.094,3.011,3.011,0,0,0,2.16-2.664,13.74,13.74,0,0,0-1.027-5c-1.194-3.639-3.6-4.9-5.827-4.169S4027.726,3172.029,4028.919,3175.667Z" fill="#deb097"/>
        <path id="Trazado_897" data-name="Trazado 897" d="M4028.512,3175.69l4.106-.9a66.946,66.946,0,0,1,1.23,7.993c-.078.647-1.08,1.058-2.237.918-1.041-.126-1.846-.654-1.943-1.23h0A55.263,55.263,0,0,0,4028.512,3175.69Z" fill="#deb097"/>
        <path id="Trazado_898" data-name="Trazado 898" d="M4027.341,3177.123a1.916,1.916,0,0,0,1.712-.9,13.052,13.052,0,0,0,1.491-5.167c.1-2.066-.574-2.491-.574-2.491s-3.742.983-4.326,2.393C4024.77,3173.069,4027.341,3177.123,4027.341,3177.123Z" fill="#2d334a"/>
        <path id="Trazado_899" data-name="Trazado 899" d="M4029.646,3173.479l1.738,5.31a1.469,1.469,0,0,0,1.271,1.007l.674.059a.661.661,0,0,0,.714-.732l-.126-1.132a.573.573,0,0,1,.349-.593l2.342-.971a.573.573,0,0,1,.692.206l.637.929a1.826,1.826,0,0,1-.7,2.67l-1.385.683a2.021,2.021,0,0,1-.95.207.645.645,0,0,1-.075,0l-.044,0h0l-.52-.045h0l-1.7-.148a2.6,2.6,0,0,1-2.248-1.783l-1.738-5.309Z" fill="#2d334a"/>
        <path id="Trazado_900" data-name="Trazado 900" d="M4027.319,3176.3c.255.789,1.364,1.546,1.936,1.361s.508-.87.254-1.66-.957-1.378-1.529-1.194A1.07,1.07,0,0,0,4027.319,3176.3Z" fill="#deb097"/>
        <path id="Trazado_901" data-name="Trazado 901" d="M4030.045,3170.307l2.35-.748a3.44,3.44,0,0,1,2.4.116l1.033.443-1.8-1.848-2.118-.106-2.341.944Z" fill="#2d334a"/>
      </g>
      <g id="Grupo_441" data-name="Grupo 441">
        <path id="Trazado_902" data-name="Trazado 902" d="M4084.3,3182.926s6.635-.277,10.623,9.5,12.388,7.81,12.388,7.81" fill="none" stroke="#2d334a" stroke-miterlimit="10" stroke-width="45.159"/>
        <path id="Trazado_903" data-name="Trazado 903" d="M4109.579,3203.271a5.209,5.209,0,0,1-7.2-2.692,5.73,5.73,0,0,1-.152-3.541c1.078-4.335,6.943-4.88,9.181-2.041a5.194,5.194,0,0,1-.254,7.217A7.267,7.267,0,0,1,4109.579,3203.271Z" fill="#2d334a"/>
        <path id="Trazado_904" data-name="Trazado 904" d="M4080.047,3306.137s.826,2.806.33,2.971-12.05.661-12.876.165,1.651-1.32,1.651-1.32a73.1,73.1,0,0,1,8.584-1.816A10.818,10.818,0,0,1,4080.047,3306.137Z" fill="#fff"/>
        <path id="Trazado_905" data-name="Trazado 905" d="M4081.647,3268c-.66-1.321-1.409-1.981-2.641-1.981a2.394,2.394,0,0,0-2.392,2.475l1.288,37.728a1.1,1.1,0,0,0,2.208,0l.055-1.631C4082.282,3278.773,4083.628,3272.791,4081.647,3268Z" fill="#fff"/>
        <path id="Trazado_906" data-name="Trazado 906" d="M4085.531,3234.624c-.94-4.419-3.3-5.168-4.935-5.111a2.32,2.32,0,0,0-.336-.05,2.393,2.393,0,0,0-2.556,2.305l-1.3,37.727a1.1,1.1,0,0,0,1.584,1.032,3.828,3.828,0,0,0,2.73-2.836C4082.379,3260.447,4086.754,3240.37,4085.531,3234.624Z" fill="#99ae8e"/>
        <path id="Trazado_907" data-name="Trazado 907" d="M4092.6,3230.84c-2.788-3.554-5.239-3.188-6.68-2.419a2.321,2.321,0,0,0-.324.1,2.393,2.393,0,0,0-1.282,3.194l15.424,34.455a1.1,1.1,0,0,0,1.425.572,1.094,1.094,0,0,0,.451-.342,3.825,3.825,0,0,0,1.2-3.747C4101.128,3255.418,4096.227,3235.463,4092.6,3230.84Z" fill="#99ae8e"/>
        <path id="Trazado_908" data-name="Trazado 908" d="M4134.3,3246.209s2-2.135,2.394-1.791,6.679,10.051,6.671,11.014-1.975-.753-1.975-.753a73.077,73.077,0,0,1-5.918-6.478S4134.161,3246.292,4134.3,3246.209Z" fill="#fff"/>
        <path id="Trazado_909" data-name="Trazado 909" d="M4073.167,3306.679a14.609,14.609,0,0,0,5.437.87c.72,0,1.412-.036,2.061-.1.15,1.019.216,2.208-.278,2.265-.873.1-13.437.482-13.511-.1C4066.731,3308.462,4070.1,3307.363,4073.167,3306.679Z" fill="#3b3e54"/>
        <path id="Trazado_910" data-name="Trazado 910" d="M4100.267,3262.833c-.846,1.211-1.069,2.183-.482,3.267a2.393,2.393,0,0,0,3.316.922l32.55-19.12a1.1,1.1,0,0,0-1.053-1.941l-1.46.729C4109.431,3257.141,4103.531,3258.81,4100.267,3262.833Z" fill="#fff"/>
        <path id="Trazado_911" data-name="Trazado 911" d="M4138.259,3251.864a14.612,14.612,0,0,0-2.007-5.127,20.636,20.636,0,0,0-1.132-1.726c.8-.646,1.793-1.306,2.093-.908.53.7,7.229,11.337,6.764,11.7C4143.059,3256.507,4140.4,3254.159,4138.259,3251.864Z" fill="#303030"/>
        <path id="Trazado_912" data-name="Trazado 912" d="M4077.985,3230.721s-2.776,33.065-3.148,36.106.5,8.694.5,8.694,7.137,9.7,13.877,4.285,2.95-6.56,10.248-7.684,14.5-11.705,14.082-17.239a54.378,54.378,0,0,0-10.618,4.585s-6.927-25.3-8.771-28.747Z" fill="#303030"/>
        <path id="Trazado_913" data-name="Trazado 913" d="M4059.488,3155.6a2.854,2.854,0,0,0,.853-2.388c-.266-2.273-.913-6.542-2.082-7.33-1.607-1.084-1.842,6.285.863,10.07Z" fill="#fff"/>
        <g id="Grupo_438" data-name="Grupo 438">
          <path id="Trazado_914" data-name="Trazado 914" d="M4060.572,3154.615c2.058,4.88,4.932,16.134,5,19.491.056,2.784-1.635,2.777-1.705,2.8a2.274,2.274,0,0,1-2.4-1.585l-3.348-20.089Z" fill="#878991"/>
        </g>
        <g id="Grupo_439" data-name="Grupo 439">
          <path id="Trazado_915" data-name="Trazado 915" d="M4095.341,3234.841c.467.151.243-9.469-.871-16.352.251-5.967-1.349-20.208-2.713-24.521-1.714-5.418-4.42-8.387-8.929-6.22-1.42.682-2.766,4.673-3.365,8.917s-1.441,3.392.894,9.614c.83,2.212-1.258,17.191-2.29,21.152-.3,1.138-.729,5.008-1.295,6.208a10.117,10.117,0,0,0,2.513,1.35C4085.506,3237.246,4089.111,3232.825,4095.341,3234.841Z" fill="#878991"/>
        </g>
        <path id="Trazado_916" data-name="Trazado 916" d="M4080.567,3196.055c-3.581,0-6.744,4.308-6.744,4.308s-3.163-4.31-6.743-4.308a5.231,5.231,0,0,0-5.523,5.509c-.046,4.322,5.967,5.239,8.521,5.413s3.745,3.449,3.745,3.449,1.192-3.276,3.746-3.449,8.566-1.091,8.52-5.413A5.23,5.23,0,0,0,4080.567,3196.055Z" fill="#dd474d"/>
        <path id="Trazado_917" data-name="Trazado 917" d="M4085,3188.869c2.056,2.332-.148,3.826-.191,3.892-.5.785-2.324.785-3.228.1l-19.38-16.383c-.338-.233.039-.8.26-1.144a.751.751,0,0,1,.288-.262,3.064,3.064,0,0,1,2.926-.232C4070.36,3176.892,4082.329,3185.835,4085,3188.869Z" fill="#878991"/>
        <path id="Trazado_918" data-name="Trazado 918" d="M4089.714,3207.9a2.854,2.854,0,0,0-.632-2.456c-1.5-1.732-4.425-4.9-5.834-4.9-1.939,0,2,6.237,6.361,7.854Z" fill="#fff"/>
        <path id="Trazado_919" data-name="Trazado 919" d="M4085.985,3193.382c-1.989-2.421.289-3.867.334-3.933.536-.778,1.967-1.5,2.854-.777l17.484,18.72c1.414,1.885.875,2.472.64,2.814a.778.778,0,0,1-.3.257,2.276,2.276,0,0,1-2.507-.055C4099.839,3208.191,4088.571,3196.529,4085.985,3193.382Z" fill="#878991"/>
        <g id="Grupo_440" data-name="Grupo 440">
          <path id="Trazado_920" data-name="Trazado 920" d="M4089.758,3205.971c4.723-.077,14.429,1.293,16.825,2.355,1.987.881.913,2.278.884,2.342-.336.76-2.066,1.322-3.417,1.09l-15.414-3.549Z" fill="#878991"/>
        </g>
        <path id="Trazado_921" data-name="Trazado 921" d="M4086.368,3185.552s4.124-1.581,4.368-5.763c.327-5.614-5.4-8.254-8.439-6.343-2.8,1.758-2.264,4.171-1.918,4.762S4086.368,3185.552,4086.368,3185.552Z" fill="#2d334a"/>
        <path id="Trazado_922" data-name="Trazado 922" d="M4087.594,3180.241l-4.5-.318a71.637,71.637,0,0,0-.069,8.68c.183.675,1.31.957,2.518.629,1.086-.294,1.86-.98,1.873-1.606h.006A59.345,59.345,0,0,1,4087.594,3180.241Z" fill="#fff"/>
        <path id="Trazado_923" data-name="Trazado 923" d="M4087.276,3180.9c-.682,3.551-3.708,5.955-5.879,5.539s-2.662-3.5-1.98-7.048,2.788-5.021,4.958-4.6S4087.958,3177.344,4087.276,3180.9Z" fill="#fff"/>
        <path id="Trazado_924" data-name="Trazado 924" d="M4081.744,3174.413s.907,4.756,5.324,6.358c2.275.825,3-2.763,3-2.763l-2.256-3.394s-1.837-1.441-3.233-1.287C4084.464,3173.34,4081.744,3174.413,4081.744,3174.413Z" fill="#2d334a"/>
        <path id="Trazado_925" data-name="Trazado 925" d="M4080.138,3177.148s3.957-1.45,4.539-2.833-1.454-1.2-1.454-1.2A5.226,5.226,0,0,0,4080.138,3177.148Z" fill="#2d334a"/>
        <path id="Trazado_926" data-name="Trazado 926" d="M4089.026,3182.2c-.352.826-1.623,1.533-2.221,1.278s-.463-.989-.11-1.815,1.167-1.392,1.765-1.137A1.157,1.157,0,0,1,4089.026,3182.2Z" fill="#fff"/>
      </g>
      <g id="Grupo_442" data-name="Grupo 442">
        <path id="Trazado_927" data-name="Trazado 927" d="M4149.724,3320.306a9.006,9.006,0,0,1,8.657,6.527h-17.315A9.007,9.007,0,0,1,4149.724,3320.306Z" fill="#7f839e"/>
        <path id="Trazado_928" data-name="Trazado 928" d="M4107.526,3317.219a13.266,13.266,0,0,1,12.753,9.614h-25.507A13.267,13.267,0,0,1,4107.526,3317.219Z" fill="#7f839e"/>
        <path id="Trazado_929" data-name="Trazado 929" d="M4147.1,3326.833c-1.955-6.767-9.705-11.821-18.968-11.821s-17.012,5.054-18.968,11.821Z" fill="#7f839e"/>
      </g>
      <g id="Grupo_443" data-name="Grupo 443">
        <path id="Trazado_930" data-name="Trazado 930" d="M3791.042,3278.793a9.006,9.006,0,0,1,8.657,6.527h-17.314A9.006,9.006,0,0,1,3791.042,3278.793Z" fill="#7f839e"/>
        <path id="Trazado_931" data-name="Trazado 931" d="M3748.844,3275.705a13.266,13.266,0,0,1,12.753,9.615h-25.506A13.266,13.266,0,0,1,3748.844,3275.705Z" fill="#7f839e"/>
        <path id="Trazado_932" data-name="Trazado 932" d="M3788.423,3285.32c-1.956-6.767-9.705-11.821-18.968-11.821s-17.013,5.054-18.969,11.821Z" fill="#7f839e"/>
      </g>
    </g>
  </g>
</svg>
